%FSLAX45Y45*%
G04 Gerber Fmt 4.5, Leading zero omitted, Abs format (unit mm)*
G04 Created by KiCad (PCBNEW (5.1.9)-1) date 2021-07-06 19:47:33*
%MOMM*%
%LPD*%
G01*
G04 APERTURE LIST*
%TA.AperFunction,Profile*%
%ADD10C,0.150000*%
%TD*%
%ADD11C,0.200000*%
%ADD12C,0.300000*%
G04 APERTURE END LIST*
D10*
X8780800Y-5308600D02*
X8780800Y-15308600D01*
X24780800Y-5308600D02*
X8780800Y-5308600D01*
X24780800Y-15308600D02*
X24780800Y-5308600D01*
X8780800Y-15308600D02*
X24780800Y-15308600D01*
D11*
X11427800Y-7795600D02*
X11467800Y-7835600D01*
X11467800Y-7795600D02*
X11427800Y-7835600D01*
X11427800Y-7795600D02*
X11467800Y-7835600D01*
X11467800Y-7795600D02*
X11427800Y-7835600D01*
X11834200Y-7440000D02*
X11874200Y-7480000D01*
X11874200Y-7440000D02*
X11834200Y-7480000D01*
X13104200Y-9167200D02*
X13144200Y-9207200D01*
X13144200Y-9167200D02*
X13104200Y-9207200D01*
X13866200Y-9268800D02*
X13906200Y-9308800D01*
X13906200Y-9268800D02*
X13866200Y-9308800D01*
X14247200Y-10208600D02*
X14287200Y-10248600D01*
X14287200Y-10208600D02*
X14247200Y-10248600D01*
X14348800Y-10462600D02*
X14388800Y-10502600D01*
X14388800Y-10462600D02*
X14348800Y-10502600D01*
X14856800Y-13561400D02*
X14896800Y-13601400D01*
X14896800Y-13561400D02*
X14856800Y-13601400D01*
X14856800Y-13808801D02*
X14896800Y-13848801D01*
X14896800Y-13808801D02*
X14856800Y-13848801D01*
X14882200Y-9548200D02*
X14922200Y-9588200D01*
X14922200Y-9548200D02*
X14882200Y-9588200D01*
X15180401Y-13808801D02*
X15220401Y-13848801D01*
X15220401Y-13808801D02*
X15180401Y-13848801D01*
X15237800Y-13561400D02*
X15277800Y-13601400D01*
X15277800Y-13561400D02*
X15237800Y-13601400D01*
X15390200Y-13434400D02*
X15430200Y-13474400D01*
X15430200Y-13434400D02*
X15390200Y-13474400D01*
X15449200Y-13908800D02*
X15489200Y-13948800D01*
X15489200Y-13908800D02*
X15449200Y-13948800D01*
X15580700Y-13396300D02*
X15620700Y-13436300D01*
X15620700Y-13396300D02*
X15580700Y-13436300D01*
X15644200Y-8811600D02*
X15684200Y-8851600D01*
X15684200Y-8811600D02*
X15644200Y-8851600D01*
X15745800Y-13688400D02*
X15785800Y-13728400D01*
X15785800Y-13688400D02*
X15745800Y-13728400D01*
X15758500Y-13218500D02*
X15798500Y-13258500D01*
X15798500Y-13218500D02*
X15758500Y-13258500D01*
X15961700Y-13015300D02*
X16001700Y-13055300D01*
X16001700Y-13015300D02*
X15961700Y-13055300D01*
X15961700Y-13396300D02*
X16001700Y-13436300D01*
X16001700Y-13396300D02*
X15961700Y-13436300D01*
X16075023Y-9445623D02*
X16115023Y-9485623D01*
X16115023Y-9445623D02*
X16075023Y-9485623D01*
X16076000Y-9548200D02*
X16116000Y-9588200D01*
X16116000Y-9548200D02*
X16076000Y-9588200D01*
X16076000Y-9548200D02*
X16116000Y-9588200D01*
X16116000Y-9548200D02*
X16076000Y-9588200D01*
X16126800Y-13231200D02*
X16166800Y-13271200D01*
X16166800Y-13231200D02*
X16126800Y-13271200D01*
X16177600Y-12799400D02*
X16217600Y-12839400D01*
X16217600Y-12799400D02*
X16177600Y-12839400D01*
X16393500Y-12583500D02*
X16433500Y-12623500D01*
X16433500Y-12583500D02*
X16393500Y-12623500D01*
X16406200Y-12951800D02*
X16446200Y-12991800D01*
X16446200Y-12951800D02*
X16406200Y-12991800D01*
X16622100Y-12735900D02*
X16662100Y-12775900D01*
X16662100Y-12735900D02*
X16622100Y-12775900D01*
X16634800Y-12342200D02*
X16674800Y-12382200D01*
X16674800Y-12342200D02*
X16634800Y-12382200D01*
X16672900Y-10094300D02*
X16712900Y-10134300D01*
X16712900Y-10094300D02*
X16672900Y-10134300D01*
X16761800Y-10259400D02*
X16801800Y-10299400D01*
X16801800Y-10259400D02*
X16761800Y-10299400D01*
X16761800Y-10538800D02*
X16801800Y-10578800D01*
X16801800Y-10538800D02*
X16761800Y-10578800D01*
X16761800Y-10818200D02*
X16801800Y-10858200D01*
X16801800Y-10818200D02*
X16761800Y-10858200D01*
X16761800Y-11046800D02*
X16801800Y-11086800D01*
X16801800Y-11046800D02*
X16761800Y-11086800D01*
X16761800Y-11351600D02*
X16801800Y-11391600D01*
X16801800Y-11351600D02*
X16761800Y-11391600D01*
X16761800Y-11580200D02*
X16801800Y-11620200D01*
X16801800Y-11580200D02*
X16761800Y-11620200D01*
X16761800Y-11935800D02*
X16801800Y-11975800D01*
X16801800Y-11935800D02*
X16761800Y-11975800D01*
X16761800Y-12139000D02*
X16801800Y-12179000D01*
X16801800Y-12139000D02*
X16761800Y-12179000D01*
X16826668Y-9815399D02*
X16866668Y-9855399D01*
X16866668Y-9815399D02*
X16826668Y-9855399D01*
X16863400Y-12494600D02*
X16903400Y-12534600D01*
X16903400Y-12494600D02*
X16863400Y-12534600D01*
X17038801Y-9903268D02*
X17078801Y-9943268D01*
X17078801Y-9903268D02*
X17038801Y-9943268D01*
X17041200Y-10259400D02*
X17081200Y-10299400D01*
X17081200Y-10259400D02*
X17041200Y-10299400D01*
X17041200Y-10538800D02*
X17081200Y-10578800D01*
X17081200Y-10538800D02*
X17041200Y-10578800D01*
X17041200Y-10818200D02*
X17081200Y-10858200D01*
X17081200Y-10818200D02*
X17041200Y-10858200D01*
X17041200Y-11046800D02*
X17081200Y-11086800D01*
X17081200Y-11046800D02*
X17041200Y-11086800D01*
X17041200Y-11351600D02*
X17081200Y-11391600D01*
X17081200Y-11351600D02*
X17041200Y-11391600D01*
X17041200Y-11580200D02*
X17081200Y-11620200D01*
X17081200Y-11580200D02*
X17041200Y-11620200D01*
X17041200Y-11961200D02*
X17081200Y-12001200D01*
X17081200Y-11961200D02*
X17041200Y-12001200D01*
X17041200Y-12215200D02*
X17081200Y-12255200D01*
X17081200Y-12215200D02*
X17041200Y-12255200D01*
X17521801Y-6955401D02*
X17561801Y-6995401D01*
X17561801Y-6955401D02*
X17521801Y-6995401D01*
X17818000Y-8835800D02*
X17858000Y-8875800D01*
X17858000Y-8835800D02*
X17818000Y-8875800D01*
X18057200Y-8608400D02*
X18097200Y-8648400D01*
X18097200Y-8608400D02*
X18057200Y-8648400D01*
X18692200Y-11961200D02*
X18732200Y-12001200D01*
X18732200Y-11961200D02*
X18692200Y-12001200D01*
X18768400Y-12596200D02*
X18808400Y-12636200D01*
X18808400Y-12596200D02*
X18768400Y-12636200D01*
X19149400Y-12596200D02*
X19189400Y-12636200D01*
X19189400Y-12596200D02*
X19149400Y-12636200D01*
X19174800Y-11961200D02*
X19214800Y-12001200D01*
X19214800Y-11961200D02*
X19174800Y-12001200D01*
X19276400Y-8659200D02*
X19316400Y-8699200D01*
X19316400Y-8659200D02*
X19276400Y-8699200D01*
X20089200Y-9624400D02*
X20129200Y-9664400D01*
X20129200Y-9624400D02*
X20089200Y-9664400D01*
X20267000Y-9903800D02*
X20307000Y-9943800D01*
X20307000Y-9903800D02*
X20267000Y-9943800D01*
X20317800Y-9827600D02*
X20357800Y-9867600D01*
X20357800Y-9827600D02*
X20317800Y-9867600D01*
X20343200Y-6551000D02*
X20383200Y-6591000D01*
X20383200Y-6551000D02*
X20343200Y-6591000D01*
X20343200Y-6855800D02*
X20383200Y-6895800D01*
X20383200Y-6855800D02*
X20343200Y-6895800D01*
X20368600Y-9218000D02*
X20408600Y-9258000D01*
X20408600Y-9218000D02*
X20368600Y-9258000D01*
X20650550Y-10668350D02*
X20690550Y-10708350D01*
X20690550Y-10668350D02*
X20650550Y-10708350D01*
X21498900Y-8265500D02*
X21538900Y-8305500D01*
X21538900Y-8265500D02*
X21498900Y-8305500D01*
X21765600Y-8075000D02*
X21805600Y-8115000D01*
X21805600Y-8075000D02*
X21765600Y-8115000D01*
X21943400Y-10665800D02*
X21983400Y-10705800D01*
X21983400Y-10665800D02*
X21943400Y-10705800D01*
X22146600Y-10386400D02*
X22186600Y-10426400D01*
X22186600Y-10386400D02*
X22146600Y-10426400D01*
X23086400Y-11529400D02*
X23126400Y-11569400D01*
X23126400Y-11529400D02*
X23086400Y-11569400D01*
X24305600Y-10970600D02*
X24345600Y-11010600D01*
X24345600Y-10970600D02*
X24305600Y-11010600D01*
X17701100Y-12667000D02*
G75*
G03*
X17701100Y-12667000I-36500J0D01*
G01*
X17701100Y-12921000D02*
G75*
G03*
X17701100Y-12921000I-36500J0D01*
G01*
X17701100Y-13175000D02*
G75*
G03*
X17701100Y-13175000I-36500J0D01*
G01*
X17701100Y-13429000D02*
G75*
G03*
X17701100Y-13429000I-36500J0D01*
G01*
X17701100Y-13683000D02*
G75*
G03*
X17701100Y-13683000I-36500J0D01*
G01*
X17701100Y-13937000D02*
G75*
G03*
X17701100Y-13937000I-36500J0D01*
G01*
X17701100Y-14191000D02*
G75*
G03*
X17701100Y-14191000I-36500J0D01*
G01*
X17701100Y-14445000D02*
G75*
G03*
X17701100Y-14445000I-36500J0D01*
G01*
X18475500Y-12667000D02*
G75*
G03*
X18475500Y-12667000I-36500J0D01*
G01*
X18475500Y-12921000D02*
G75*
G03*
X18475500Y-12921000I-36500J0D01*
G01*
X18475500Y-13175000D02*
G75*
G03*
X18475500Y-13175000I-36500J0D01*
G01*
X18475500Y-13429000D02*
G75*
G03*
X18475500Y-13429000I-36500J0D01*
G01*
X18475500Y-13683000D02*
G75*
G03*
X18475500Y-13683000I-36500J0D01*
G01*
X18475500Y-13937000D02*
G75*
G03*
X18475500Y-13937000I-36500J0D01*
G01*
X18475500Y-14191000D02*
G75*
G03*
X18475500Y-14191000I-36500J0D01*
G01*
X18475500Y-14445000D02*
G75*
G03*
X18475500Y-14445000I-36500J0D01*
G01*
X11371600Y-12804800D02*
X11371600Y-12884800D01*
X11331600Y-12844800D02*
X11411600Y-12844800D01*
X11371600Y-13135000D02*
X11371600Y-13215000D01*
X11331600Y-13175000D02*
X11411600Y-13175000D01*
X11371600Y-13592200D02*
X11371600Y-13672200D01*
X11331600Y-13632200D02*
X11411600Y-13632200D01*
X11371600Y-13947800D02*
X11371600Y-14027800D01*
X11331600Y-13987800D02*
X11411600Y-13987800D01*
X11498600Y-11255400D02*
X11498600Y-11335400D01*
X11458600Y-11295400D02*
X11538600Y-11295400D01*
X11498600Y-11509400D02*
X11498600Y-11589400D01*
X11458600Y-11549400D02*
X11538600Y-11549400D01*
X11498600Y-11763400D02*
X11498600Y-11843400D01*
X11458600Y-11803400D02*
X11538600Y-11803400D01*
X11498600Y-12017400D02*
X11498600Y-12097400D01*
X11458600Y-12057400D02*
X11538600Y-12057400D01*
X11633600Y-10899800D02*
X11633600Y-10979800D01*
X11593600Y-10939800D02*
X11673600Y-10939800D01*
X12133600Y-10899800D02*
X12133600Y-10979800D01*
X12093600Y-10939800D02*
X12173600Y-10939800D01*
X12260600Y-11255400D02*
X12260600Y-11335400D01*
X12220600Y-11295400D02*
X12300600Y-11295400D01*
X12260600Y-11509400D02*
X12260600Y-11589400D01*
X12220600Y-11549400D02*
X12300600Y-11549400D01*
X12260600Y-11763400D02*
X12260600Y-11843400D01*
X12220600Y-11803400D02*
X12300600Y-11803400D01*
X12260600Y-12017400D02*
X12260600Y-12097400D01*
X12220600Y-12057400D02*
X12300600Y-12057400D01*
X12387600Y-12804800D02*
X12387600Y-12884800D01*
X12347600Y-12844800D02*
X12427600Y-12844800D01*
X12387600Y-13135000D02*
X12387600Y-13215000D01*
X12347600Y-13175000D02*
X12427600Y-13175000D01*
X12387600Y-13592200D02*
X12387600Y-13672200D01*
X12347600Y-13632200D02*
X12427600Y-13632200D01*
X12387600Y-13947800D02*
X12387600Y-14027800D01*
X12347600Y-13987800D02*
X12427600Y-13987800D01*
X13048000Y-11153800D02*
X13048000Y-11233800D01*
X13008000Y-11193800D02*
X13088000Y-11193800D01*
X13048000Y-11653800D02*
X13048000Y-11733800D01*
X13008000Y-11693800D02*
X13088000Y-11693800D01*
X13378200Y-11001400D02*
X13378200Y-11081400D01*
X13338200Y-11041400D02*
X13418200Y-11041400D01*
X13378200Y-11763400D02*
X13378200Y-11843400D01*
X13338200Y-11803400D02*
X13418200Y-11803400D01*
X13632200Y-11001400D02*
X13632200Y-11081400D01*
X13592200Y-11041400D02*
X13672200Y-11041400D01*
X13632200Y-11763400D02*
X13632200Y-11843400D01*
X13592200Y-11803400D02*
X13672200Y-11803400D01*
X13886200Y-11001400D02*
X13886200Y-11081400D01*
X13846200Y-11041400D02*
X13926200Y-11041400D01*
X13886200Y-11763400D02*
X13886200Y-11843400D01*
X13846200Y-11803400D02*
X13926200Y-11803400D01*
X13886200Y-12677800D02*
X13886200Y-12757800D01*
X13846200Y-12717800D02*
X13926200Y-12717800D01*
X13886200Y-12931800D02*
X13886200Y-13011800D01*
X13846200Y-12971800D02*
X13926200Y-12971800D01*
X13886200Y-13185800D02*
X13886200Y-13265800D01*
X13846200Y-13225800D02*
X13926200Y-13225800D01*
X13886200Y-13439800D02*
X13886200Y-13519800D01*
X13846200Y-13479800D02*
X13926200Y-13479800D01*
X13886200Y-13693800D02*
X13886200Y-13773800D01*
X13846200Y-13733800D02*
X13926200Y-13733800D01*
X13886200Y-13947800D02*
X13886200Y-14027800D01*
X13846200Y-13987800D02*
X13926200Y-13987800D01*
X13886200Y-14201800D02*
X13886200Y-14281800D01*
X13846200Y-14241800D02*
X13926200Y-14241800D01*
X14038600Y-14582800D02*
X14038600Y-14662800D01*
X13998600Y-14622800D02*
X14078600Y-14622800D01*
X14064000Y-12322200D02*
X14064000Y-12402200D01*
X14024000Y-12362200D02*
X14104000Y-12362200D01*
X14140200Y-11001400D02*
X14140200Y-11081400D01*
X14100200Y-11041400D02*
X14180200Y-11041400D01*
X14140200Y-11763400D02*
X14140200Y-11843400D01*
X14100200Y-11803400D02*
X14180200Y-11803400D01*
X14521200Y-9934600D02*
X14521200Y-10014600D01*
X14481200Y-9974600D02*
X14561200Y-9974600D01*
X14521200Y-10950600D02*
X14521200Y-11030600D01*
X14481200Y-10990600D02*
X14561200Y-10990600D01*
X14538600Y-14582800D02*
X14538600Y-14662800D01*
X14498600Y-14622800D02*
X14578600Y-14622800D01*
X14564000Y-12322200D02*
X14564000Y-12402200D01*
X14524000Y-12362200D02*
X14604000Y-12362200D01*
X14648200Y-12677800D02*
X14648200Y-12757800D01*
X14608200Y-12717800D02*
X14688200Y-12717800D01*
X14648200Y-12931800D02*
X14648200Y-13011800D01*
X14608200Y-12971800D02*
X14688200Y-12971800D01*
X14648200Y-13185800D02*
X14648200Y-13265800D01*
X14608200Y-13225800D02*
X14688200Y-13225800D01*
X14648200Y-13439800D02*
X14648200Y-13519800D01*
X14608200Y-13479800D02*
X14688200Y-13479800D01*
X14648200Y-13693800D02*
X14648200Y-13773800D01*
X14608200Y-13733800D02*
X14688200Y-13733800D01*
X14648200Y-13947800D02*
X14648200Y-14027800D01*
X14608200Y-13987800D02*
X14688200Y-13987800D01*
X14648200Y-14201800D02*
X14648200Y-14281800D01*
X14608200Y-14241800D02*
X14688200Y-14241800D01*
X14851400Y-8791600D02*
X14851400Y-8871600D01*
X14811400Y-8831600D02*
X14891400Y-8831600D01*
X14851400Y-9807600D02*
X14851400Y-9887600D01*
X14811400Y-9847600D02*
X14891400Y-9847600D01*
X15461000Y-5692800D02*
X15461000Y-5772800D01*
X15421000Y-5732800D02*
X15501000Y-5732800D01*
X15461000Y-6708800D02*
X15461000Y-6788800D01*
X15421000Y-6748800D02*
X15501000Y-6748800D01*
X16146800Y-5870600D02*
X16146800Y-5950600D01*
X16106800Y-5910600D02*
X16186800Y-5910600D01*
X16146800Y-6886600D02*
X16146800Y-6966600D01*
X16106800Y-6926600D02*
X16186800Y-6926600D01*
X16146800Y-9223400D02*
X16146800Y-9303400D01*
X16106800Y-9263400D02*
X16186800Y-9263400D01*
X16146800Y-9985400D02*
X16146800Y-10065400D01*
X16106800Y-10025400D02*
X16186800Y-10025400D01*
X16400800Y-9223400D02*
X16400800Y-9303400D01*
X16360800Y-9263400D02*
X16440800Y-9263400D01*
X16400800Y-9985400D02*
X16400800Y-10065400D01*
X16360800Y-10025400D02*
X16440800Y-10025400D01*
X16604000Y-13820800D02*
X16604000Y-13900800D01*
X16564000Y-13860800D02*
X16644000Y-13860800D01*
X16604000Y-14836800D02*
X16604000Y-14916800D01*
X16564000Y-14876800D02*
X16644000Y-14876800D01*
X16654800Y-9223400D02*
X16654800Y-9303400D01*
X16614800Y-9263400D02*
X16694800Y-9263400D01*
X16654800Y-9985400D02*
X16654800Y-10065400D01*
X16614800Y-10025400D02*
X16694800Y-10025400D01*
X16908800Y-9223400D02*
X16908800Y-9303400D01*
X16868800Y-9263400D02*
X16948800Y-9263400D01*
X16908800Y-9985400D02*
X16908800Y-10065400D01*
X16868800Y-10025400D02*
X16948800Y-10025400D01*
X16934200Y-13820800D02*
X16934200Y-13900800D01*
X16894200Y-13860800D02*
X16974200Y-13860800D01*
X16934200Y-14836800D02*
X16934200Y-14916800D01*
X16894200Y-14876800D02*
X16974200Y-14876800D01*
X17162800Y-6048400D02*
X17162800Y-6128400D01*
X17122800Y-6088400D02*
X17202800Y-6088400D01*
X17162800Y-6302400D02*
X17162800Y-6382400D01*
X17122800Y-6342400D02*
X17202800Y-6342400D01*
X17162800Y-6556400D02*
X17162800Y-6636400D01*
X17122800Y-6596400D02*
X17202800Y-6596400D01*
X17162800Y-6810400D02*
X17162800Y-6890400D01*
X17122800Y-6850400D02*
X17202800Y-6850400D01*
X17162800Y-7064400D02*
X17162800Y-7144400D01*
X17122800Y-7104400D02*
X17202800Y-7104400D01*
X17162800Y-7318400D02*
X17162800Y-7398400D01*
X17122800Y-7358400D02*
X17202800Y-7358400D01*
X17162800Y-7572400D02*
X17162800Y-7652400D01*
X17122800Y-7612400D02*
X17202800Y-7612400D01*
X17162800Y-7826400D02*
X17162800Y-7906400D01*
X17122800Y-7866400D02*
X17202800Y-7866400D01*
X17289800Y-8571000D02*
X17289800Y-8651000D01*
X17249800Y-8611000D02*
X17329800Y-8611000D01*
X17289800Y-9071000D02*
X17289800Y-9151000D01*
X17249800Y-9111000D02*
X17329800Y-9111000D01*
X17289800Y-9350400D02*
X17289800Y-9430400D01*
X17249800Y-9390400D02*
X17329800Y-9390400D01*
X17289800Y-9850400D02*
X17289800Y-9930400D01*
X17249800Y-9890400D02*
X17329800Y-9890400D01*
X17297800Y-5718200D02*
X17297800Y-5798200D01*
X17257800Y-5758200D02*
X17337800Y-5758200D01*
X17340600Y-14328800D02*
X17340600Y-14408800D01*
X17300600Y-14368800D02*
X17380600Y-14368800D01*
X17340600Y-14828800D02*
X17340600Y-14908800D01*
X17300600Y-14868800D02*
X17380600Y-14868800D01*
X17366000Y-13008000D02*
X17366000Y-13088000D01*
X17326000Y-13048000D02*
X17406000Y-13048000D01*
X17366000Y-13508000D02*
X17366000Y-13588000D01*
X17326000Y-13548000D02*
X17406000Y-13548000D01*
X17569200Y-10722000D02*
X17569200Y-10802000D01*
X17529200Y-10762000D02*
X17609200Y-10762000D01*
X17569200Y-11738000D02*
X17569200Y-11818000D01*
X17529200Y-11778000D02*
X17609200Y-11778000D01*
X17797800Y-5718200D02*
X17797800Y-5798200D01*
X17757800Y-5758200D02*
X17837800Y-5758200D01*
X17805800Y-12271400D02*
X17805800Y-12351400D01*
X17765800Y-12311400D02*
X17845800Y-12311400D01*
X17924800Y-6048400D02*
X17924800Y-6128400D01*
X17884800Y-6088400D02*
X17964800Y-6088400D01*
X17924800Y-6302400D02*
X17924800Y-6382400D01*
X17884800Y-6342400D02*
X17964800Y-6342400D01*
X17924800Y-6556400D02*
X17924800Y-6636400D01*
X17884800Y-6596400D02*
X17964800Y-6596400D01*
X17924800Y-6810400D02*
X17924800Y-6890400D01*
X17884800Y-6850400D02*
X17964800Y-6850400D01*
X17924800Y-7064400D02*
X17924800Y-7144400D01*
X17884800Y-7104400D02*
X17964800Y-7104400D01*
X17924800Y-7318400D02*
X17924800Y-7398400D01*
X17884800Y-7358400D02*
X17964800Y-7358400D01*
X17924800Y-7572400D02*
X17924800Y-7652400D01*
X17884800Y-7612400D02*
X17964800Y-7612400D01*
X17924800Y-7826400D02*
X17924800Y-7906400D01*
X17884800Y-7866400D02*
X17964800Y-7866400D01*
X18305800Y-12271400D02*
X18305800Y-12351400D01*
X18265800Y-12311400D02*
X18345800Y-12311400D01*
X18559800Y-10722000D02*
X18559800Y-10802000D01*
X18519800Y-10762000D02*
X18599800Y-10762000D01*
X18559800Y-11738000D02*
X18559800Y-11818000D01*
X18519800Y-11778000D02*
X18599800Y-11778000D01*
X18940800Y-6023000D02*
X18940800Y-6103000D01*
X18900800Y-6063000D02*
X18980800Y-6063000D01*
X18940800Y-6277000D02*
X18940800Y-6357000D01*
X18900800Y-6317000D02*
X18980800Y-6317000D01*
X18940800Y-6531000D02*
X18940800Y-6611000D01*
X18900800Y-6571000D02*
X18980800Y-6571000D01*
X18940800Y-6785000D02*
X18940800Y-6865000D01*
X18900800Y-6825000D02*
X18980800Y-6825000D01*
X18940800Y-7039000D02*
X18940800Y-7119000D01*
X18900800Y-7079000D02*
X18980800Y-7079000D01*
X18940800Y-7293000D02*
X18940800Y-7373000D01*
X18900800Y-7333000D02*
X18980800Y-7333000D01*
X18940800Y-7547000D02*
X18940800Y-7627000D01*
X18900800Y-7587000D02*
X18980800Y-7587000D01*
X18940800Y-7801000D02*
X18940800Y-7881000D01*
X18900800Y-7841000D02*
X18980800Y-7841000D01*
X19702800Y-6023000D02*
X19702800Y-6103000D01*
X19662800Y-6063000D02*
X19742800Y-6063000D01*
X19702800Y-6277000D02*
X19702800Y-6357000D01*
X19662800Y-6317000D02*
X19742800Y-6317000D01*
X19702800Y-6531000D02*
X19702800Y-6611000D01*
X19662800Y-6571000D02*
X19742800Y-6571000D01*
X19702800Y-6785000D02*
X19702800Y-6865000D01*
X19662800Y-6825000D02*
X19742800Y-6825000D01*
X19702800Y-7039000D02*
X19702800Y-7119000D01*
X19662800Y-7079000D02*
X19742800Y-7079000D01*
X19702800Y-7293000D02*
X19702800Y-7373000D01*
X19662800Y-7333000D02*
X19742800Y-7333000D01*
X19702800Y-7547000D02*
X19702800Y-7627000D01*
X19662800Y-7587000D02*
X19742800Y-7587000D01*
X19702800Y-7801000D02*
X19702800Y-7881000D01*
X19662800Y-7841000D02*
X19742800Y-7841000D01*
X20185400Y-9223400D02*
X20185400Y-9303400D01*
X20145400Y-9263400D02*
X20225400Y-9263400D01*
X20185400Y-10239400D02*
X20185400Y-10319400D01*
X20145400Y-10279400D02*
X20225400Y-10279400D01*
X20388600Y-13973200D02*
X20388600Y-14053200D01*
X20348600Y-14013200D02*
X20428600Y-14013200D01*
X21404600Y-13973200D02*
X21404600Y-14053200D01*
X21364600Y-14013200D02*
X21444600Y-14013200D01*
X10387420Y-12216220D02*
X10387420Y-12152580D01*
X10323780Y-12152580D01*
X10323780Y-12216220D01*
X10387420Y-12216220D01*
X10395420Y-14629220D02*
X10395420Y-14565580D01*
X10331780Y-14565580D01*
X10331780Y-14629220D01*
X10395420Y-14629220D01*
X10637420Y-12716220D02*
X10637420Y-12652580D01*
X10573780Y-12652580D01*
X10573780Y-12716220D01*
X10637420Y-12716220D01*
X10645420Y-14129220D02*
X10645420Y-14065580D01*
X10581780Y-14065580D01*
X10581780Y-14129220D01*
X10645420Y-14129220D01*
X10887420Y-12216220D02*
X10887420Y-12152580D01*
X10823780Y-12152580D01*
X10823780Y-12216220D01*
X10887420Y-12216220D01*
X10895420Y-14629220D02*
X10895420Y-14565580D01*
X10831780Y-14565580D01*
X10831780Y-14629220D01*
X10895420Y-14629220D01*
X11860620Y-14375220D02*
X11860620Y-14311580D01*
X11796980Y-14311580D01*
X11796980Y-14375220D01*
X11860620Y-14375220D01*
X12571820Y-12071820D02*
X12571820Y-12008180D01*
X12508180Y-12008180D01*
X12508180Y-12071820D01*
X12571820Y-12071820D01*
X12571820Y-12571820D02*
X12571820Y-12508180D01*
X12508180Y-12508180D01*
X12508180Y-12571820D01*
X12571820Y-12571820D01*
X12876620Y-14375220D02*
X12876620Y-14311580D01*
X12812980Y-14311580D01*
X12812980Y-14375220D01*
X12876620Y-14375220D01*
X13071820Y-12321820D02*
X13071820Y-12258180D01*
X13008180Y-12258180D01*
X13008180Y-12321820D01*
X13071820Y-12321820D01*
X14476820Y-11327220D02*
X14476820Y-11263580D01*
X14413180Y-11263580D01*
X14413180Y-11327220D01*
X14476820Y-11327220D01*
X14476820Y-11682820D02*
X14476820Y-11619180D01*
X14413180Y-11619180D01*
X14413180Y-11682820D01*
X14476820Y-11682820D01*
X14476820Y-12038420D02*
X14476820Y-11974780D01*
X14413180Y-11974780D01*
X14413180Y-12038420D01*
X14476820Y-12038420D01*
X14967420Y-14908620D02*
X14967420Y-14844980D01*
X14903780Y-14844980D01*
X14903780Y-14908620D01*
X14967420Y-14908620D01*
X15217420Y-14408620D02*
X15217420Y-14344980D01*
X15153780Y-14344980D01*
X15153780Y-14408620D01*
X15217420Y-14408620D01*
X15467420Y-14908620D02*
X15467420Y-14844980D01*
X15403780Y-14844980D01*
X15403780Y-14908620D01*
X15467420Y-14908620D01*
X15492820Y-11327220D02*
X15492820Y-11263580D01*
X15429180Y-11263580D01*
X15429180Y-11327220D01*
X15492820Y-11327220D01*
X15492820Y-11682820D02*
X15492820Y-11619180D01*
X15429180Y-11619180D01*
X15429180Y-11682820D01*
X15492820Y-11682820D01*
X15492820Y-12038420D02*
X15492820Y-11974780D01*
X15429180Y-11974780D01*
X15429180Y-12038420D01*
X15492820Y-12038420D01*
X15698560Y-14410780D02*
X15698560Y-14347140D01*
X15634920Y-14347140D01*
X15634920Y-14410780D01*
X15698560Y-14410780D01*
X15948560Y-14910780D02*
X15948560Y-14847140D01*
X15884920Y-14847140D01*
X15884920Y-14910780D01*
X15948560Y-14910780D01*
X16198560Y-14410780D02*
X16198560Y-14347140D01*
X16134920Y-14347140D01*
X16134920Y-14410780D01*
X16198560Y-14410780D01*
X18820220Y-14045020D02*
X18820220Y-13981380D01*
X18756580Y-13981380D01*
X18756580Y-14045020D01*
X18820220Y-14045020D01*
X18828220Y-13558420D02*
X18828220Y-13494780D01*
X18764580Y-13494780D01*
X18764580Y-13558420D01*
X18828220Y-13558420D01*
X19070220Y-14545020D02*
X19070220Y-14481380D01*
X19006580Y-14481380D01*
X19006580Y-14545020D01*
X19070220Y-14545020D01*
X19320220Y-14045020D02*
X19320220Y-13981380D01*
X19256580Y-13981380D01*
X19256580Y-14045020D01*
X19320220Y-14045020D01*
X19328220Y-13308420D02*
X19328220Y-13244780D01*
X19264580Y-13244780D01*
X19264580Y-13308420D01*
X19328220Y-13308420D01*
X19328220Y-13808420D02*
X19328220Y-13744780D01*
X19264580Y-13744780D01*
X19264580Y-13808420D01*
X19328220Y-13808420D01*
X10711200Y-6240000D02*
X10761200Y-6190000D01*
X10711200Y-6140000D01*
X10661200Y-6190000D01*
X10711200Y-6240000D01*
X10711200Y-6494000D02*
X10761200Y-6444000D01*
X10711200Y-6394000D01*
X10661200Y-6444000D01*
X10711200Y-6494000D01*
X10711200Y-6748000D02*
X10761200Y-6698000D01*
X10711200Y-6648000D01*
X10661200Y-6698000D01*
X10711200Y-6748000D01*
X10711200Y-7002000D02*
X10761200Y-6952000D01*
X10711200Y-6902000D01*
X10661200Y-6952000D01*
X10711200Y-7002000D01*
X10711200Y-7256000D02*
X10761200Y-7206000D01*
X10711200Y-7156000D01*
X10661200Y-7206000D01*
X10711200Y-7256000D01*
X10711200Y-7510000D02*
X10761200Y-7460000D01*
X10711200Y-7410000D01*
X10661200Y-7460000D01*
X10711200Y-7510000D01*
X10711200Y-7967200D02*
X10761200Y-7917200D01*
X10711200Y-7867200D01*
X10661200Y-7917200D01*
X10711200Y-7967200D01*
X10711200Y-8221200D02*
X10761200Y-8171200D01*
X10711200Y-8121200D01*
X10661200Y-8171200D01*
X10711200Y-8221200D01*
X10711200Y-8475200D02*
X10761200Y-8425200D01*
X10711200Y-8375200D01*
X10661200Y-8425200D01*
X10711200Y-8475200D01*
X10711200Y-8729200D02*
X10761200Y-8679200D01*
X10711200Y-8629200D01*
X10661200Y-8679200D01*
X10711200Y-8729200D01*
X10711200Y-9262600D02*
X10761200Y-9212600D01*
X10711200Y-9162600D01*
X10661200Y-9212600D01*
X10711200Y-9262600D01*
X10711200Y-9516600D02*
X10761200Y-9466600D01*
X10711200Y-9416600D01*
X10661200Y-9466600D01*
X10711200Y-9516600D01*
X10711200Y-9770600D02*
X10761200Y-9720600D01*
X10711200Y-9670600D01*
X10661200Y-9720600D01*
X10711200Y-9770600D01*
X12641600Y-6443200D02*
X12691600Y-6393200D01*
X12641600Y-6343200D01*
X12591600Y-6393200D01*
X12641600Y-6443200D01*
X12641600Y-6697200D02*
X12691600Y-6647200D01*
X12641600Y-6597200D01*
X12591600Y-6647200D01*
X12641600Y-6697200D01*
X12641600Y-6951200D02*
X12691600Y-6901200D01*
X12641600Y-6851200D01*
X12591600Y-6901200D01*
X12641600Y-6951200D01*
X12641600Y-7205200D02*
X12691600Y-7155200D01*
X12641600Y-7105200D01*
X12591600Y-7155200D01*
X12641600Y-7205200D01*
X12641600Y-7459200D02*
X12691600Y-7409200D01*
X12641600Y-7359200D01*
X12591600Y-7409200D01*
X12641600Y-7459200D01*
X12641600Y-7713200D02*
X12691600Y-7663200D01*
X12641600Y-7613200D01*
X12591600Y-7663200D01*
X12641600Y-7713200D01*
X12641600Y-7967200D02*
X12691600Y-7917200D01*
X12641600Y-7867200D01*
X12591600Y-7917200D01*
X12641600Y-7967200D01*
X12641600Y-8221200D02*
X12691600Y-8171200D01*
X12641600Y-8121200D01*
X12591600Y-8171200D01*
X12641600Y-8221200D01*
X12641600Y-8475200D02*
X12691600Y-8425200D01*
X12641600Y-8375200D01*
X12591600Y-8425200D01*
X12641600Y-8475200D01*
X12641600Y-8729200D02*
X12691600Y-8679200D01*
X12641600Y-8629200D01*
X12591600Y-8679200D01*
X12641600Y-8729200D01*
X12641600Y-8983200D02*
X12691600Y-8933200D01*
X12641600Y-8883200D01*
X12591600Y-8933200D01*
X12641600Y-8983200D01*
X12641600Y-9237200D02*
X12691600Y-9187200D01*
X12641600Y-9137200D01*
X12591600Y-9187200D01*
X12641600Y-9237200D01*
X12641600Y-9491200D02*
X12691600Y-9441200D01*
X12641600Y-9391200D01*
X12591600Y-9441200D01*
X12641600Y-9491200D01*
X12641600Y-9745200D02*
X12691600Y-9695200D01*
X12641600Y-9645200D01*
X12591600Y-9695200D01*
X12641600Y-9745200D01*
X12641600Y-9999200D02*
X12691600Y-9949200D01*
X12641600Y-9899200D01*
X12591600Y-9949200D01*
X12641600Y-9999200D01*
X14165600Y-6443200D02*
X14215600Y-6393200D01*
X14165600Y-6343200D01*
X14115600Y-6393200D01*
X14165600Y-6443200D01*
X14165600Y-6697200D02*
X14215600Y-6647200D01*
X14165600Y-6597200D01*
X14115600Y-6647200D01*
X14165600Y-6697200D01*
X14165600Y-6951200D02*
X14215600Y-6901200D01*
X14165600Y-6851200D01*
X14115600Y-6901200D01*
X14165600Y-6951200D01*
X14165600Y-7205200D02*
X14215600Y-7155200D01*
X14165600Y-7105200D01*
X14115600Y-7155200D01*
X14165600Y-7205200D01*
X14165600Y-7459200D02*
X14215600Y-7409200D01*
X14165600Y-7359200D01*
X14115600Y-7409200D01*
X14165600Y-7459200D01*
X14165600Y-7713200D02*
X14215600Y-7663200D01*
X14165600Y-7613200D01*
X14115600Y-7663200D01*
X14165600Y-7713200D01*
X14165600Y-7967200D02*
X14215600Y-7917200D01*
X14165600Y-7867200D01*
X14115600Y-7917200D01*
X14165600Y-7967200D01*
X14165600Y-8221200D02*
X14215600Y-8171200D01*
X14165600Y-8121200D01*
X14115600Y-8171200D01*
X14165600Y-8221200D01*
X14165600Y-8475200D02*
X14215600Y-8425200D01*
X14165600Y-8375200D01*
X14115600Y-8425200D01*
X14165600Y-8475200D01*
X14165600Y-8729200D02*
X14215600Y-8679200D01*
X14165600Y-8629200D01*
X14115600Y-8679200D01*
X14165600Y-8729200D01*
X14165600Y-8983200D02*
X14215600Y-8933200D01*
X14165600Y-8883200D01*
X14115600Y-8933200D01*
X14165600Y-8983200D01*
X14165600Y-9237200D02*
X14215600Y-9187200D01*
X14165600Y-9137200D01*
X14115600Y-9187200D01*
X14165600Y-9237200D01*
X14165600Y-9491200D02*
X14215600Y-9441200D01*
X14165600Y-9391200D01*
X14115600Y-9441200D01*
X14165600Y-9491200D01*
X14165600Y-9745200D02*
X14215600Y-9695200D01*
X14165600Y-9645200D01*
X14115600Y-9695200D01*
X14165600Y-9745200D01*
X14165600Y-9999200D02*
X14215600Y-9949200D01*
X14165600Y-9899200D01*
X14115600Y-9949200D01*
X14165600Y-9999200D01*
X16807200Y-5884400D02*
X16857200Y-5834400D01*
X16807200Y-5784400D01*
X16757200Y-5834400D01*
X16807200Y-5884400D01*
X16807200Y-6138400D02*
X16857200Y-6088400D01*
X16807200Y-6038400D01*
X16757200Y-6088400D01*
X16807200Y-6138400D01*
X16807200Y-6392400D02*
X16857200Y-6342400D01*
X16807200Y-6292400D01*
X16757200Y-6342400D01*
X16807200Y-6392400D01*
X17924800Y-11574000D02*
X17974800Y-11524000D01*
X17924800Y-11474000D01*
X17874800Y-11524000D01*
X17924800Y-11574000D01*
X17924800Y-11828000D02*
X17974800Y-11778000D01*
X17924800Y-11728000D01*
X17874800Y-11778000D01*
X17924800Y-11828000D01*
X18178800Y-11574000D02*
X18228800Y-11524000D01*
X18178800Y-11474000D01*
X18128800Y-11524000D01*
X18178800Y-11574000D01*
X18178800Y-11828000D02*
X18228800Y-11778000D01*
X18178800Y-11728000D01*
X18128800Y-11778000D01*
X18178800Y-11828000D01*
X11641800Y-6663400D02*
X11761800Y-6783400D01*
X11761800Y-6663400D02*
X11641800Y-6783400D01*
X11761800Y-6723400D02*
G75*
G03*
X11761800Y-6723400I-60000J0D01*
G01*
X11641800Y-7654000D02*
X11761800Y-7774000D01*
X11761800Y-7654000D02*
X11641800Y-7774000D01*
X11761800Y-7714000D02*
G75*
G03*
X11761800Y-7714000I-60000J0D01*
G01*
X11641800Y-8619200D02*
X11761800Y-8739200D01*
X11761800Y-8619200D02*
X11641800Y-8739200D01*
X11761800Y-8679200D02*
G75*
G03*
X11761800Y-8679200I-60000J0D01*
G01*
X11641800Y-9635200D02*
X11761800Y-9755200D01*
X11761800Y-9635200D02*
X11641800Y-9755200D01*
X11761800Y-9695200D02*
G75*
G03*
X11761800Y-9695200I-60000J0D01*
G01*
X12073600Y-6206200D02*
X12193600Y-6326200D01*
X12193600Y-6206200D02*
X12073600Y-6326200D01*
X12193600Y-6266200D02*
G75*
G03*
X12193600Y-6266200I-60000J0D01*
G01*
X12073600Y-7171400D02*
X12193600Y-7291400D01*
X12193600Y-7171400D02*
X12073600Y-7291400D01*
X12193600Y-7231400D02*
G75*
G03*
X12193600Y-7231400I-60000J0D01*
G01*
X12073600Y-8111200D02*
X12193600Y-8231200D01*
X12193600Y-8111200D02*
X12073600Y-8231200D01*
X12193600Y-8171200D02*
G75*
G03*
X12193600Y-8171200I-60000J0D01*
G01*
X12073600Y-9127200D02*
X12193600Y-9247200D01*
X12193600Y-9127200D02*
X12073600Y-9247200D01*
X12193600Y-9187200D02*
G75*
G03*
X12193600Y-9187200I-60000J0D01*
G01*
X12073600Y-9965400D02*
X12193600Y-10085400D01*
X12193600Y-9965400D02*
X12073600Y-10085400D01*
X12193600Y-10025400D02*
G75*
G03*
X12193600Y-10025400I-60000J0D01*
G01*
X12581600Y-11413200D02*
X12701600Y-11533200D01*
X12701600Y-11413200D02*
X12581600Y-11533200D01*
X12701600Y-11473200D02*
G75*
G03*
X12701600Y-11473200I-60000J0D01*
G01*
X13115000Y-13115000D02*
X13235000Y-13235000D01*
X13235000Y-13115000D02*
X13115000Y-13235000D01*
X13235000Y-13175000D02*
G75*
G03*
X13235000Y-13175000I-60000J0D01*
G01*
X13115000Y-13648400D02*
X13235000Y-13768400D01*
X13235000Y-13648400D02*
X13115000Y-13768400D01*
X13235000Y-13708400D02*
G75*
G03*
X13235000Y-13708400I-60000J0D01*
G01*
X13318200Y-12657800D02*
X13438200Y-12777800D01*
X13438200Y-12657800D02*
X13318200Y-12777800D01*
X13438200Y-12717800D02*
G75*
G03*
X13438200Y-12717800I-60000J0D01*
G01*
X13470600Y-14105600D02*
X13590600Y-14225600D01*
X13590600Y-14105600D02*
X13470600Y-14225600D01*
X13590600Y-14165600D02*
G75*
G03*
X13590600Y-14165600I-60000J0D01*
G01*
X13521400Y-14639000D02*
X13641400Y-14759000D01*
X13641400Y-14639000D02*
X13521400Y-14759000D01*
X13641400Y-14699000D02*
G75*
G03*
X13641400Y-14699000I-60000J0D01*
G01*
X14791400Y-8314400D02*
X14911400Y-8434400D01*
X14911400Y-8314400D02*
X14791400Y-8434400D01*
X14911400Y-8374400D02*
G75*
G03*
X14911400Y-8374400I-60000J0D01*
G01*
X15274000Y-12581600D02*
X15394000Y-12701600D01*
X15394000Y-12581600D02*
X15274000Y-12701600D01*
X15394000Y-12641600D02*
G75*
G03*
X15394000Y-12641600I-60000J0D01*
G01*
X15401000Y-13673800D02*
X15521000Y-13793800D01*
X15521000Y-13673800D02*
X15401000Y-13793800D01*
X15521000Y-13733800D02*
G75*
G03*
X15521000Y-13733800I-60000J0D01*
G01*
X16531300Y-8720800D02*
X16651300Y-8840800D01*
X16651300Y-8720800D02*
X16531300Y-8840800D01*
X16651300Y-8780800D02*
G75*
G03*
X16651300Y-8780800I-60000J0D01*
G01*
X16620200Y-6790400D02*
X16740200Y-6910400D01*
X16740200Y-6790400D02*
X16620200Y-6910400D01*
X16740200Y-6850400D02*
G75*
G03*
X16740200Y-6850400I-60000J0D01*
G01*
X16645600Y-7298400D02*
X16765600Y-7418400D01*
X16765600Y-7298400D02*
X16645600Y-7418400D01*
X16765600Y-7358400D02*
G75*
G03*
X16765600Y-7358400I-60000J0D01*
G01*
X16645600Y-7806400D02*
X16765600Y-7926400D01*
X16765600Y-7806400D02*
X16645600Y-7926400D01*
X16765600Y-7866400D02*
G75*
G03*
X16765600Y-7866400I-60000J0D01*
G01*
X17229800Y-12607000D02*
X17349800Y-12727000D01*
X17349800Y-12607000D02*
X17229800Y-12727000D01*
X17349800Y-12667000D02*
G75*
G03*
X17349800Y-12667000I-60000J0D01*
G01*
X17737800Y-14766000D02*
X17857800Y-14886000D01*
X17857800Y-14766000D02*
X17737800Y-14886000D01*
X17857800Y-14826000D02*
G75*
G03*
X17857800Y-14826000I-60000J0D01*
G01*
X18398200Y-5977600D02*
X18518200Y-6097600D01*
X18518200Y-5977600D02*
X18398200Y-6097600D01*
X18518200Y-6037600D02*
G75*
G03*
X18518200Y-6037600I-60000J0D01*
G01*
X18703000Y-12251400D02*
X18823000Y-12371400D01*
X18823000Y-12251400D02*
X18703000Y-12371400D01*
X18823000Y-12311400D02*
G75*
G03*
X18823000Y-12311400I-60000J0D01*
G01*
X18779200Y-12861000D02*
X18899200Y-12981000D01*
X18899200Y-12861000D02*
X18779200Y-12981000D01*
X18899200Y-12921000D02*
G75*
G03*
X18899200Y-12921000I-60000J0D01*
G01*
X19007800Y-8238200D02*
X19127800Y-8358200D01*
X19127800Y-8238200D02*
X19007800Y-8358200D01*
X19127800Y-8298200D02*
G75*
G03*
X19127800Y-8298200I-60000J0D01*
G01*
X19515800Y-8238200D02*
X19635800Y-8358200D01*
X19635800Y-8238200D02*
X19515800Y-8358200D01*
X19635800Y-8298200D02*
G75*
G03*
X19635800Y-8298200I-60000J0D01*
G01*
X19592000Y-14588200D02*
X19712000Y-14708200D01*
X19712000Y-14588200D02*
X19592000Y-14708200D01*
X19712000Y-14648200D02*
G75*
G03*
X19712000Y-14648200I-60000J0D01*
G01*
X19668200Y-8720800D02*
X19788200Y-8840800D01*
X19788200Y-8720800D02*
X19668200Y-8840800D01*
X19788200Y-8780800D02*
G75*
G03*
X19788200Y-8780800I-60000J0D01*
G01*
X19998400Y-5977600D02*
X20118400Y-6097600D01*
X20118400Y-5977600D02*
X19998400Y-6097600D01*
X20118400Y-6037600D02*
G75*
G03*
X20118400Y-6037600I-60000J0D01*
G01*
X19998400Y-6384000D02*
X20118400Y-6504000D01*
X20118400Y-6384000D02*
X19998400Y-6504000D01*
X20118400Y-6444000D02*
G75*
G03*
X20118400Y-6444000I-60000J0D01*
G01*
X20023800Y-7095200D02*
X20143800Y-7215200D01*
X20143800Y-7095200D02*
X20023800Y-7215200D01*
X20143800Y-7155200D02*
G75*
G03*
X20143800Y-7155200I-60000J0D01*
G01*
X20049200Y-7527000D02*
X20169200Y-7647000D01*
X20169200Y-7527000D02*
X20049200Y-7647000D01*
X20169200Y-7587000D02*
G75*
G03*
X20169200Y-7587000I-60000J0D01*
G01*
X21166800Y-13546800D02*
X21286800Y-13666800D01*
X21286800Y-13546800D02*
X21166800Y-13666800D01*
X21286800Y-13606800D02*
G75*
G03*
X21286800Y-13606800I-60000J0D01*
G01*
X22233600Y-8238200D02*
X22353600Y-8358200D01*
X22353600Y-8238200D02*
X22233600Y-8358200D01*
X22353600Y-8298200D02*
G75*
G03*
X22353600Y-8298200I-60000J0D01*
G01*
X22919400Y-8238200D02*
X23039400Y-8358200D01*
X23039400Y-8238200D02*
X22919400Y-8358200D01*
X23039400Y-8298200D02*
G75*
G03*
X23039400Y-8298200I-60000J0D01*
G01*
X20561800Y-5797200D02*
X20691800Y-5927200D01*
X20691800Y-5797200D02*
X20561800Y-5927200D01*
X20626800Y-5797200D02*
X20626800Y-5927200D01*
X20561800Y-5862200D02*
X20691800Y-5862200D01*
X20561800Y-7017200D02*
X20691800Y-7147200D01*
X20691800Y-7017200D02*
X20561800Y-7147200D01*
X20626800Y-7017200D02*
X20626800Y-7147200D01*
X20561800Y-7082200D02*
X20691800Y-7082200D01*
X20561800Y-7727600D02*
X20691800Y-7857600D01*
X20691800Y-7727600D02*
X20561800Y-7857600D01*
X20626800Y-7727600D02*
X20626800Y-7857600D01*
X20561800Y-7792600D02*
X20691800Y-7792600D01*
X20561800Y-8947600D02*
X20691800Y-9077600D01*
X20691800Y-8947600D02*
X20561800Y-9077600D01*
X20626800Y-8947600D02*
X20626800Y-9077600D01*
X20561800Y-9012600D02*
X20691800Y-9012600D01*
X20561800Y-9658000D02*
X20691800Y-9788000D01*
X20691800Y-9658000D02*
X20561800Y-9788000D01*
X20626800Y-9658000D02*
X20626800Y-9788000D01*
X20561800Y-9723000D02*
X20691800Y-9723000D01*
X20561800Y-10878000D02*
X20691800Y-11008000D01*
X20691800Y-10878000D02*
X20561800Y-11008000D01*
X20626800Y-10878000D02*
X20626800Y-11008000D01*
X20561800Y-10943000D02*
X20691800Y-10943000D01*
X20561800Y-11588400D02*
X20691800Y-11718400D01*
X20691800Y-11588400D02*
X20561800Y-11718400D01*
X20626800Y-11588400D02*
X20626800Y-11718400D01*
X20561800Y-11653400D02*
X20691800Y-11653400D01*
X20561800Y-12808400D02*
X20691800Y-12938400D01*
X20691800Y-12808400D02*
X20561800Y-12938400D01*
X20626800Y-12808400D02*
X20626800Y-12938400D01*
X20561800Y-12873400D02*
X20691800Y-12873400D01*
X21161800Y-7217200D02*
X21291800Y-7347200D01*
X21291800Y-7217200D02*
X21161800Y-7347200D01*
X21226800Y-7217200D02*
X21226800Y-7347200D01*
X21161800Y-7282200D02*
X21291800Y-7282200D01*
X21161800Y-9147600D02*
X21291800Y-9277600D01*
X21291800Y-9147600D02*
X21161800Y-9277600D01*
X21226800Y-9147600D02*
X21226800Y-9277600D01*
X21161800Y-9212600D02*
X21291800Y-9212600D01*
X21161800Y-11078000D02*
X21291800Y-11208000D01*
X21291800Y-11078000D02*
X21161800Y-11208000D01*
X21226800Y-11078000D02*
X21226800Y-11208000D01*
X21161800Y-11143000D02*
X21291800Y-11143000D01*
X21161800Y-13008400D02*
X21291800Y-13138400D01*
X21291800Y-13008400D02*
X21161800Y-13138400D01*
X21226800Y-13008400D02*
X21226800Y-13138400D01*
X21161800Y-13073400D02*
X21291800Y-13073400D01*
X21761800Y-5797200D02*
X21891800Y-5927200D01*
X21891800Y-5797200D02*
X21761800Y-5927200D01*
X21826800Y-5797200D02*
X21826800Y-5927200D01*
X21761800Y-5862200D02*
X21891800Y-5862200D01*
X21761800Y-7017200D02*
X21891800Y-7147200D01*
X21891800Y-7017200D02*
X21761800Y-7147200D01*
X21826800Y-7017200D02*
X21826800Y-7147200D01*
X21761800Y-7082200D02*
X21891800Y-7082200D01*
X21761800Y-7727600D02*
X21891800Y-7857600D01*
X21891800Y-7727600D02*
X21761800Y-7857600D01*
X21826800Y-7727600D02*
X21826800Y-7857600D01*
X21761800Y-7792600D02*
X21891800Y-7792600D01*
X21761800Y-8947600D02*
X21891800Y-9077600D01*
X21891800Y-8947600D02*
X21761800Y-9077600D01*
X21826800Y-8947600D02*
X21826800Y-9077600D01*
X21761800Y-9012600D02*
X21891800Y-9012600D01*
X21761800Y-9658000D02*
X21891800Y-9788000D01*
X21891800Y-9658000D02*
X21761800Y-9788000D01*
X21826800Y-9658000D02*
X21826800Y-9788000D01*
X21761800Y-9723000D02*
X21891800Y-9723000D01*
X21761800Y-10878000D02*
X21891800Y-11008000D01*
X21891800Y-10878000D02*
X21761800Y-11008000D01*
X21826800Y-10878000D02*
X21826800Y-11008000D01*
X21761800Y-10943000D02*
X21891800Y-10943000D01*
X21761800Y-11588400D02*
X21891800Y-11718400D01*
X21891800Y-11588400D02*
X21761800Y-11718400D01*
X21826800Y-11588400D02*
X21826800Y-11718400D01*
X21761800Y-11653400D02*
X21891800Y-11653400D01*
X21761800Y-12808400D02*
X21891800Y-12938400D01*
X21891800Y-12808400D02*
X21761800Y-12938400D01*
X21826800Y-12808400D02*
X21826800Y-12938400D01*
X21761800Y-12873400D02*
X21891800Y-12873400D01*
X10414100Y-13004900D02*
X10551100Y-13141900D01*
X10551100Y-13004900D02*
X10414100Y-13141900D01*
X10531037Y-13121837D02*
X10531037Y-13024963D01*
X10434163Y-13024963D01*
X10434163Y-13121837D01*
X10531037Y-13121837D01*
X10414100Y-13639900D02*
X10551100Y-13776900D01*
X10551100Y-13639900D02*
X10414100Y-13776900D01*
X10531037Y-13756837D02*
X10531037Y-13659963D01*
X10434163Y-13659963D01*
X10434163Y-13756837D01*
X10531037Y-13756837D01*
X10922100Y-13004900D02*
X11059100Y-13141900D01*
X11059100Y-13004900D02*
X10922100Y-13141900D01*
X11039037Y-13121837D02*
X11039037Y-13024963D01*
X10942163Y-13024963D01*
X10942163Y-13121837D01*
X11039037Y-13121837D01*
X10922100Y-13639900D02*
X11059100Y-13776900D01*
X11059100Y-13639900D02*
X10922100Y-13776900D01*
X11039037Y-13756837D02*
X11039037Y-13659963D01*
X10942163Y-13659963D01*
X10942163Y-13756837D01*
X11039037Y-13756837D01*
X18948500Y-10896700D02*
X19085500Y-11033700D01*
X19085500Y-10896700D02*
X18948500Y-11033700D01*
X19065437Y-11013637D02*
X19065437Y-10916763D01*
X18968563Y-10916763D01*
X18968563Y-11013637D01*
X19065437Y-11013637D01*
X18948500Y-11404700D02*
X19085500Y-11541700D01*
X19085500Y-11404700D02*
X18948500Y-11541700D01*
X19065437Y-11521637D02*
X19065437Y-11424763D01*
X18968563Y-11424763D01*
X18968563Y-11521637D01*
X19065437Y-11521637D01*
X19888300Y-12217500D02*
X20025300Y-12354500D01*
X20025300Y-12217500D02*
X19888300Y-12354500D01*
X20005237Y-12334437D02*
X20005237Y-12237563D01*
X19908363Y-12237563D01*
X19908363Y-12334437D01*
X20005237Y-12334437D01*
X19888300Y-12725500D02*
X20025300Y-12862500D01*
X20025300Y-12725500D02*
X19888300Y-12862500D01*
X20005237Y-12842437D02*
X20005237Y-12745563D01*
X19908363Y-12745563D01*
X19908363Y-12842437D01*
X20005237Y-12842437D01*
X23397320Y-7562960D02*
X23567320Y-7732960D01*
X23567320Y-7562960D02*
X23397320Y-7732960D01*
X23482320Y-7732960D02*
X23567320Y-7647960D01*
X23482320Y-7562960D01*
X23397320Y-7647960D01*
X23482320Y-7732960D01*
X23397320Y-8578960D02*
X23567320Y-8748960D01*
X23567320Y-8578960D02*
X23397320Y-8748960D01*
X23482320Y-8748960D02*
X23567320Y-8663960D01*
X23482320Y-8578960D01*
X23397320Y-8663960D01*
X23482320Y-8748960D01*
X23397320Y-9594960D02*
X23567320Y-9764960D01*
X23567320Y-9594960D02*
X23397320Y-9764960D01*
X23482320Y-9764960D02*
X23567320Y-9679960D01*
X23482320Y-9594960D01*
X23397320Y-9679960D01*
X23482320Y-9764960D01*
X23397320Y-10610960D02*
X23567320Y-10780960D01*
X23567320Y-10610960D02*
X23397320Y-10780960D01*
X23482320Y-10780960D02*
X23567320Y-10695960D01*
X23482320Y-10610960D01*
X23397320Y-10695960D01*
X23482320Y-10780960D01*
X23397320Y-11626960D02*
X23567320Y-11796960D01*
X23567320Y-11626960D02*
X23397320Y-11796960D01*
X23482320Y-11796960D02*
X23567320Y-11711960D01*
X23482320Y-11626960D01*
X23397320Y-11711960D01*
X23482320Y-11796960D01*
X23397320Y-12642960D02*
X23567320Y-12812960D01*
X23567320Y-12642960D02*
X23397320Y-12812960D01*
X23482320Y-12812960D02*
X23567320Y-12727960D01*
X23482320Y-12642960D01*
X23397320Y-12727960D01*
X23482320Y-12812960D01*
X23397320Y-13658960D02*
X23567320Y-13828960D01*
X23567320Y-13658960D02*
X23397320Y-13828960D01*
X23482320Y-13828960D02*
X23567320Y-13743960D01*
X23482320Y-13658960D01*
X23397320Y-13743960D01*
X23482320Y-13828960D01*
X23905320Y-7054960D02*
X24075320Y-7224960D01*
X24075320Y-7054960D02*
X23905320Y-7224960D01*
X23990320Y-7224960D02*
X24075320Y-7139960D01*
X23990320Y-7054960D01*
X23905320Y-7139960D01*
X23990320Y-7224960D01*
X23905320Y-8070960D02*
X24075320Y-8240960D01*
X24075320Y-8070960D02*
X23905320Y-8240960D01*
X23990320Y-8240960D02*
X24075320Y-8155960D01*
X23990320Y-8070960D01*
X23905320Y-8155960D01*
X23990320Y-8240960D01*
X23905320Y-9086960D02*
X24075320Y-9256960D01*
X24075320Y-9086960D02*
X23905320Y-9256960D01*
X23990320Y-9256960D02*
X24075320Y-9171960D01*
X23990320Y-9086960D01*
X23905320Y-9171960D01*
X23990320Y-9256960D01*
X23905320Y-10102960D02*
X24075320Y-10272960D01*
X24075320Y-10102960D02*
X23905320Y-10272960D01*
X23990320Y-10272960D02*
X24075320Y-10187960D01*
X23990320Y-10102960D01*
X23905320Y-10187960D01*
X23990320Y-10272960D01*
X23905320Y-11118960D02*
X24075320Y-11288960D01*
X24075320Y-11118960D02*
X23905320Y-11288960D01*
X23990320Y-11288960D02*
X24075320Y-11203960D01*
X23990320Y-11118960D01*
X23905320Y-11203960D01*
X23990320Y-11288960D01*
X23905320Y-12134960D02*
X24075320Y-12304960D01*
X24075320Y-12134960D02*
X23905320Y-12304960D01*
X23990320Y-12304960D02*
X24075320Y-12219960D01*
X23990320Y-12134960D01*
X23905320Y-12219960D01*
X23990320Y-12304960D01*
X23905320Y-13150960D02*
X24075320Y-13320960D01*
X24075320Y-13150960D02*
X23905320Y-13320960D01*
X23990320Y-13320960D02*
X24075320Y-13235960D01*
X23990320Y-13150960D01*
X23905320Y-13235960D01*
X23990320Y-13320960D01*
X23905320Y-14166960D02*
X24075320Y-14336960D01*
X24075320Y-14166960D02*
X23905320Y-14336960D01*
X23990320Y-14336960D02*
X24075320Y-14251960D01*
X23990320Y-14166960D01*
X23905320Y-14251960D01*
X23990320Y-14336960D01*
X19956800Y-13312100D02*
X19956800Y-13495100D01*
X19865300Y-13403600D02*
X20048300Y-13403600D01*
X20048300Y-13403600D02*
G75*
G03*
X20048300Y-13403600I-91500J0D01*
G01*
X19956800Y-13820100D02*
X19956800Y-14003100D01*
X19865300Y-13911600D02*
X20048300Y-13911600D01*
X20048300Y-13911600D02*
G75*
G03*
X20048300Y-13911600I-91500J0D01*
G01*
X22369800Y-5768300D02*
X22369800Y-5951300D01*
X22278300Y-5859800D02*
X22461300Y-5859800D01*
X22461300Y-5859800D02*
G75*
G03*
X22461300Y-5859800I-91500J0D01*
G01*
X22369800Y-6555700D02*
X22369800Y-6738700D01*
X22278300Y-6647200D02*
X22461300Y-6647200D01*
X22461300Y-6647200D02*
G75*
G03*
X22461300Y-6647200I-91500J0D01*
G01*
X22369800Y-7368500D02*
X22369800Y-7551500D01*
X22278300Y-7460000D02*
X22461300Y-7460000D01*
X22461300Y-7460000D02*
G75*
G03*
X22461300Y-7460000I-91500J0D01*
G01*
X22369800Y-9019500D02*
X22369800Y-9202500D01*
X22278300Y-9111000D02*
X22461300Y-9111000D01*
X22461300Y-9111000D02*
G75*
G03*
X22461300Y-9111000I-91500J0D01*
G01*
X22369800Y-9883100D02*
X22369800Y-10066100D01*
X22278300Y-9974600D02*
X22461300Y-9974600D01*
X22461300Y-9974600D02*
G75*
G03*
X22461300Y-9974600I-91500J0D01*
G01*
X22369800Y-10746700D02*
X22369800Y-10929700D01*
X22278300Y-10838200D02*
X22461300Y-10838200D01*
X22461300Y-10838200D02*
G75*
G03*
X22461300Y-10838200I-91500J0D01*
G01*
X22877800Y-5768300D02*
X22877800Y-5951300D01*
X22786300Y-5859800D02*
X22969300Y-5859800D01*
X22969300Y-5859800D02*
G75*
G03*
X22969300Y-5859800I-91500J0D01*
G01*
X22877800Y-6555700D02*
X22877800Y-6738700D01*
X22786300Y-6647200D02*
X22969300Y-6647200D01*
X22969300Y-6647200D02*
G75*
G03*
X22969300Y-6647200I-91500J0D01*
G01*
X22877800Y-7368500D02*
X22877800Y-7551500D01*
X22786300Y-7460000D02*
X22969300Y-7460000D01*
X22969300Y-7460000D02*
G75*
G03*
X22969300Y-7460000I-91500J0D01*
G01*
X22877800Y-9019500D02*
X22877800Y-9202500D01*
X22786300Y-9111000D02*
X22969300Y-9111000D01*
X22969300Y-9111000D02*
G75*
G03*
X22969300Y-9111000I-91500J0D01*
G01*
X22877800Y-9883100D02*
X22877800Y-10066100D01*
X22786300Y-9974600D02*
X22969300Y-9974600D01*
X22969300Y-9974600D02*
G75*
G03*
X22969300Y-9974600I-91500J0D01*
G01*
X22877800Y-10746700D02*
X22877800Y-10929700D01*
X22786300Y-10838200D02*
X22969300Y-10838200D01*
X22969300Y-10838200D02*
G75*
G03*
X22969300Y-10838200I-91500J0D01*
G01*
X24600851Y-5972491D02*
X24600851Y-5767428D01*
X24395788Y-5767428D01*
X24395788Y-5972491D01*
X24600851Y-5972491D01*
X24643320Y-5869960D02*
G75*
G03*
X24643320Y-5869960I-145000J0D01*
G01*
X24600851Y-14862491D02*
X24600851Y-14657428D01*
X24395788Y-14657428D01*
X24395788Y-14862491D01*
X24600851Y-14862491D01*
X24643320Y-14759960D02*
G75*
G03*
X24643320Y-14759960I-145000J0D01*
G01*
D12*
X8817229Y-16024314D02*
X8817229Y-15724314D01*
X8888657Y-15724314D01*
X8931514Y-15738600D01*
X8960086Y-15767171D01*
X8974371Y-15795743D01*
X8988657Y-15852886D01*
X8988657Y-15895743D01*
X8974371Y-15952886D01*
X8960086Y-15981457D01*
X8931514Y-16010028D01*
X8888657Y-16024314D01*
X8817229Y-16024314D01*
X9117229Y-16024314D02*
X9117229Y-15824314D01*
X9117229Y-15881457D02*
X9131514Y-15852886D01*
X9145800Y-15838600D01*
X9174371Y-15824314D01*
X9202943Y-15824314D01*
X9302943Y-16024314D02*
X9302943Y-15824314D01*
X9302943Y-15724314D02*
X9288657Y-15738600D01*
X9302943Y-15752886D01*
X9317229Y-15738600D01*
X9302943Y-15724314D01*
X9302943Y-15752886D01*
X9488657Y-16024314D02*
X9460086Y-16010028D01*
X9445800Y-15981457D01*
X9445800Y-15724314D01*
X9645800Y-16024314D02*
X9617229Y-16010028D01*
X9602943Y-15981457D01*
X9602943Y-15724314D01*
X9988657Y-16024314D02*
X9988657Y-15724314D01*
X10088657Y-15938600D01*
X10188657Y-15724314D01*
X10188657Y-16024314D01*
X10460086Y-16024314D02*
X10460086Y-15867171D01*
X10445800Y-15838600D01*
X10417229Y-15824314D01*
X10360086Y-15824314D01*
X10331514Y-15838600D01*
X10460086Y-16010028D02*
X10431514Y-16024314D01*
X10360086Y-16024314D01*
X10331514Y-16010028D01*
X10317229Y-15981457D01*
X10317229Y-15952886D01*
X10331514Y-15924314D01*
X10360086Y-15910028D01*
X10431514Y-15910028D01*
X10460086Y-15895743D01*
X10602943Y-15824314D02*
X10602943Y-16124314D01*
X10602943Y-15838600D02*
X10631514Y-15824314D01*
X10688657Y-15824314D01*
X10717229Y-15838600D01*
X10731514Y-15852886D01*
X10745800Y-15881457D01*
X10745800Y-15967171D01*
X10731514Y-15995743D01*
X10717229Y-16010028D01*
X10688657Y-16024314D01*
X10631514Y-16024314D01*
X10602943Y-16010028D01*
X10874371Y-15995743D02*
X10888657Y-16010028D01*
X10874371Y-16024314D01*
X10860086Y-16010028D01*
X10874371Y-15995743D01*
X10874371Y-16024314D01*
X10874371Y-15838600D02*
X10888657Y-15852886D01*
X10874371Y-15867171D01*
X10860086Y-15852886D01*
X10874371Y-15838600D01*
X10874371Y-15867171D01*
X8490800Y-16498600D02*
X8530800Y-16538600D01*
X8530800Y-16498600D02*
X8490800Y-16538600D01*
X8874371Y-16354314D02*
X8902943Y-16354314D01*
X8931514Y-16368600D01*
X8945800Y-16382886D01*
X8960086Y-16411457D01*
X8974371Y-16468600D01*
X8974371Y-16540028D01*
X8960086Y-16597171D01*
X8945800Y-16625743D01*
X8931514Y-16640028D01*
X8902943Y-16654314D01*
X8874371Y-16654314D01*
X8845800Y-16640028D01*
X8831514Y-16625743D01*
X8817229Y-16597171D01*
X8802943Y-16540028D01*
X8802943Y-16468600D01*
X8817229Y-16411457D01*
X8831514Y-16382886D01*
X8845800Y-16368600D01*
X8874371Y-16354314D01*
X9102943Y-16625743D02*
X9117229Y-16640028D01*
X9102943Y-16654314D01*
X9088657Y-16640028D01*
X9102943Y-16625743D01*
X9102943Y-16654314D01*
X9374371Y-16454314D02*
X9374371Y-16654314D01*
X9302943Y-16340028D02*
X9231514Y-16554314D01*
X9417229Y-16554314D01*
X9588657Y-16354314D02*
X9617229Y-16354314D01*
X9645800Y-16368600D01*
X9660086Y-16382886D01*
X9674371Y-16411457D01*
X9688657Y-16468600D01*
X9688657Y-16540028D01*
X9674371Y-16597171D01*
X9660086Y-16625743D01*
X9645800Y-16640028D01*
X9617229Y-16654314D01*
X9588657Y-16654314D01*
X9560086Y-16640028D01*
X9545800Y-16625743D01*
X9531514Y-16597171D01*
X9517229Y-16540028D01*
X9517229Y-16468600D01*
X9531514Y-16411457D01*
X9545800Y-16382886D01*
X9560086Y-16368600D01*
X9588657Y-16354314D01*
X9817229Y-16654314D02*
X9817229Y-16454314D01*
X9817229Y-16482886D02*
X9831514Y-16468600D01*
X9860086Y-16454314D01*
X9902943Y-16454314D01*
X9931514Y-16468600D01*
X9945800Y-16497171D01*
X9945800Y-16654314D01*
X9945800Y-16497171D02*
X9960086Y-16468600D01*
X9988657Y-16454314D01*
X10031514Y-16454314D01*
X10060086Y-16468600D01*
X10074371Y-16497171D01*
X10074371Y-16654314D01*
X10217229Y-16654314D02*
X10217229Y-16454314D01*
X10217229Y-16482886D02*
X10231514Y-16468600D01*
X10260086Y-16454314D01*
X10302943Y-16454314D01*
X10331514Y-16468600D01*
X10345800Y-16497171D01*
X10345800Y-16654314D01*
X10345800Y-16497171D02*
X10360086Y-16468600D01*
X10388657Y-16454314D01*
X10431514Y-16454314D01*
X10460086Y-16468600D01*
X10474371Y-16497171D01*
X10474371Y-16654314D01*
X11060086Y-16340028D02*
X10802943Y-16725743D01*
X11445800Y-16354314D02*
X11474371Y-16354314D01*
X11502943Y-16368600D01*
X11517228Y-16382886D01*
X11531514Y-16411457D01*
X11545800Y-16468600D01*
X11545800Y-16540028D01*
X11531514Y-16597171D01*
X11517228Y-16625743D01*
X11502943Y-16640028D01*
X11474371Y-16654314D01*
X11445800Y-16654314D01*
X11417228Y-16640028D01*
X11402943Y-16625743D01*
X11388657Y-16597171D01*
X11374371Y-16540028D01*
X11374371Y-16468600D01*
X11388657Y-16411457D01*
X11402943Y-16382886D01*
X11417228Y-16368600D01*
X11445800Y-16354314D01*
X11674371Y-16625743D02*
X11688657Y-16640028D01*
X11674371Y-16654314D01*
X11660086Y-16640028D01*
X11674371Y-16625743D01*
X11674371Y-16654314D01*
X11874371Y-16354314D02*
X11902943Y-16354314D01*
X11931514Y-16368600D01*
X11945800Y-16382886D01*
X11960086Y-16411457D01*
X11974371Y-16468600D01*
X11974371Y-16540028D01*
X11960086Y-16597171D01*
X11945800Y-16625743D01*
X11931514Y-16640028D01*
X11902943Y-16654314D01*
X11874371Y-16654314D01*
X11845800Y-16640028D01*
X11831514Y-16625743D01*
X11817228Y-16597171D01*
X11802943Y-16540028D01*
X11802943Y-16468600D01*
X11817228Y-16411457D01*
X11831514Y-16382886D01*
X11845800Y-16368600D01*
X11874371Y-16354314D01*
X12260086Y-16654314D02*
X12088657Y-16654314D01*
X12174371Y-16654314D02*
X12174371Y-16354314D01*
X12145800Y-16397171D01*
X12117228Y-16425743D01*
X12088657Y-16440028D01*
X12517228Y-16354314D02*
X12460086Y-16354314D01*
X12431514Y-16368600D01*
X12417228Y-16382886D01*
X12388657Y-16425743D01*
X12374371Y-16482886D01*
X12374371Y-16597171D01*
X12388657Y-16625743D01*
X12402943Y-16640028D01*
X12431514Y-16654314D01*
X12488657Y-16654314D01*
X12517228Y-16640028D01*
X12531514Y-16625743D01*
X12545800Y-16597171D01*
X12545800Y-16525743D01*
X12531514Y-16497171D01*
X12517228Y-16482886D01*
X12488657Y-16468600D01*
X12431514Y-16468600D01*
X12402943Y-16482886D01*
X12388657Y-16497171D01*
X12374371Y-16525743D01*
X12660086Y-16354314D02*
X12660086Y-16411457D01*
X12774371Y-16354314D02*
X12774371Y-16411457D01*
X13217228Y-16768600D02*
X13202943Y-16754314D01*
X13174371Y-16711457D01*
X13160086Y-16682886D01*
X13145800Y-16640028D01*
X13131514Y-16568600D01*
X13131514Y-16511457D01*
X13145800Y-16440028D01*
X13160086Y-16397171D01*
X13174371Y-16368600D01*
X13202943Y-16325743D01*
X13217228Y-16311457D01*
X13302943Y-16354314D02*
X13502943Y-16354314D01*
X13374371Y-16654314D01*
X13674371Y-16354314D02*
X13702943Y-16354314D01*
X13731514Y-16368600D01*
X13745800Y-16382886D01*
X13760086Y-16411457D01*
X13774371Y-16468600D01*
X13774371Y-16540028D01*
X13760086Y-16597171D01*
X13745800Y-16625743D01*
X13731514Y-16640028D01*
X13702943Y-16654314D01*
X13674371Y-16654314D01*
X13645800Y-16640028D01*
X13631514Y-16625743D01*
X13617228Y-16597171D01*
X13602943Y-16540028D01*
X13602943Y-16468600D01*
X13617228Y-16411457D01*
X13631514Y-16382886D01*
X13645800Y-16368600D01*
X13674371Y-16354314D01*
X14131514Y-16654314D02*
X14131514Y-16354314D01*
X14260086Y-16654314D02*
X14260086Y-16497171D01*
X14245800Y-16468600D01*
X14217228Y-16454314D01*
X14174371Y-16454314D01*
X14145800Y-16468600D01*
X14131514Y-16482886D01*
X14445800Y-16654314D02*
X14417228Y-16640028D01*
X14402943Y-16625743D01*
X14388657Y-16597171D01*
X14388657Y-16511457D01*
X14402943Y-16482886D01*
X14417228Y-16468600D01*
X14445800Y-16454314D01*
X14488657Y-16454314D01*
X14517228Y-16468600D01*
X14531514Y-16482886D01*
X14545800Y-16511457D01*
X14545800Y-16597171D01*
X14531514Y-16625743D01*
X14517228Y-16640028D01*
X14488657Y-16654314D01*
X14445800Y-16654314D01*
X14717228Y-16654314D02*
X14688657Y-16640028D01*
X14674371Y-16611457D01*
X14674371Y-16354314D01*
X14945800Y-16640028D02*
X14917228Y-16654314D01*
X14860086Y-16654314D01*
X14831514Y-16640028D01*
X14817228Y-16611457D01*
X14817228Y-16497171D01*
X14831514Y-16468600D01*
X14860086Y-16454314D01*
X14917228Y-16454314D01*
X14945800Y-16468600D01*
X14960086Y-16497171D01*
X14960086Y-16525743D01*
X14817228Y-16554314D01*
X15074371Y-16640028D02*
X15102943Y-16654314D01*
X15160086Y-16654314D01*
X15188657Y-16640028D01*
X15202943Y-16611457D01*
X15202943Y-16597171D01*
X15188657Y-16568600D01*
X15160086Y-16554314D01*
X15117228Y-16554314D01*
X15088657Y-16540028D01*
X15074371Y-16511457D01*
X15074371Y-16497171D01*
X15088657Y-16468600D01*
X15117228Y-16454314D01*
X15160086Y-16454314D01*
X15188657Y-16468600D01*
X15302943Y-16768600D02*
X15317228Y-16754314D01*
X15345800Y-16711457D01*
X15360086Y-16682886D01*
X15374371Y-16640028D01*
X15388657Y-16568600D01*
X15388657Y-16511457D01*
X15374371Y-16440028D01*
X15360086Y-16397171D01*
X15345800Y-16368600D01*
X15317228Y-16325743D01*
X15302943Y-16311457D01*
X8530800Y-16914600D02*
G75*
G03*
X8530800Y-16914600I-36500J0D01*
G01*
X8874371Y-16750314D02*
X8902943Y-16750314D01*
X8931514Y-16764600D01*
X8945800Y-16778886D01*
X8960086Y-16807457D01*
X8974371Y-16864600D01*
X8974371Y-16936029D01*
X8960086Y-16993171D01*
X8945800Y-17021743D01*
X8931514Y-17036029D01*
X8902943Y-17050314D01*
X8874371Y-17050314D01*
X8845800Y-17036029D01*
X8831514Y-17021743D01*
X8817229Y-16993171D01*
X8802943Y-16936029D01*
X8802943Y-16864600D01*
X8817229Y-16807457D01*
X8831514Y-16778886D01*
X8845800Y-16764600D01*
X8874371Y-16750314D01*
X9102943Y-17021743D02*
X9117229Y-17036029D01*
X9102943Y-17050314D01*
X9088657Y-17036029D01*
X9102943Y-17021743D01*
X9102943Y-17050314D01*
X9217229Y-16750314D02*
X9417229Y-16750314D01*
X9288657Y-17050314D01*
X9502943Y-16750314D02*
X9688657Y-16750314D01*
X9588657Y-16864600D01*
X9631514Y-16864600D01*
X9660086Y-16878886D01*
X9674371Y-16893171D01*
X9688657Y-16921743D01*
X9688657Y-16993171D01*
X9674371Y-17021743D01*
X9660086Y-17036029D01*
X9631514Y-17050314D01*
X9545800Y-17050314D01*
X9517229Y-17036029D01*
X9502943Y-17021743D01*
X9817229Y-17050314D02*
X9817229Y-16850314D01*
X9817229Y-16878886D02*
X9831514Y-16864600D01*
X9860086Y-16850314D01*
X9902943Y-16850314D01*
X9931514Y-16864600D01*
X9945800Y-16893171D01*
X9945800Y-17050314D01*
X9945800Y-16893171D02*
X9960086Y-16864600D01*
X9988657Y-16850314D01*
X10031514Y-16850314D01*
X10060086Y-16864600D01*
X10074371Y-16893171D01*
X10074371Y-17050314D01*
X10217229Y-17050314D02*
X10217229Y-16850314D01*
X10217229Y-16878886D02*
X10231514Y-16864600D01*
X10260086Y-16850314D01*
X10302943Y-16850314D01*
X10331514Y-16864600D01*
X10345800Y-16893171D01*
X10345800Y-17050314D01*
X10345800Y-16893171D02*
X10360086Y-16864600D01*
X10388657Y-16850314D01*
X10431514Y-16850314D01*
X10460086Y-16864600D01*
X10474371Y-16893171D01*
X10474371Y-17050314D01*
X11060086Y-16736028D02*
X10802943Y-17121743D01*
X11445800Y-16750314D02*
X11474371Y-16750314D01*
X11502943Y-16764600D01*
X11517228Y-16778886D01*
X11531514Y-16807457D01*
X11545800Y-16864600D01*
X11545800Y-16936029D01*
X11531514Y-16993171D01*
X11517228Y-17021743D01*
X11502943Y-17036029D01*
X11474371Y-17050314D01*
X11445800Y-17050314D01*
X11417228Y-17036029D01*
X11402943Y-17021743D01*
X11388657Y-16993171D01*
X11374371Y-16936029D01*
X11374371Y-16864600D01*
X11388657Y-16807457D01*
X11402943Y-16778886D01*
X11417228Y-16764600D01*
X11445800Y-16750314D01*
X11674371Y-17021743D02*
X11688657Y-17036029D01*
X11674371Y-17050314D01*
X11660086Y-17036029D01*
X11674371Y-17021743D01*
X11674371Y-17050314D01*
X11874371Y-16750314D02*
X11902943Y-16750314D01*
X11931514Y-16764600D01*
X11945800Y-16778886D01*
X11960086Y-16807457D01*
X11974371Y-16864600D01*
X11974371Y-16936029D01*
X11960086Y-16993171D01*
X11945800Y-17021743D01*
X11931514Y-17036029D01*
X11902943Y-17050314D01*
X11874371Y-17050314D01*
X11845800Y-17036029D01*
X11831514Y-17021743D01*
X11817228Y-16993171D01*
X11802943Y-16936029D01*
X11802943Y-16864600D01*
X11817228Y-16807457D01*
X11831514Y-16778886D01*
X11845800Y-16764600D01*
X11874371Y-16750314D01*
X12088657Y-16778886D02*
X12102943Y-16764600D01*
X12131514Y-16750314D01*
X12202943Y-16750314D01*
X12231514Y-16764600D01*
X12245800Y-16778886D01*
X12260086Y-16807457D01*
X12260086Y-16836029D01*
X12245800Y-16878886D01*
X12074371Y-17050314D01*
X12260086Y-17050314D01*
X12402943Y-17050314D02*
X12460086Y-17050314D01*
X12488657Y-17036029D01*
X12502943Y-17021743D01*
X12531514Y-16978886D01*
X12545800Y-16921743D01*
X12545800Y-16807457D01*
X12531514Y-16778886D01*
X12517228Y-16764600D01*
X12488657Y-16750314D01*
X12431514Y-16750314D01*
X12402943Y-16764600D01*
X12388657Y-16778886D01*
X12374371Y-16807457D01*
X12374371Y-16878886D01*
X12388657Y-16907457D01*
X12402943Y-16921743D01*
X12431514Y-16936029D01*
X12488657Y-16936029D01*
X12517228Y-16921743D01*
X12531514Y-16907457D01*
X12545800Y-16878886D01*
X12660086Y-16750314D02*
X12660086Y-16807457D01*
X12774371Y-16750314D02*
X12774371Y-16807457D01*
X13217228Y-17164600D02*
X13202943Y-17150314D01*
X13174371Y-17107457D01*
X13160086Y-17078886D01*
X13145800Y-17036029D01*
X13131514Y-16964600D01*
X13131514Y-16907457D01*
X13145800Y-16836029D01*
X13160086Y-16793171D01*
X13174371Y-16764600D01*
X13202943Y-16721743D01*
X13217228Y-16707457D01*
X13488657Y-17050314D02*
X13317228Y-17050314D01*
X13402943Y-17050314D02*
X13402943Y-16750314D01*
X13374371Y-16793171D01*
X13345800Y-16821743D01*
X13317228Y-16836029D01*
X13745800Y-16750314D02*
X13688657Y-16750314D01*
X13660086Y-16764600D01*
X13645800Y-16778886D01*
X13617228Y-16821743D01*
X13602943Y-16878886D01*
X13602943Y-16993171D01*
X13617228Y-17021743D01*
X13631514Y-17036029D01*
X13660086Y-17050314D01*
X13717228Y-17050314D01*
X13745800Y-17036029D01*
X13760086Y-17021743D01*
X13774371Y-16993171D01*
X13774371Y-16921743D01*
X13760086Y-16893171D01*
X13745800Y-16878886D01*
X13717228Y-16864600D01*
X13660086Y-16864600D01*
X13631514Y-16878886D01*
X13617228Y-16893171D01*
X13602943Y-16921743D01*
X14131514Y-17050314D02*
X14131514Y-16750314D01*
X14260086Y-17050314D02*
X14260086Y-16893171D01*
X14245800Y-16864600D01*
X14217228Y-16850314D01*
X14174371Y-16850314D01*
X14145800Y-16864600D01*
X14131514Y-16878886D01*
X14445800Y-17050314D02*
X14417228Y-17036029D01*
X14402943Y-17021743D01*
X14388657Y-16993171D01*
X14388657Y-16907457D01*
X14402943Y-16878886D01*
X14417228Y-16864600D01*
X14445800Y-16850314D01*
X14488657Y-16850314D01*
X14517228Y-16864600D01*
X14531514Y-16878886D01*
X14545800Y-16907457D01*
X14545800Y-16993171D01*
X14531514Y-17021743D01*
X14517228Y-17036029D01*
X14488657Y-17050314D01*
X14445800Y-17050314D01*
X14717228Y-17050314D02*
X14688657Y-17036029D01*
X14674371Y-17007457D01*
X14674371Y-16750314D01*
X14945800Y-17036029D02*
X14917228Y-17050314D01*
X14860086Y-17050314D01*
X14831514Y-17036029D01*
X14817228Y-17007457D01*
X14817228Y-16893171D01*
X14831514Y-16864600D01*
X14860086Y-16850314D01*
X14917228Y-16850314D01*
X14945800Y-16864600D01*
X14960086Y-16893171D01*
X14960086Y-16921743D01*
X14817228Y-16950314D01*
X15074371Y-17036029D02*
X15102943Y-17050314D01*
X15160086Y-17050314D01*
X15188657Y-17036029D01*
X15202943Y-17007457D01*
X15202943Y-16993171D01*
X15188657Y-16964600D01*
X15160086Y-16950314D01*
X15117228Y-16950314D01*
X15088657Y-16936029D01*
X15074371Y-16907457D01*
X15074371Y-16893171D01*
X15088657Y-16864600D01*
X15117228Y-16850314D01*
X15160086Y-16850314D01*
X15188657Y-16864600D01*
X15302943Y-17164600D02*
X15317228Y-17150314D01*
X15345800Y-17107457D01*
X15360086Y-17078886D01*
X15374371Y-17036029D01*
X15388657Y-16964600D01*
X15388657Y-16907457D01*
X15374371Y-16836029D01*
X15360086Y-16793171D01*
X15345800Y-16764600D01*
X15317228Y-16721743D01*
X15302943Y-16707457D01*
X8490800Y-17270600D02*
X8490800Y-17350600D01*
X8450800Y-17310600D02*
X8530800Y-17310600D01*
X8874371Y-17146314D02*
X8902943Y-17146314D01*
X8931514Y-17160600D01*
X8945800Y-17174886D01*
X8960086Y-17203457D01*
X8974371Y-17260600D01*
X8974371Y-17332029D01*
X8960086Y-17389171D01*
X8945800Y-17417743D01*
X8931514Y-17432029D01*
X8902943Y-17446314D01*
X8874371Y-17446314D01*
X8845800Y-17432029D01*
X8831514Y-17417743D01*
X8817229Y-17389171D01*
X8802943Y-17332029D01*
X8802943Y-17260600D01*
X8817229Y-17203457D01*
X8831514Y-17174886D01*
X8845800Y-17160600D01*
X8874371Y-17146314D01*
X9102943Y-17417743D02*
X9117229Y-17432029D01*
X9102943Y-17446314D01*
X9088657Y-17432029D01*
X9102943Y-17417743D01*
X9102943Y-17446314D01*
X9288657Y-17274886D02*
X9260086Y-17260600D01*
X9245800Y-17246314D01*
X9231514Y-17217743D01*
X9231514Y-17203457D01*
X9245800Y-17174886D01*
X9260086Y-17160600D01*
X9288657Y-17146314D01*
X9345800Y-17146314D01*
X9374371Y-17160600D01*
X9388657Y-17174886D01*
X9402943Y-17203457D01*
X9402943Y-17217743D01*
X9388657Y-17246314D01*
X9374371Y-17260600D01*
X9345800Y-17274886D01*
X9288657Y-17274886D01*
X9260086Y-17289171D01*
X9245800Y-17303457D01*
X9231514Y-17332029D01*
X9231514Y-17389171D01*
X9245800Y-17417743D01*
X9260086Y-17432029D01*
X9288657Y-17446314D01*
X9345800Y-17446314D01*
X9374371Y-17432029D01*
X9388657Y-17417743D01*
X9402943Y-17389171D01*
X9402943Y-17332029D01*
X9388657Y-17303457D01*
X9374371Y-17289171D01*
X9345800Y-17274886D01*
X9588657Y-17146314D02*
X9617229Y-17146314D01*
X9645800Y-17160600D01*
X9660086Y-17174886D01*
X9674371Y-17203457D01*
X9688657Y-17260600D01*
X9688657Y-17332029D01*
X9674371Y-17389171D01*
X9660086Y-17417743D01*
X9645800Y-17432029D01*
X9617229Y-17446314D01*
X9588657Y-17446314D01*
X9560086Y-17432029D01*
X9545800Y-17417743D01*
X9531514Y-17389171D01*
X9517229Y-17332029D01*
X9517229Y-17260600D01*
X9531514Y-17203457D01*
X9545800Y-17174886D01*
X9560086Y-17160600D01*
X9588657Y-17146314D01*
X9817229Y-17446314D02*
X9817229Y-17246314D01*
X9817229Y-17274886D02*
X9831514Y-17260600D01*
X9860086Y-17246314D01*
X9902943Y-17246314D01*
X9931514Y-17260600D01*
X9945800Y-17289171D01*
X9945800Y-17446314D01*
X9945800Y-17289171D02*
X9960086Y-17260600D01*
X9988657Y-17246314D01*
X10031514Y-17246314D01*
X10060086Y-17260600D01*
X10074371Y-17289171D01*
X10074371Y-17446314D01*
X10217229Y-17446314D02*
X10217229Y-17246314D01*
X10217229Y-17274886D02*
X10231514Y-17260600D01*
X10260086Y-17246314D01*
X10302943Y-17246314D01*
X10331514Y-17260600D01*
X10345800Y-17289171D01*
X10345800Y-17446314D01*
X10345800Y-17289171D02*
X10360086Y-17260600D01*
X10388657Y-17246314D01*
X10431514Y-17246314D01*
X10460086Y-17260600D01*
X10474371Y-17289171D01*
X10474371Y-17446314D01*
X11060086Y-17132029D02*
X10802943Y-17517743D01*
X11445800Y-17146314D02*
X11474371Y-17146314D01*
X11502943Y-17160600D01*
X11517228Y-17174886D01*
X11531514Y-17203457D01*
X11545800Y-17260600D01*
X11545800Y-17332029D01*
X11531514Y-17389171D01*
X11517228Y-17417743D01*
X11502943Y-17432029D01*
X11474371Y-17446314D01*
X11445800Y-17446314D01*
X11417228Y-17432029D01*
X11402943Y-17417743D01*
X11388657Y-17389171D01*
X11374371Y-17332029D01*
X11374371Y-17260600D01*
X11388657Y-17203457D01*
X11402943Y-17174886D01*
X11417228Y-17160600D01*
X11445800Y-17146314D01*
X11674371Y-17417743D02*
X11688657Y-17432029D01*
X11674371Y-17446314D01*
X11660086Y-17432029D01*
X11674371Y-17417743D01*
X11674371Y-17446314D01*
X11874371Y-17146314D02*
X11902943Y-17146314D01*
X11931514Y-17160600D01*
X11945800Y-17174886D01*
X11960086Y-17203457D01*
X11974371Y-17260600D01*
X11974371Y-17332029D01*
X11960086Y-17389171D01*
X11945800Y-17417743D01*
X11931514Y-17432029D01*
X11902943Y-17446314D01*
X11874371Y-17446314D01*
X11845800Y-17432029D01*
X11831514Y-17417743D01*
X11817228Y-17389171D01*
X11802943Y-17332029D01*
X11802943Y-17260600D01*
X11817228Y-17203457D01*
X11831514Y-17174886D01*
X11845800Y-17160600D01*
X11874371Y-17146314D01*
X12074371Y-17146314D02*
X12260086Y-17146314D01*
X12160086Y-17260600D01*
X12202943Y-17260600D01*
X12231514Y-17274886D01*
X12245800Y-17289171D01*
X12260086Y-17317743D01*
X12260086Y-17389171D01*
X12245800Y-17417743D01*
X12231514Y-17432029D01*
X12202943Y-17446314D01*
X12117228Y-17446314D01*
X12088657Y-17432029D01*
X12074371Y-17417743D01*
X12545800Y-17446314D02*
X12374371Y-17446314D01*
X12460086Y-17446314D02*
X12460086Y-17146314D01*
X12431514Y-17189171D01*
X12402943Y-17217743D01*
X12374371Y-17232029D01*
X12660086Y-17146314D02*
X12660086Y-17203457D01*
X12774371Y-17146314D02*
X12774371Y-17203457D01*
X13217228Y-17560600D02*
X13202943Y-17546314D01*
X13174371Y-17503457D01*
X13160086Y-17474886D01*
X13145800Y-17432029D01*
X13131514Y-17360600D01*
X13131514Y-17303457D01*
X13145800Y-17232029D01*
X13160086Y-17189171D01*
X13174371Y-17160600D01*
X13202943Y-17117743D01*
X13217228Y-17103457D01*
X13488657Y-17446314D02*
X13317228Y-17446314D01*
X13402943Y-17446314D02*
X13402943Y-17146314D01*
X13374371Y-17189171D01*
X13345800Y-17217743D01*
X13317228Y-17232029D01*
X13774371Y-17446314D02*
X13602943Y-17446314D01*
X13688657Y-17446314D02*
X13688657Y-17146314D01*
X13660086Y-17189171D01*
X13631514Y-17217743D01*
X13602943Y-17232029D01*
X13945800Y-17274886D02*
X13917228Y-17260600D01*
X13902943Y-17246314D01*
X13888657Y-17217743D01*
X13888657Y-17203457D01*
X13902943Y-17174886D01*
X13917228Y-17160600D01*
X13945800Y-17146314D01*
X14002943Y-17146314D01*
X14031514Y-17160600D01*
X14045800Y-17174886D01*
X14060086Y-17203457D01*
X14060086Y-17217743D01*
X14045800Y-17246314D01*
X14031514Y-17260600D01*
X14002943Y-17274886D01*
X13945800Y-17274886D01*
X13917228Y-17289171D01*
X13902943Y-17303457D01*
X13888657Y-17332029D01*
X13888657Y-17389171D01*
X13902943Y-17417743D01*
X13917228Y-17432029D01*
X13945800Y-17446314D01*
X14002943Y-17446314D01*
X14031514Y-17432029D01*
X14045800Y-17417743D01*
X14060086Y-17389171D01*
X14060086Y-17332029D01*
X14045800Y-17303457D01*
X14031514Y-17289171D01*
X14002943Y-17274886D01*
X14417228Y-17446314D02*
X14417228Y-17146314D01*
X14545800Y-17446314D02*
X14545800Y-17289171D01*
X14531514Y-17260600D01*
X14502943Y-17246314D01*
X14460086Y-17246314D01*
X14431514Y-17260600D01*
X14417228Y-17274886D01*
X14731514Y-17446314D02*
X14702943Y-17432029D01*
X14688657Y-17417743D01*
X14674371Y-17389171D01*
X14674371Y-17303457D01*
X14688657Y-17274886D01*
X14702943Y-17260600D01*
X14731514Y-17246314D01*
X14774371Y-17246314D01*
X14802943Y-17260600D01*
X14817228Y-17274886D01*
X14831514Y-17303457D01*
X14831514Y-17389171D01*
X14817228Y-17417743D01*
X14802943Y-17432029D01*
X14774371Y-17446314D01*
X14731514Y-17446314D01*
X15002943Y-17446314D02*
X14974371Y-17432029D01*
X14960086Y-17403457D01*
X14960086Y-17146314D01*
X15231514Y-17432029D02*
X15202943Y-17446314D01*
X15145800Y-17446314D01*
X15117228Y-17432029D01*
X15102943Y-17403457D01*
X15102943Y-17289171D01*
X15117228Y-17260600D01*
X15145800Y-17246314D01*
X15202943Y-17246314D01*
X15231514Y-17260600D01*
X15245800Y-17289171D01*
X15245800Y-17317743D01*
X15102943Y-17346314D01*
X15360086Y-17432029D02*
X15388657Y-17446314D01*
X15445800Y-17446314D01*
X15474371Y-17432029D01*
X15488657Y-17403457D01*
X15488657Y-17389171D01*
X15474371Y-17360600D01*
X15445800Y-17346314D01*
X15402943Y-17346314D01*
X15374371Y-17332029D01*
X15360086Y-17303457D01*
X15360086Y-17289171D01*
X15374371Y-17260600D01*
X15402943Y-17246314D01*
X15445800Y-17246314D01*
X15474371Y-17260600D01*
X15588657Y-17560600D02*
X15602943Y-17546314D01*
X15631514Y-17503457D01*
X15645800Y-17474886D01*
X15660086Y-17432029D01*
X15674371Y-17360600D01*
X15674371Y-17303457D01*
X15660086Y-17232029D01*
X15645800Y-17189171D01*
X15631514Y-17160600D01*
X15602943Y-17117743D01*
X15588657Y-17103457D01*
X8517620Y-17738420D02*
X8517620Y-17674780D01*
X8453980Y-17674780D01*
X8453980Y-17738420D01*
X8517620Y-17738420D01*
X8874371Y-17542314D02*
X8902943Y-17542314D01*
X8931514Y-17556600D01*
X8945800Y-17570886D01*
X8960086Y-17599457D01*
X8974371Y-17656600D01*
X8974371Y-17728029D01*
X8960086Y-17785171D01*
X8945800Y-17813743D01*
X8931514Y-17828029D01*
X8902943Y-17842314D01*
X8874371Y-17842314D01*
X8845800Y-17828029D01*
X8831514Y-17813743D01*
X8817229Y-17785171D01*
X8802943Y-17728029D01*
X8802943Y-17656600D01*
X8817229Y-17599457D01*
X8831514Y-17570886D01*
X8845800Y-17556600D01*
X8874371Y-17542314D01*
X9102943Y-17813743D02*
X9117229Y-17828029D01*
X9102943Y-17842314D01*
X9088657Y-17828029D01*
X9102943Y-17813743D01*
X9102943Y-17842314D01*
X9260086Y-17842314D02*
X9317229Y-17842314D01*
X9345800Y-17828029D01*
X9360086Y-17813743D01*
X9388657Y-17770886D01*
X9402943Y-17713743D01*
X9402943Y-17599457D01*
X9388657Y-17570886D01*
X9374371Y-17556600D01*
X9345800Y-17542314D01*
X9288657Y-17542314D01*
X9260086Y-17556600D01*
X9245800Y-17570886D01*
X9231514Y-17599457D01*
X9231514Y-17670886D01*
X9245800Y-17699457D01*
X9260086Y-17713743D01*
X9288657Y-17728029D01*
X9345800Y-17728029D01*
X9374371Y-17713743D01*
X9388657Y-17699457D01*
X9402943Y-17670886D01*
X9588657Y-17542314D02*
X9617229Y-17542314D01*
X9645800Y-17556600D01*
X9660086Y-17570886D01*
X9674371Y-17599457D01*
X9688657Y-17656600D01*
X9688657Y-17728029D01*
X9674371Y-17785171D01*
X9660086Y-17813743D01*
X9645800Y-17828029D01*
X9617229Y-17842314D01*
X9588657Y-17842314D01*
X9560086Y-17828029D01*
X9545800Y-17813743D01*
X9531514Y-17785171D01*
X9517229Y-17728029D01*
X9517229Y-17656600D01*
X9531514Y-17599457D01*
X9545800Y-17570886D01*
X9560086Y-17556600D01*
X9588657Y-17542314D01*
X9817229Y-17842314D02*
X9817229Y-17642314D01*
X9817229Y-17670886D02*
X9831514Y-17656600D01*
X9860086Y-17642314D01*
X9902943Y-17642314D01*
X9931514Y-17656600D01*
X9945800Y-17685171D01*
X9945800Y-17842314D01*
X9945800Y-17685171D02*
X9960086Y-17656600D01*
X9988657Y-17642314D01*
X10031514Y-17642314D01*
X10060086Y-17656600D01*
X10074371Y-17685171D01*
X10074371Y-17842314D01*
X10217229Y-17842314D02*
X10217229Y-17642314D01*
X10217229Y-17670886D02*
X10231514Y-17656600D01*
X10260086Y-17642314D01*
X10302943Y-17642314D01*
X10331514Y-17656600D01*
X10345800Y-17685171D01*
X10345800Y-17842314D01*
X10345800Y-17685171D02*
X10360086Y-17656600D01*
X10388657Y-17642314D01*
X10431514Y-17642314D01*
X10460086Y-17656600D01*
X10474371Y-17685171D01*
X10474371Y-17842314D01*
X11060086Y-17528029D02*
X10802943Y-17913743D01*
X11445800Y-17542314D02*
X11474371Y-17542314D01*
X11502943Y-17556600D01*
X11517228Y-17570886D01*
X11531514Y-17599457D01*
X11545800Y-17656600D01*
X11545800Y-17728029D01*
X11531514Y-17785171D01*
X11517228Y-17813743D01*
X11502943Y-17828029D01*
X11474371Y-17842314D01*
X11445800Y-17842314D01*
X11417228Y-17828029D01*
X11402943Y-17813743D01*
X11388657Y-17785171D01*
X11374371Y-17728029D01*
X11374371Y-17656600D01*
X11388657Y-17599457D01*
X11402943Y-17570886D01*
X11417228Y-17556600D01*
X11445800Y-17542314D01*
X11674371Y-17813743D02*
X11688657Y-17828029D01*
X11674371Y-17842314D01*
X11660086Y-17828029D01*
X11674371Y-17813743D01*
X11674371Y-17842314D01*
X11874371Y-17542314D02*
X11902943Y-17542314D01*
X11931514Y-17556600D01*
X11945800Y-17570886D01*
X11960086Y-17599457D01*
X11974371Y-17656600D01*
X11974371Y-17728029D01*
X11960086Y-17785171D01*
X11945800Y-17813743D01*
X11931514Y-17828029D01*
X11902943Y-17842314D01*
X11874371Y-17842314D01*
X11845800Y-17828029D01*
X11831514Y-17813743D01*
X11817228Y-17785171D01*
X11802943Y-17728029D01*
X11802943Y-17656600D01*
X11817228Y-17599457D01*
X11831514Y-17570886D01*
X11845800Y-17556600D01*
X11874371Y-17542314D01*
X12074371Y-17542314D02*
X12260086Y-17542314D01*
X12160086Y-17656600D01*
X12202943Y-17656600D01*
X12231514Y-17670886D01*
X12245800Y-17685171D01*
X12260086Y-17713743D01*
X12260086Y-17785171D01*
X12245800Y-17813743D01*
X12231514Y-17828029D01*
X12202943Y-17842314D01*
X12117228Y-17842314D01*
X12088657Y-17828029D01*
X12074371Y-17813743D01*
X12531514Y-17542314D02*
X12388657Y-17542314D01*
X12374371Y-17685171D01*
X12388657Y-17670886D01*
X12417228Y-17656600D01*
X12488657Y-17656600D01*
X12517228Y-17670886D01*
X12531514Y-17685171D01*
X12545800Y-17713743D01*
X12545800Y-17785171D01*
X12531514Y-17813743D01*
X12517228Y-17828029D01*
X12488657Y-17842314D01*
X12417228Y-17842314D01*
X12388657Y-17828029D01*
X12374371Y-17813743D01*
X12660086Y-17542314D02*
X12660086Y-17599457D01*
X12774371Y-17542314D02*
X12774371Y-17599457D01*
X13217228Y-17956600D02*
X13202943Y-17942314D01*
X13174371Y-17899457D01*
X13160086Y-17870886D01*
X13145800Y-17828029D01*
X13131514Y-17756600D01*
X13131514Y-17699457D01*
X13145800Y-17628029D01*
X13160086Y-17585171D01*
X13174371Y-17556600D01*
X13202943Y-17513743D01*
X13217228Y-17499457D01*
X13317228Y-17570886D02*
X13331514Y-17556600D01*
X13360086Y-17542314D01*
X13431514Y-17542314D01*
X13460086Y-17556600D01*
X13474371Y-17570886D01*
X13488657Y-17599457D01*
X13488657Y-17628029D01*
X13474371Y-17670886D01*
X13302943Y-17842314D01*
X13488657Y-17842314D01*
X13631514Y-17842314D02*
X13688657Y-17842314D01*
X13717228Y-17828029D01*
X13731514Y-17813743D01*
X13760086Y-17770886D01*
X13774371Y-17713743D01*
X13774371Y-17599457D01*
X13760086Y-17570886D01*
X13745800Y-17556600D01*
X13717228Y-17542314D01*
X13660086Y-17542314D01*
X13631514Y-17556600D01*
X13617228Y-17570886D01*
X13602943Y-17599457D01*
X13602943Y-17670886D01*
X13617228Y-17699457D01*
X13631514Y-17713743D01*
X13660086Y-17728029D01*
X13717228Y-17728029D01*
X13745800Y-17713743D01*
X13760086Y-17699457D01*
X13774371Y-17670886D01*
X14131514Y-17842314D02*
X14131514Y-17542314D01*
X14260086Y-17842314D02*
X14260086Y-17685171D01*
X14245800Y-17656600D01*
X14217228Y-17642314D01*
X14174371Y-17642314D01*
X14145800Y-17656600D01*
X14131514Y-17670886D01*
X14445800Y-17842314D02*
X14417228Y-17828029D01*
X14402943Y-17813743D01*
X14388657Y-17785171D01*
X14388657Y-17699457D01*
X14402943Y-17670886D01*
X14417228Y-17656600D01*
X14445800Y-17642314D01*
X14488657Y-17642314D01*
X14517228Y-17656600D01*
X14531514Y-17670886D01*
X14545800Y-17699457D01*
X14545800Y-17785171D01*
X14531514Y-17813743D01*
X14517228Y-17828029D01*
X14488657Y-17842314D01*
X14445800Y-17842314D01*
X14717228Y-17842314D02*
X14688657Y-17828029D01*
X14674371Y-17799457D01*
X14674371Y-17542314D01*
X14945800Y-17828029D02*
X14917228Y-17842314D01*
X14860086Y-17842314D01*
X14831514Y-17828029D01*
X14817228Y-17799457D01*
X14817228Y-17685171D01*
X14831514Y-17656600D01*
X14860086Y-17642314D01*
X14917228Y-17642314D01*
X14945800Y-17656600D01*
X14960086Y-17685171D01*
X14960086Y-17713743D01*
X14817228Y-17742314D01*
X15074371Y-17828029D02*
X15102943Y-17842314D01*
X15160086Y-17842314D01*
X15188657Y-17828029D01*
X15202943Y-17799457D01*
X15202943Y-17785171D01*
X15188657Y-17756600D01*
X15160086Y-17742314D01*
X15117228Y-17742314D01*
X15088657Y-17728029D01*
X15074371Y-17699457D01*
X15074371Y-17685171D01*
X15088657Y-17656600D01*
X15117228Y-17642314D01*
X15160086Y-17642314D01*
X15188657Y-17656600D01*
X15302943Y-17956600D02*
X15317228Y-17942314D01*
X15345800Y-17899457D01*
X15360086Y-17870886D01*
X15374371Y-17828029D01*
X15388657Y-17756600D01*
X15388657Y-17699457D01*
X15374371Y-17628029D01*
X15360086Y-17585171D01*
X15345800Y-17556600D01*
X15317228Y-17513743D01*
X15302943Y-17499457D01*
X8480800Y-18152600D02*
X8530800Y-18102600D01*
X8480800Y-18052600D01*
X8430800Y-18102600D01*
X8480800Y-18152600D01*
X8974371Y-18238314D02*
X8802943Y-18238314D01*
X8888657Y-18238314D02*
X8888657Y-17938314D01*
X8860086Y-17981171D01*
X8831514Y-18009743D01*
X8802943Y-18024029D01*
X9102943Y-18209743D02*
X9117229Y-18224029D01*
X9102943Y-18238314D01*
X9088657Y-18224029D01*
X9102943Y-18209743D01*
X9102943Y-18238314D01*
X9302943Y-17938314D02*
X9331514Y-17938314D01*
X9360086Y-17952600D01*
X9374371Y-17966886D01*
X9388657Y-17995457D01*
X9402943Y-18052600D01*
X9402943Y-18124029D01*
X9388657Y-18181171D01*
X9374371Y-18209743D01*
X9360086Y-18224029D01*
X9331514Y-18238314D01*
X9302943Y-18238314D01*
X9274371Y-18224029D01*
X9260086Y-18209743D01*
X9245800Y-18181171D01*
X9231514Y-18124029D01*
X9231514Y-18052600D01*
X9245800Y-17995457D01*
X9260086Y-17966886D01*
X9274371Y-17952600D01*
X9302943Y-17938314D01*
X9588657Y-17938314D02*
X9617229Y-17938314D01*
X9645800Y-17952600D01*
X9660086Y-17966886D01*
X9674371Y-17995457D01*
X9688657Y-18052600D01*
X9688657Y-18124029D01*
X9674371Y-18181171D01*
X9660086Y-18209743D01*
X9645800Y-18224029D01*
X9617229Y-18238314D01*
X9588657Y-18238314D01*
X9560086Y-18224029D01*
X9545800Y-18209743D01*
X9531514Y-18181171D01*
X9517229Y-18124029D01*
X9517229Y-18052600D01*
X9531514Y-17995457D01*
X9545800Y-17966886D01*
X9560086Y-17952600D01*
X9588657Y-17938314D01*
X9817229Y-18238314D02*
X9817229Y-18038314D01*
X9817229Y-18066886D02*
X9831514Y-18052600D01*
X9860086Y-18038314D01*
X9902943Y-18038314D01*
X9931514Y-18052600D01*
X9945800Y-18081171D01*
X9945800Y-18238314D01*
X9945800Y-18081171D02*
X9960086Y-18052600D01*
X9988657Y-18038314D01*
X10031514Y-18038314D01*
X10060086Y-18052600D01*
X10074371Y-18081171D01*
X10074371Y-18238314D01*
X10217229Y-18238314D02*
X10217229Y-18038314D01*
X10217229Y-18066886D02*
X10231514Y-18052600D01*
X10260086Y-18038314D01*
X10302943Y-18038314D01*
X10331514Y-18052600D01*
X10345800Y-18081171D01*
X10345800Y-18238314D01*
X10345800Y-18081171D02*
X10360086Y-18052600D01*
X10388657Y-18038314D01*
X10431514Y-18038314D01*
X10460086Y-18052600D01*
X10474371Y-18081171D01*
X10474371Y-18238314D01*
X11060086Y-17924029D02*
X10802943Y-18309743D01*
X11445800Y-17938314D02*
X11474371Y-17938314D01*
X11502943Y-17952600D01*
X11517228Y-17966886D01*
X11531514Y-17995457D01*
X11545800Y-18052600D01*
X11545800Y-18124029D01*
X11531514Y-18181171D01*
X11517228Y-18209743D01*
X11502943Y-18224029D01*
X11474371Y-18238314D01*
X11445800Y-18238314D01*
X11417228Y-18224029D01*
X11402943Y-18209743D01*
X11388657Y-18181171D01*
X11374371Y-18124029D01*
X11374371Y-18052600D01*
X11388657Y-17995457D01*
X11402943Y-17966886D01*
X11417228Y-17952600D01*
X11445800Y-17938314D01*
X11674371Y-18209743D02*
X11688657Y-18224029D01*
X11674371Y-18238314D01*
X11660086Y-18224029D01*
X11674371Y-18209743D01*
X11674371Y-18238314D01*
X11874371Y-17938314D02*
X11902943Y-17938314D01*
X11931514Y-17952600D01*
X11945800Y-17966886D01*
X11960086Y-17995457D01*
X11974371Y-18052600D01*
X11974371Y-18124029D01*
X11960086Y-18181171D01*
X11945800Y-18209743D01*
X11931514Y-18224029D01*
X11902943Y-18238314D01*
X11874371Y-18238314D01*
X11845800Y-18224029D01*
X11831514Y-18209743D01*
X11817228Y-18181171D01*
X11802943Y-18124029D01*
X11802943Y-18052600D01*
X11817228Y-17995457D01*
X11831514Y-17966886D01*
X11845800Y-17952600D01*
X11874371Y-17938314D01*
X12074371Y-17938314D02*
X12260086Y-17938314D01*
X12160086Y-18052600D01*
X12202943Y-18052600D01*
X12231514Y-18066886D01*
X12245800Y-18081171D01*
X12260086Y-18109743D01*
X12260086Y-18181171D01*
X12245800Y-18209743D01*
X12231514Y-18224029D01*
X12202943Y-18238314D01*
X12117228Y-18238314D01*
X12088657Y-18224029D01*
X12074371Y-18209743D01*
X12402943Y-18238314D02*
X12460086Y-18238314D01*
X12488657Y-18224029D01*
X12502943Y-18209743D01*
X12531514Y-18166886D01*
X12545800Y-18109743D01*
X12545800Y-17995457D01*
X12531514Y-17966886D01*
X12517228Y-17952600D01*
X12488657Y-17938314D01*
X12431514Y-17938314D01*
X12402943Y-17952600D01*
X12388657Y-17966886D01*
X12374371Y-17995457D01*
X12374371Y-18066886D01*
X12388657Y-18095457D01*
X12402943Y-18109743D01*
X12431514Y-18124029D01*
X12488657Y-18124029D01*
X12517228Y-18109743D01*
X12531514Y-18095457D01*
X12545800Y-18066886D01*
X12660086Y-17938314D02*
X12660086Y-17995457D01*
X12774371Y-17938314D02*
X12774371Y-17995457D01*
X13217228Y-18352600D02*
X13202943Y-18338314D01*
X13174371Y-18295457D01*
X13160086Y-18266886D01*
X13145800Y-18224029D01*
X13131514Y-18152600D01*
X13131514Y-18095457D01*
X13145800Y-18024029D01*
X13160086Y-17981171D01*
X13174371Y-17952600D01*
X13202943Y-17909743D01*
X13217228Y-17895457D01*
X13474371Y-17938314D02*
X13331514Y-17938314D01*
X13317228Y-18081171D01*
X13331514Y-18066886D01*
X13360086Y-18052600D01*
X13431514Y-18052600D01*
X13460086Y-18066886D01*
X13474371Y-18081171D01*
X13488657Y-18109743D01*
X13488657Y-18181171D01*
X13474371Y-18209743D01*
X13460086Y-18224029D01*
X13431514Y-18238314D01*
X13360086Y-18238314D01*
X13331514Y-18224029D01*
X13317228Y-18209743D01*
X13674371Y-17938314D02*
X13702943Y-17938314D01*
X13731514Y-17952600D01*
X13745800Y-17966886D01*
X13760086Y-17995457D01*
X13774371Y-18052600D01*
X13774371Y-18124029D01*
X13760086Y-18181171D01*
X13745800Y-18209743D01*
X13731514Y-18224029D01*
X13702943Y-18238314D01*
X13674371Y-18238314D01*
X13645800Y-18224029D01*
X13631514Y-18209743D01*
X13617228Y-18181171D01*
X13602943Y-18124029D01*
X13602943Y-18052600D01*
X13617228Y-17995457D01*
X13631514Y-17966886D01*
X13645800Y-17952600D01*
X13674371Y-17938314D01*
X14131514Y-18238314D02*
X14131514Y-17938314D01*
X14260086Y-18238314D02*
X14260086Y-18081171D01*
X14245800Y-18052600D01*
X14217228Y-18038314D01*
X14174371Y-18038314D01*
X14145800Y-18052600D01*
X14131514Y-18066886D01*
X14445800Y-18238314D02*
X14417228Y-18224029D01*
X14402943Y-18209743D01*
X14388657Y-18181171D01*
X14388657Y-18095457D01*
X14402943Y-18066886D01*
X14417228Y-18052600D01*
X14445800Y-18038314D01*
X14488657Y-18038314D01*
X14517228Y-18052600D01*
X14531514Y-18066886D01*
X14545800Y-18095457D01*
X14545800Y-18181171D01*
X14531514Y-18209743D01*
X14517228Y-18224029D01*
X14488657Y-18238314D01*
X14445800Y-18238314D01*
X14717228Y-18238314D02*
X14688657Y-18224029D01*
X14674371Y-18195457D01*
X14674371Y-17938314D01*
X14945800Y-18224029D02*
X14917228Y-18238314D01*
X14860086Y-18238314D01*
X14831514Y-18224029D01*
X14817228Y-18195457D01*
X14817228Y-18081171D01*
X14831514Y-18052600D01*
X14860086Y-18038314D01*
X14917228Y-18038314D01*
X14945800Y-18052600D01*
X14960086Y-18081171D01*
X14960086Y-18109743D01*
X14817228Y-18138314D01*
X15074371Y-18224029D02*
X15102943Y-18238314D01*
X15160086Y-18238314D01*
X15188657Y-18224029D01*
X15202943Y-18195457D01*
X15202943Y-18181171D01*
X15188657Y-18152600D01*
X15160086Y-18138314D01*
X15117228Y-18138314D01*
X15088657Y-18124029D01*
X15074371Y-18095457D01*
X15074371Y-18081171D01*
X15088657Y-18052600D01*
X15117228Y-18038314D01*
X15160086Y-18038314D01*
X15188657Y-18052600D01*
X15302943Y-18352600D02*
X15317228Y-18338314D01*
X15345800Y-18295457D01*
X15360086Y-18266886D01*
X15374371Y-18224029D01*
X15388657Y-18152600D01*
X15388657Y-18095457D01*
X15374371Y-18024029D01*
X15360086Y-17981171D01*
X15345800Y-17952600D01*
X15317228Y-17909743D01*
X15302943Y-17895457D01*
X8410800Y-18438600D02*
X8530800Y-18558600D01*
X8530800Y-18438600D02*
X8410800Y-18558600D01*
X8530800Y-18498600D02*
G75*
G03*
X8530800Y-18498600I-60000J0D01*
G01*
X8974371Y-18634314D02*
X8802943Y-18634314D01*
X8888657Y-18634314D02*
X8888657Y-18334314D01*
X8860086Y-18377171D01*
X8831514Y-18405743D01*
X8802943Y-18420029D01*
X9102943Y-18605743D02*
X9117229Y-18620029D01*
X9102943Y-18634314D01*
X9088657Y-18620029D01*
X9102943Y-18605743D01*
X9102943Y-18634314D01*
X9231514Y-18362886D02*
X9245800Y-18348600D01*
X9274371Y-18334314D01*
X9345800Y-18334314D01*
X9374371Y-18348600D01*
X9388657Y-18362886D01*
X9402943Y-18391457D01*
X9402943Y-18420029D01*
X9388657Y-18462886D01*
X9217229Y-18634314D01*
X9402943Y-18634314D01*
X9588657Y-18334314D02*
X9617229Y-18334314D01*
X9645800Y-18348600D01*
X9660086Y-18362886D01*
X9674371Y-18391457D01*
X9688657Y-18448600D01*
X9688657Y-18520029D01*
X9674371Y-18577171D01*
X9660086Y-18605743D01*
X9645800Y-18620029D01*
X9617229Y-18634314D01*
X9588657Y-18634314D01*
X9560086Y-18620029D01*
X9545800Y-18605743D01*
X9531514Y-18577171D01*
X9517229Y-18520029D01*
X9517229Y-18448600D01*
X9531514Y-18391457D01*
X9545800Y-18362886D01*
X9560086Y-18348600D01*
X9588657Y-18334314D01*
X9817229Y-18634314D02*
X9817229Y-18434314D01*
X9817229Y-18462886D02*
X9831514Y-18448600D01*
X9860086Y-18434314D01*
X9902943Y-18434314D01*
X9931514Y-18448600D01*
X9945800Y-18477171D01*
X9945800Y-18634314D01*
X9945800Y-18477171D02*
X9960086Y-18448600D01*
X9988657Y-18434314D01*
X10031514Y-18434314D01*
X10060086Y-18448600D01*
X10074371Y-18477171D01*
X10074371Y-18634314D01*
X10217229Y-18634314D02*
X10217229Y-18434314D01*
X10217229Y-18462886D02*
X10231514Y-18448600D01*
X10260086Y-18434314D01*
X10302943Y-18434314D01*
X10331514Y-18448600D01*
X10345800Y-18477171D01*
X10345800Y-18634314D01*
X10345800Y-18477171D02*
X10360086Y-18448600D01*
X10388657Y-18434314D01*
X10431514Y-18434314D01*
X10460086Y-18448600D01*
X10474371Y-18477171D01*
X10474371Y-18634314D01*
X11060086Y-18320029D02*
X10802943Y-18705743D01*
X11445800Y-18334314D02*
X11474371Y-18334314D01*
X11502943Y-18348600D01*
X11517228Y-18362886D01*
X11531514Y-18391457D01*
X11545800Y-18448600D01*
X11545800Y-18520029D01*
X11531514Y-18577171D01*
X11517228Y-18605743D01*
X11502943Y-18620029D01*
X11474371Y-18634314D01*
X11445800Y-18634314D01*
X11417228Y-18620029D01*
X11402943Y-18605743D01*
X11388657Y-18577171D01*
X11374371Y-18520029D01*
X11374371Y-18448600D01*
X11388657Y-18391457D01*
X11402943Y-18362886D01*
X11417228Y-18348600D01*
X11445800Y-18334314D01*
X11674371Y-18605743D02*
X11688657Y-18620029D01*
X11674371Y-18634314D01*
X11660086Y-18620029D01*
X11674371Y-18605743D01*
X11674371Y-18634314D01*
X11874371Y-18334314D02*
X11902943Y-18334314D01*
X11931514Y-18348600D01*
X11945800Y-18362886D01*
X11960086Y-18391457D01*
X11974371Y-18448600D01*
X11974371Y-18520029D01*
X11960086Y-18577171D01*
X11945800Y-18605743D01*
X11931514Y-18620029D01*
X11902943Y-18634314D01*
X11874371Y-18634314D01*
X11845800Y-18620029D01*
X11831514Y-18605743D01*
X11817228Y-18577171D01*
X11802943Y-18520029D01*
X11802943Y-18448600D01*
X11817228Y-18391457D01*
X11831514Y-18362886D01*
X11845800Y-18348600D01*
X11874371Y-18334314D01*
X12231514Y-18434314D02*
X12231514Y-18634314D01*
X12160086Y-18320029D02*
X12088657Y-18534314D01*
X12274371Y-18534314D01*
X12360086Y-18334314D02*
X12560086Y-18334314D01*
X12431514Y-18634314D01*
X12660086Y-18334314D02*
X12660086Y-18391457D01*
X12774371Y-18334314D02*
X12774371Y-18391457D01*
X13217228Y-18748600D02*
X13202943Y-18734314D01*
X13174371Y-18691457D01*
X13160086Y-18662886D01*
X13145800Y-18620029D01*
X13131514Y-18548600D01*
X13131514Y-18491457D01*
X13145800Y-18420029D01*
X13160086Y-18377171D01*
X13174371Y-18348600D01*
X13202943Y-18305743D01*
X13217228Y-18291457D01*
X13302943Y-18334314D02*
X13488657Y-18334314D01*
X13388657Y-18448600D01*
X13431514Y-18448600D01*
X13460086Y-18462886D01*
X13474371Y-18477171D01*
X13488657Y-18505743D01*
X13488657Y-18577171D01*
X13474371Y-18605743D01*
X13460086Y-18620029D01*
X13431514Y-18634314D01*
X13345800Y-18634314D01*
X13317228Y-18620029D01*
X13302943Y-18605743D01*
X13660086Y-18462886D02*
X13631514Y-18448600D01*
X13617228Y-18434314D01*
X13602943Y-18405743D01*
X13602943Y-18391457D01*
X13617228Y-18362886D01*
X13631514Y-18348600D01*
X13660086Y-18334314D01*
X13717228Y-18334314D01*
X13745800Y-18348600D01*
X13760086Y-18362886D01*
X13774371Y-18391457D01*
X13774371Y-18405743D01*
X13760086Y-18434314D01*
X13745800Y-18448600D01*
X13717228Y-18462886D01*
X13660086Y-18462886D01*
X13631514Y-18477171D01*
X13617228Y-18491457D01*
X13602943Y-18520029D01*
X13602943Y-18577171D01*
X13617228Y-18605743D01*
X13631514Y-18620029D01*
X13660086Y-18634314D01*
X13717228Y-18634314D01*
X13745800Y-18620029D01*
X13760086Y-18605743D01*
X13774371Y-18577171D01*
X13774371Y-18520029D01*
X13760086Y-18491457D01*
X13745800Y-18477171D01*
X13717228Y-18462886D01*
X14131514Y-18634314D02*
X14131514Y-18334314D01*
X14260086Y-18634314D02*
X14260086Y-18477171D01*
X14245800Y-18448600D01*
X14217228Y-18434314D01*
X14174371Y-18434314D01*
X14145800Y-18448600D01*
X14131514Y-18462886D01*
X14445800Y-18634314D02*
X14417228Y-18620029D01*
X14402943Y-18605743D01*
X14388657Y-18577171D01*
X14388657Y-18491457D01*
X14402943Y-18462886D01*
X14417228Y-18448600D01*
X14445800Y-18434314D01*
X14488657Y-18434314D01*
X14517228Y-18448600D01*
X14531514Y-18462886D01*
X14545800Y-18491457D01*
X14545800Y-18577171D01*
X14531514Y-18605743D01*
X14517228Y-18620029D01*
X14488657Y-18634314D01*
X14445800Y-18634314D01*
X14717228Y-18634314D02*
X14688657Y-18620029D01*
X14674371Y-18591457D01*
X14674371Y-18334314D01*
X14945800Y-18620029D02*
X14917228Y-18634314D01*
X14860086Y-18634314D01*
X14831514Y-18620029D01*
X14817228Y-18591457D01*
X14817228Y-18477171D01*
X14831514Y-18448600D01*
X14860086Y-18434314D01*
X14917228Y-18434314D01*
X14945800Y-18448600D01*
X14960086Y-18477171D01*
X14960086Y-18505743D01*
X14817228Y-18534314D01*
X15074371Y-18620029D02*
X15102943Y-18634314D01*
X15160086Y-18634314D01*
X15188657Y-18620029D01*
X15202943Y-18591457D01*
X15202943Y-18577171D01*
X15188657Y-18548600D01*
X15160086Y-18534314D01*
X15117228Y-18534314D01*
X15088657Y-18520029D01*
X15074371Y-18491457D01*
X15074371Y-18477171D01*
X15088657Y-18448600D01*
X15117228Y-18434314D01*
X15160086Y-18434314D01*
X15188657Y-18448600D01*
X15302943Y-18748600D02*
X15317228Y-18734314D01*
X15345800Y-18691457D01*
X15360086Y-18662886D01*
X15374371Y-18620029D01*
X15388657Y-18548600D01*
X15388657Y-18491457D01*
X15374371Y-18420029D01*
X15360086Y-18377171D01*
X15345800Y-18348600D01*
X15317228Y-18305743D01*
X15302943Y-18291457D01*
X8400800Y-18829600D02*
X8530800Y-18959600D01*
X8530800Y-18829600D02*
X8400800Y-18959600D01*
X8465800Y-18829600D02*
X8465800Y-18959600D01*
X8400800Y-18894600D02*
X8530800Y-18894600D01*
X8974371Y-19030314D02*
X8802943Y-19030314D01*
X8888657Y-19030314D02*
X8888657Y-18730314D01*
X8860086Y-18773171D01*
X8831514Y-18801743D01*
X8802943Y-18816029D01*
X9102943Y-19001743D02*
X9117229Y-19016029D01*
X9102943Y-19030314D01*
X9088657Y-19016029D01*
X9102943Y-19001743D01*
X9102943Y-19030314D01*
X9217229Y-18730314D02*
X9402943Y-18730314D01*
X9302943Y-18844600D01*
X9345800Y-18844600D01*
X9374371Y-18858886D01*
X9388657Y-18873171D01*
X9402943Y-18901743D01*
X9402943Y-18973171D01*
X9388657Y-19001743D01*
X9374371Y-19016029D01*
X9345800Y-19030314D01*
X9260086Y-19030314D01*
X9231514Y-19016029D01*
X9217229Y-19001743D01*
X9588657Y-18730314D02*
X9617229Y-18730314D01*
X9645800Y-18744600D01*
X9660086Y-18758886D01*
X9674371Y-18787457D01*
X9688657Y-18844600D01*
X9688657Y-18916029D01*
X9674371Y-18973171D01*
X9660086Y-19001743D01*
X9645800Y-19016029D01*
X9617229Y-19030314D01*
X9588657Y-19030314D01*
X9560086Y-19016029D01*
X9545800Y-19001743D01*
X9531514Y-18973171D01*
X9517229Y-18916029D01*
X9517229Y-18844600D01*
X9531514Y-18787457D01*
X9545800Y-18758886D01*
X9560086Y-18744600D01*
X9588657Y-18730314D01*
X9817229Y-19030314D02*
X9817229Y-18830314D01*
X9817229Y-18858886D02*
X9831514Y-18844600D01*
X9860086Y-18830314D01*
X9902943Y-18830314D01*
X9931514Y-18844600D01*
X9945800Y-18873171D01*
X9945800Y-19030314D01*
X9945800Y-18873171D02*
X9960086Y-18844600D01*
X9988657Y-18830314D01*
X10031514Y-18830314D01*
X10060086Y-18844600D01*
X10074371Y-18873171D01*
X10074371Y-19030314D01*
X10217229Y-19030314D02*
X10217229Y-18830314D01*
X10217229Y-18858886D02*
X10231514Y-18844600D01*
X10260086Y-18830314D01*
X10302943Y-18830314D01*
X10331514Y-18844600D01*
X10345800Y-18873171D01*
X10345800Y-19030314D01*
X10345800Y-18873171D02*
X10360086Y-18844600D01*
X10388657Y-18830314D01*
X10431514Y-18830314D01*
X10460086Y-18844600D01*
X10474371Y-18873171D01*
X10474371Y-19030314D01*
X11060086Y-18716029D02*
X10802943Y-19101743D01*
X11445800Y-18730314D02*
X11474371Y-18730314D01*
X11502943Y-18744600D01*
X11517228Y-18758886D01*
X11531514Y-18787457D01*
X11545800Y-18844600D01*
X11545800Y-18916029D01*
X11531514Y-18973171D01*
X11517228Y-19001743D01*
X11502943Y-19016029D01*
X11474371Y-19030314D01*
X11445800Y-19030314D01*
X11417228Y-19016029D01*
X11402943Y-19001743D01*
X11388657Y-18973171D01*
X11374371Y-18916029D01*
X11374371Y-18844600D01*
X11388657Y-18787457D01*
X11402943Y-18758886D01*
X11417228Y-18744600D01*
X11445800Y-18730314D01*
X11674371Y-19001743D02*
X11688657Y-19016029D01*
X11674371Y-19030314D01*
X11660086Y-19016029D01*
X11674371Y-19001743D01*
X11674371Y-19030314D01*
X11874371Y-18730314D02*
X11902943Y-18730314D01*
X11931514Y-18744600D01*
X11945800Y-18758886D01*
X11960086Y-18787457D01*
X11974371Y-18844600D01*
X11974371Y-18916029D01*
X11960086Y-18973171D01*
X11945800Y-19001743D01*
X11931514Y-19016029D01*
X11902943Y-19030314D01*
X11874371Y-19030314D01*
X11845800Y-19016029D01*
X11831514Y-19001743D01*
X11817228Y-18973171D01*
X11802943Y-18916029D01*
X11802943Y-18844600D01*
X11817228Y-18787457D01*
X11831514Y-18758886D01*
X11845800Y-18744600D01*
X11874371Y-18730314D01*
X12245800Y-18730314D02*
X12102943Y-18730314D01*
X12088657Y-18873171D01*
X12102943Y-18858886D01*
X12131514Y-18844600D01*
X12202943Y-18844600D01*
X12231514Y-18858886D01*
X12245800Y-18873171D01*
X12260086Y-18901743D01*
X12260086Y-18973171D01*
X12245800Y-19001743D01*
X12231514Y-19016029D01*
X12202943Y-19030314D01*
X12131514Y-19030314D01*
X12102943Y-19016029D01*
X12088657Y-19001743D01*
X12545800Y-19030314D02*
X12374371Y-19030314D01*
X12460086Y-19030314D02*
X12460086Y-18730314D01*
X12431514Y-18773171D01*
X12402943Y-18801743D01*
X12374371Y-18816029D01*
X12660086Y-18730314D02*
X12660086Y-18787457D01*
X12774371Y-18730314D02*
X12774371Y-18787457D01*
X13217228Y-19144600D02*
X13202943Y-19130314D01*
X13174371Y-19087457D01*
X13160086Y-19058886D01*
X13145800Y-19016029D01*
X13131514Y-18944600D01*
X13131514Y-18887457D01*
X13145800Y-18816029D01*
X13160086Y-18773171D01*
X13174371Y-18744600D01*
X13202943Y-18701743D01*
X13217228Y-18687457D01*
X13317228Y-18758886D02*
X13331514Y-18744600D01*
X13360086Y-18730314D01*
X13431514Y-18730314D01*
X13460086Y-18744600D01*
X13474371Y-18758886D01*
X13488657Y-18787457D01*
X13488657Y-18816029D01*
X13474371Y-18858886D01*
X13302943Y-19030314D01*
X13488657Y-19030314D01*
X13674371Y-18730314D02*
X13702943Y-18730314D01*
X13731514Y-18744600D01*
X13745800Y-18758886D01*
X13760086Y-18787457D01*
X13774371Y-18844600D01*
X13774371Y-18916029D01*
X13760086Y-18973171D01*
X13745800Y-19001743D01*
X13731514Y-19016029D01*
X13702943Y-19030314D01*
X13674371Y-19030314D01*
X13645800Y-19016029D01*
X13631514Y-19001743D01*
X13617228Y-18973171D01*
X13602943Y-18916029D01*
X13602943Y-18844600D01*
X13617228Y-18787457D01*
X13631514Y-18758886D01*
X13645800Y-18744600D01*
X13674371Y-18730314D01*
X14131514Y-19030314D02*
X14131514Y-18730314D01*
X14260086Y-19030314D02*
X14260086Y-18873171D01*
X14245800Y-18844600D01*
X14217228Y-18830314D01*
X14174371Y-18830314D01*
X14145800Y-18844600D01*
X14131514Y-18858886D01*
X14445800Y-19030314D02*
X14417228Y-19016029D01*
X14402943Y-19001743D01*
X14388657Y-18973171D01*
X14388657Y-18887457D01*
X14402943Y-18858886D01*
X14417228Y-18844600D01*
X14445800Y-18830314D01*
X14488657Y-18830314D01*
X14517228Y-18844600D01*
X14531514Y-18858886D01*
X14545800Y-18887457D01*
X14545800Y-18973171D01*
X14531514Y-19001743D01*
X14517228Y-19016029D01*
X14488657Y-19030314D01*
X14445800Y-19030314D01*
X14717228Y-19030314D02*
X14688657Y-19016029D01*
X14674371Y-18987457D01*
X14674371Y-18730314D01*
X14945800Y-19016029D02*
X14917228Y-19030314D01*
X14860086Y-19030314D01*
X14831514Y-19016029D01*
X14817228Y-18987457D01*
X14817228Y-18873171D01*
X14831514Y-18844600D01*
X14860086Y-18830314D01*
X14917228Y-18830314D01*
X14945800Y-18844600D01*
X14960086Y-18873171D01*
X14960086Y-18901743D01*
X14817228Y-18930314D01*
X15074371Y-19016029D02*
X15102943Y-19030314D01*
X15160086Y-19030314D01*
X15188657Y-19016029D01*
X15202943Y-18987457D01*
X15202943Y-18973171D01*
X15188657Y-18944600D01*
X15160086Y-18930314D01*
X15117228Y-18930314D01*
X15088657Y-18916029D01*
X15074371Y-18887457D01*
X15074371Y-18873171D01*
X15088657Y-18844600D01*
X15117228Y-18830314D01*
X15160086Y-18830314D01*
X15188657Y-18844600D01*
X15302943Y-19144600D02*
X15317228Y-19130314D01*
X15345800Y-19087457D01*
X15360086Y-19058886D01*
X15374371Y-19016029D01*
X15388657Y-18944600D01*
X15388657Y-18887457D01*
X15374371Y-18816029D01*
X15360086Y-18773171D01*
X15345800Y-18744600D01*
X15317228Y-18701743D01*
X15302943Y-18687457D01*
X8393800Y-19222100D02*
X8530800Y-19359100D01*
X8530800Y-19222100D02*
X8393800Y-19359100D01*
X8510737Y-19339037D02*
X8510737Y-19242163D01*
X8413863Y-19242163D01*
X8413863Y-19339037D01*
X8510737Y-19339037D01*
X8974371Y-19426314D02*
X8802943Y-19426314D01*
X8888657Y-19426314D02*
X8888657Y-19126314D01*
X8860086Y-19169171D01*
X8831514Y-19197743D01*
X8802943Y-19212029D01*
X9102943Y-19397743D02*
X9117229Y-19412029D01*
X9102943Y-19426314D01*
X9088657Y-19412029D01*
X9102943Y-19397743D01*
X9102943Y-19426314D01*
X9217229Y-19126314D02*
X9402943Y-19126314D01*
X9302943Y-19240600D01*
X9345800Y-19240600D01*
X9374371Y-19254886D01*
X9388657Y-19269171D01*
X9402943Y-19297743D01*
X9402943Y-19369171D01*
X9388657Y-19397743D01*
X9374371Y-19412029D01*
X9345800Y-19426314D01*
X9260086Y-19426314D01*
X9231514Y-19412029D01*
X9217229Y-19397743D01*
X9502943Y-19126314D02*
X9702943Y-19126314D01*
X9574371Y-19426314D01*
X9817229Y-19426314D02*
X9817229Y-19226314D01*
X9817229Y-19254886D02*
X9831514Y-19240600D01*
X9860086Y-19226314D01*
X9902943Y-19226314D01*
X9931514Y-19240600D01*
X9945800Y-19269171D01*
X9945800Y-19426314D01*
X9945800Y-19269171D02*
X9960086Y-19240600D01*
X9988657Y-19226314D01*
X10031514Y-19226314D01*
X10060086Y-19240600D01*
X10074371Y-19269171D01*
X10074371Y-19426314D01*
X10217229Y-19426314D02*
X10217229Y-19226314D01*
X10217229Y-19254886D02*
X10231514Y-19240600D01*
X10260086Y-19226314D01*
X10302943Y-19226314D01*
X10331514Y-19240600D01*
X10345800Y-19269171D01*
X10345800Y-19426314D01*
X10345800Y-19269171D02*
X10360086Y-19240600D01*
X10388657Y-19226314D01*
X10431514Y-19226314D01*
X10460086Y-19240600D01*
X10474371Y-19269171D01*
X10474371Y-19426314D01*
X11060086Y-19112029D02*
X10802943Y-19497743D01*
X11445800Y-19126314D02*
X11474371Y-19126314D01*
X11502943Y-19140600D01*
X11517228Y-19154886D01*
X11531514Y-19183457D01*
X11545800Y-19240600D01*
X11545800Y-19312029D01*
X11531514Y-19369171D01*
X11517228Y-19397743D01*
X11502943Y-19412029D01*
X11474371Y-19426314D01*
X11445800Y-19426314D01*
X11417228Y-19412029D01*
X11402943Y-19397743D01*
X11388657Y-19369171D01*
X11374371Y-19312029D01*
X11374371Y-19240600D01*
X11388657Y-19183457D01*
X11402943Y-19154886D01*
X11417228Y-19140600D01*
X11445800Y-19126314D01*
X11674371Y-19397743D02*
X11688657Y-19412029D01*
X11674371Y-19426314D01*
X11660086Y-19412029D01*
X11674371Y-19397743D01*
X11674371Y-19426314D01*
X11874371Y-19126314D02*
X11902943Y-19126314D01*
X11931514Y-19140600D01*
X11945800Y-19154886D01*
X11960086Y-19183457D01*
X11974371Y-19240600D01*
X11974371Y-19312029D01*
X11960086Y-19369171D01*
X11945800Y-19397743D01*
X11931514Y-19412029D01*
X11902943Y-19426314D01*
X11874371Y-19426314D01*
X11845800Y-19412029D01*
X11831514Y-19397743D01*
X11817228Y-19369171D01*
X11802943Y-19312029D01*
X11802943Y-19240600D01*
X11817228Y-19183457D01*
X11831514Y-19154886D01*
X11845800Y-19140600D01*
X11874371Y-19126314D01*
X12245800Y-19126314D02*
X12102943Y-19126314D01*
X12088657Y-19269171D01*
X12102943Y-19254886D01*
X12131514Y-19240600D01*
X12202943Y-19240600D01*
X12231514Y-19254886D01*
X12245800Y-19269171D01*
X12260086Y-19297743D01*
X12260086Y-19369171D01*
X12245800Y-19397743D01*
X12231514Y-19412029D01*
X12202943Y-19426314D01*
X12131514Y-19426314D01*
X12102943Y-19412029D01*
X12088657Y-19397743D01*
X12517228Y-19226314D02*
X12517228Y-19426314D01*
X12445800Y-19112029D02*
X12374371Y-19326314D01*
X12560086Y-19326314D01*
X12660086Y-19126314D02*
X12660086Y-19183457D01*
X12774371Y-19126314D02*
X12774371Y-19183457D01*
X13217228Y-19540600D02*
X13202943Y-19526314D01*
X13174371Y-19483457D01*
X13160086Y-19454886D01*
X13145800Y-19412029D01*
X13131514Y-19340600D01*
X13131514Y-19283457D01*
X13145800Y-19212029D01*
X13160086Y-19169171D01*
X13174371Y-19140600D01*
X13202943Y-19097743D01*
X13217228Y-19083457D01*
X13374371Y-19254886D02*
X13345800Y-19240600D01*
X13331514Y-19226314D01*
X13317228Y-19197743D01*
X13317228Y-19183457D01*
X13331514Y-19154886D01*
X13345800Y-19140600D01*
X13374371Y-19126314D01*
X13431514Y-19126314D01*
X13460086Y-19140600D01*
X13474371Y-19154886D01*
X13488657Y-19183457D01*
X13488657Y-19197743D01*
X13474371Y-19226314D01*
X13460086Y-19240600D01*
X13431514Y-19254886D01*
X13374371Y-19254886D01*
X13345800Y-19269171D01*
X13331514Y-19283457D01*
X13317228Y-19312029D01*
X13317228Y-19369171D01*
X13331514Y-19397743D01*
X13345800Y-19412029D01*
X13374371Y-19426314D01*
X13431514Y-19426314D01*
X13460086Y-19412029D01*
X13474371Y-19397743D01*
X13488657Y-19369171D01*
X13488657Y-19312029D01*
X13474371Y-19283457D01*
X13460086Y-19269171D01*
X13431514Y-19254886D01*
X13845800Y-19426314D02*
X13845800Y-19126314D01*
X13974371Y-19426314D02*
X13974371Y-19269171D01*
X13960086Y-19240600D01*
X13931514Y-19226314D01*
X13888657Y-19226314D01*
X13860086Y-19240600D01*
X13845800Y-19254886D01*
X14160086Y-19426314D02*
X14131514Y-19412029D01*
X14117228Y-19397743D01*
X14102943Y-19369171D01*
X14102943Y-19283457D01*
X14117228Y-19254886D01*
X14131514Y-19240600D01*
X14160086Y-19226314D01*
X14202943Y-19226314D01*
X14231514Y-19240600D01*
X14245800Y-19254886D01*
X14260086Y-19283457D01*
X14260086Y-19369171D01*
X14245800Y-19397743D01*
X14231514Y-19412029D01*
X14202943Y-19426314D01*
X14160086Y-19426314D01*
X14431514Y-19426314D02*
X14402943Y-19412029D01*
X14388657Y-19383457D01*
X14388657Y-19126314D01*
X14660086Y-19412029D02*
X14631514Y-19426314D01*
X14574371Y-19426314D01*
X14545800Y-19412029D01*
X14531514Y-19383457D01*
X14531514Y-19269171D01*
X14545800Y-19240600D01*
X14574371Y-19226314D01*
X14631514Y-19226314D01*
X14660086Y-19240600D01*
X14674371Y-19269171D01*
X14674371Y-19297743D01*
X14531514Y-19326314D01*
X14788657Y-19412029D02*
X14817228Y-19426314D01*
X14874371Y-19426314D01*
X14902943Y-19412029D01*
X14917228Y-19383457D01*
X14917228Y-19369171D01*
X14902943Y-19340600D01*
X14874371Y-19326314D01*
X14831514Y-19326314D01*
X14802943Y-19312029D01*
X14788657Y-19283457D01*
X14788657Y-19269171D01*
X14802943Y-19240600D01*
X14831514Y-19226314D01*
X14874371Y-19226314D01*
X14902943Y-19240600D01*
X15017228Y-19540600D02*
X15031514Y-19526314D01*
X15060086Y-19483457D01*
X15074371Y-19454886D01*
X15088657Y-19412029D01*
X15102943Y-19340600D01*
X15102943Y-19283457D01*
X15088657Y-19212029D01*
X15074371Y-19169171D01*
X15060086Y-19140600D01*
X15031514Y-19097743D01*
X15017228Y-19083457D01*
X8360800Y-19601600D02*
X8530800Y-19771600D01*
X8530800Y-19601600D02*
X8360800Y-19771600D01*
X8445800Y-19771600D02*
X8530800Y-19686600D01*
X8445800Y-19601600D01*
X8360800Y-19686600D01*
X8445800Y-19771600D01*
X8974371Y-19822314D02*
X8802943Y-19822314D01*
X8888657Y-19822314D02*
X8888657Y-19522314D01*
X8860086Y-19565171D01*
X8831514Y-19593743D01*
X8802943Y-19608029D01*
X9102943Y-19793743D02*
X9117229Y-19808029D01*
X9102943Y-19822314D01*
X9088657Y-19808029D01*
X9102943Y-19793743D01*
X9102943Y-19822314D01*
X9217229Y-19522314D02*
X9417229Y-19522314D01*
X9288657Y-19822314D01*
X9588657Y-19522314D02*
X9617229Y-19522314D01*
X9645800Y-19536600D01*
X9660086Y-19550886D01*
X9674371Y-19579457D01*
X9688657Y-19636600D01*
X9688657Y-19708029D01*
X9674371Y-19765171D01*
X9660086Y-19793743D01*
X9645800Y-19808029D01*
X9617229Y-19822314D01*
X9588657Y-19822314D01*
X9560086Y-19808029D01*
X9545800Y-19793743D01*
X9531514Y-19765171D01*
X9517229Y-19708029D01*
X9517229Y-19636600D01*
X9531514Y-19579457D01*
X9545800Y-19550886D01*
X9560086Y-19536600D01*
X9588657Y-19522314D01*
X9817229Y-19822314D02*
X9817229Y-19622314D01*
X9817229Y-19650886D02*
X9831514Y-19636600D01*
X9860086Y-19622314D01*
X9902943Y-19622314D01*
X9931514Y-19636600D01*
X9945800Y-19665171D01*
X9945800Y-19822314D01*
X9945800Y-19665171D02*
X9960086Y-19636600D01*
X9988657Y-19622314D01*
X10031514Y-19622314D01*
X10060086Y-19636600D01*
X10074371Y-19665171D01*
X10074371Y-19822314D01*
X10217229Y-19822314D02*
X10217229Y-19622314D01*
X10217229Y-19650886D02*
X10231514Y-19636600D01*
X10260086Y-19622314D01*
X10302943Y-19622314D01*
X10331514Y-19636600D01*
X10345800Y-19665171D01*
X10345800Y-19822314D01*
X10345800Y-19665171D02*
X10360086Y-19636600D01*
X10388657Y-19622314D01*
X10431514Y-19622314D01*
X10460086Y-19636600D01*
X10474371Y-19665171D01*
X10474371Y-19822314D01*
X11060086Y-19508029D02*
X10802943Y-19893743D01*
X11445800Y-19522314D02*
X11474371Y-19522314D01*
X11502943Y-19536600D01*
X11517228Y-19550886D01*
X11531514Y-19579457D01*
X11545800Y-19636600D01*
X11545800Y-19708029D01*
X11531514Y-19765171D01*
X11517228Y-19793743D01*
X11502943Y-19808029D01*
X11474371Y-19822314D01*
X11445800Y-19822314D01*
X11417228Y-19808029D01*
X11402943Y-19793743D01*
X11388657Y-19765171D01*
X11374371Y-19708029D01*
X11374371Y-19636600D01*
X11388657Y-19579457D01*
X11402943Y-19550886D01*
X11417228Y-19536600D01*
X11445800Y-19522314D01*
X11674371Y-19793743D02*
X11688657Y-19808029D01*
X11674371Y-19822314D01*
X11660086Y-19808029D01*
X11674371Y-19793743D01*
X11674371Y-19822314D01*
X11874371Y-19522314D02*
X11902943Y-19522314D01*
X11931514Y-19536600D01*
X11945800Y-19550886D01*
X11960086Y-19579457D01*
X11974371Y-19636600D01*
X11974371Y-19708029D01*
X11960086Y-19765171D01*
X11945800Y-19793743D01*
X11931514Y-19808029D01*
X11902943Y-19822314D01*
X11874371Y-19822314D01*
X11845800Y-19808029D01*
X11831514Y-19793743D01*
X11817228Y-19765171D01*
X11802943Y-19708029D01*
X11802943Y-19636600D01*
X11817228Y-19579457D01*
X11831514Y-19550886D01*
X11845800Y-19536600D01*
X11874371Y-19522314D01*
X12231514Y-19522314D02*
X12174371Y-19522314D01*
X12145800Y-19536600D01*
X12131514Y-19550886D01*
X12102943Y-19593743D01*
X12088657Y-19650886D01*
X12088657Y-19765171D01*
X12102943Y-19793743D01*
X12117228Y-19808029D01*
X12145800Y-19822314D01*
X12202943Y-19822314D01*
X12231514Y-19808029D01*
X12245800Y-19793743D01*
X12260086Y-19765171D01*
X12260086Y-19693743D01*
X12245800Y-19665171D01*
X12231514Y-19650886D01*
X12202943Y-19636600D01*
X12145800Y-19636600D01*
X12117228Y-19650886D01*
X12102943Y-19665171D01*
X12088657Y-19693743D01*
X12360086Y-19522314D02*
X12560086Y-19522314D01*
X12431514Y-19822314D01*
X12660086Y-19522314D02*
X12660086Y-19579457D01*
X12774371Y-19522314D02*
X12774371Y-19579457D01*
X13217228Y-19936600D02*
X13202943Y-19922314D01*
X13174371Y-19879457D01*
X13160086Y-19850886D01*
X13145800Y-19808029D01*
X13131514Y-19736600D01*
X13131514Y-19679457D01*
X13145800Y-19608029D01*
X13160086Y-19565171D01*
X13174371Y-19536600D01*
X13202943Y-19493743D01*
X13217228Y-19479457D01*
X13488657Y-19822314D02*
X13317228Y-19822314D01*
X13402943Y-19822314D02*
X13402943Y-19522314D01*
X13374371Y-19565171D01*
X13345800Y-19593743D01*
X13317228Y-19608029D01*
X13760086Y-19522314D02*
X13617228Y-19522314D01*
X13602943Y-19665171D01*
X13617228Y-19650886D01*
X13645800Y-19636600D01*
X13717228Y-19636600D01*
X13745800Y-19650886D01*
X13760086Y-19665171D01*
X13774371Y-19693743D01*
X13774371Y-19765171D01*
X13760086Y-19793743D01*
X13745800Y-19808029D01*
X13717228Y-19822314D01*
X13645800Y-19822314D01*
X13617228Y-19808029D01*
X13602943Y-19793743D01*
X14131514Y-19822314D02*
X14131514Y-19522314D01*
X14260086Y-19822314D02*
X14260086Y-19665171D01*
X14245800Y-19636600D01*
X14217228Y-19622314D01*
X14174371Y-19622314D01*
X14145800Y-19636600D01*
X14131514Y-19650886D01*
X14445800Y-19822314D02*
X14417228Y-19808029D01*
X14402943Y-19793743D01*
X14388657Y-19765171D01*
X14388657Y-19679457D01*
X14402943Y-19650886D01*
X14417228Y-19636600D01*
X14445800Y-19622314D01*
X14488657Y-19622314D01*
X14517228Y-19636600D01*
X14531514Y-19650886D01*
X14545800Y-19679457D01*
X14545800Y-19765171D01*
X14531514Y-19793743D01*
X14517228Y-19808029D01*
X14488657Y-19822314D01*
X14445800Y-19822314D01*
X14717228Y-19822314D02*
X14688657Y-19808029D01*
X14674371Y-19779457D01*
X14674371Y-19522314D01*
X14945800Y-19808029D02*
X14917228Y-19822314D01*
X14860086Y-19822314D01*
X14831514Y-19808029D01*
X14817228Y-19779457D01*
X14817228Y-19665171D01*
X14831514Y-19636600D01*
X14860086Y-19622314D01*
X14917228Y-19622314D01*
X14945800Y-19636600D01*
X14960086Y-19665171D01*
X14960086Y-19693743D01*
X14817228Y-19722314D01*
X15074371Y-19808029D02*
X15102943Y-19822314D01*
X15160086Y-19822314D01*
X15188657Y-19808029D01*
X15202943Y-19779457D01*
X15202943Y-19765171D01*
X15188657Y-19736600D01*
X15160086Y-19722314D01*
X15117228Y-19722314D01*
X15088657Y-19708029D01*
X15074371Y-19679457D01*
X15074371Y-19665171D01*
X15088657Y-19636600D01*
X15117228Y-19622314D01*
X15160086Y-19622314D01*
X15188657Y-19636600D01*
X15302943Y-19936600D02*
X15317228Y-19922314D01*
X15345800Y-19879457D01*
X15360086Y-19850886D01*
X15374371Y-19808029D01*
X15388657Y-19736600D01*
X15388657Y-19679457D01*
X15374371Y-19608029D01*
X15360086Y-19565171D01*
X15345800Y-19536600D01*
X15317228Y-19493743D01*
X15302943Y-19479457D01*
X8439300Y-19991100D02*
X8439300Y-20174100D01*
X8347800Y-20082600D02*
X8530800Y-20082600D01*
X8530800Y-20082600D02*
G75*
G03*
X8530800Y-20082600I-91500J0D01*
G01*
X8974371Y-20218314D02*
X8802943Y-20218314D01*
X8888657Y-20218314D02*
X8888657Y-19918314D01*
X8860086Y-19961171D01*
X8831514Y-19989743D01*
X8802943Y-20004029D01*
X9102943Y-20189743D02*
X9117229Y-20204029D01*
X9102943Y-20218314D01*
X9088657Y-20204029D01*
X9102943Y-20189743D01*
X9102943Y-20218314D01*
X9288657Y-20046886D02*
X9260086Y-20032600D01*
X9245800Y-20018314D01*
X9231514Y-19989743D01*
X9231514Y-19975457D01*
X9245800Y-19946886D01*
X9260086Y-19932600D01*
X9288657Y-19918314D01*
X9345800Y-19918314D01*
X9374371Y-19932600D01*
X9388657Y-19946886D01*
X9402943Y-19975457D01*
X9402943Y-19989743D01*
X9388657Y-20018314D01*
X9374371Y-20032600D01*
X9345800Y-20046886D01*
X9288657Y-20046886D01*
X9260086Y-20061171D01*
X9245800Y-20075457D01*
X9231514Y-20104029D01*
X9231514Y-20161171D01*
X9245800Y-20189743D01*
X9260086Y-20204029D01*
X9288657Y-20218314D01*
X9345800Y-20218314D01*
X9374371Y-20204029D01*
X9388657Y-20189743D01*
X9402943Y-20161171D01*
X9402943Y-20104029D01*
X9388657Y-20075457D01*
X9374371Y-20061171D01*
X9345800Y-20046886D01*
X9502943Y-19918314D02*
X9688657Y-19918314D01*
X9588657Y-20032600D01*
X9631514Y-20032600D01*
X9660086Y-20046886D01*
X9674371Y-20061171D01*
X9688657Y-20089743D01*
X9688657Y-20161171D01*
X9674371Y-20189743D01*
X9660086Y-20204029D01*
X9631514Y-20218314D01*
X9545800Y-20218314D01*
X9517229Y-20204029D01*
X9502943Y-20189743D01*
X9817229Y-20218314D02*
X9817229Y-20018314D01*
X9817229Y-20046886D02*
X9831514Y-20032600D01*
X9860086Y-20018314D01*
X9902943Y-20018314D01*
X9931514Y-20032600D01*
X9945800Y-20061171D01*
X9945800Y-20218314D01*
X9945800Y-20061171D02*
X9960086Y-20032600D01*
X9988657Y-20018314D01*
X10031514Y-20018314D01*
X10060086Y-20032600D01*
X10074371Y-20061171D01*
X10074371Y-20218314D01*
X10217229Y-20218314D02*
X10217229Y-20018314D01*
X10217229Y-20046886D02*
X10231514Y-20032600D01*
X10260086Y-20018314D01*
X10302943Y-20018314D01*
X10331514Y-20032600D01*
X10345800Y-20061171D01*
X10345800Y-20218314D01*
X10345800Y-20061171D02*
X10360086Y-20032600D01*
X10388657Y-20018314D01*
X10431514Y-20018314D01*
X10460086Y-20032600D01*
X10474371Y-20061171D01*
X10474371Y-20218314D01*
X11060086Y-19904029D02*
X10802943Y-20289743D01*
X11445800Y-19918314D02*
X11474371Y-19918314D01*
X11502943Y-19932600D01*
X11517228Y-19946886D01*
X11531514Y-19975457D01*
X11545800Y-20032600D01*
X11545800Y-20104029D01*
X11531514Y-20161171D01*
X11517228Y-20189743D01*
X11502943Y-20204029D01*
X11474371Y-20218314D01*
X11445800Y-20218314D01*
X11417228Y-20204029D01*
X11402943Y-20189743D01*
X11388657Y-20161171D01*
X11374371Y-20104029D01*
X11374371Y-20032600D01*
X11388657Y-19975457D01*
X11402943Y-19946886D01*
X11417228Y-19932600D01*
X11445800Y-19918314D01*
X11674371Y-20189743D02*
X11688657Y-20204029D01*
X11674371Y-20218314D01*
X11660086Y-20204029D01*
X11674371Y-20189743D01*
X11674371Y-20218314D01*
X11874371Y-19918314D02*
X11902943Y-19918314D01*
X11931514Y-19932600D01*
X11945800Y-19946886D01*
X11960086Y-19975457D01*
X11974371Y-20032600D01*
X11974371Y-20104029D01*
X11960086Y-20161171D01*
X11945800Y-20189743D01*
X11931514Y-20204029D01*
X11902943Y-20218314D01*
X11874371Y-20218314D01*
X11845800Y-20204029D01*
X11831514Y-20189743D01*
X11817228Y-20161171D01*
X11802943Y-20104029D01*
X11802943Y-20032600D01*
X11817228Y-19975457D01*
X11831514Y-19946886D01*
X11845800Y-19932600D01*
X11874371Y-19918314D01*
X12074371Y-19918314D02*
X12274371Y-19918314D01*
X12145800Y-20218314D01*
X12374371Y-19946886D02*
X12388657Y-19932600D01*
X12417228Y-19918314D01*
X12488657Y-19918314D01*
X12517228Y-19932600D01*
X12531514Y-19946886D01*
X12545800Y-19975457D01*
X12545800Y-20004029D01*
X12531514Y-20046886D01*
X12360086Y-20218314D01*
X12545800Y-20218314D01*
X12660086Y-19918314D02*
X12660086Y-19975457D01*
X12774371Y-19918314D02*
X12774371Y-19975457D01*
X13217228Y-20332600D02*
X13202943Y-20318314D01*
X13174371Y-20275457D01*
X13160086Y-20246886D01*
X13145800Y-20204029D01*
X13131514Y-20132600D01*
X13131514Y-20075457D01*
X13145800Y-20004029D01*
X13160086Y-19961171D01*
X13174371Y-19932600D01*
X13202943Y-19889743D01*
X13217228Y-19875457D01*
X13488657Y-20218314D02*
X13317228Y-20218314D01*
X13402943Y-20218314D02*
X13402943Y-19918314D01*
X13374371Y-19961171D01*
X13345800Y-19989743D01*
X13317228Y-20004029D01*
X13745800Y-20018314D02*
X13745800Y-20218314D01*
X13674371Y-19904029D02*
X13602943Y-20118314D01*
X13788657Y-20118314D01*
X14131514Y-20218314D02*
X14131514Y-19918314D01*
X14260086Y-20218314D02*
X14260086Y-20061171D01*
X14245800Y-20032600D01*
X14217228Y-20018314D01*
X14174371Y-20018314D01*
X14145800Y-20032600D01*
X14131514Y-20046886D01*
X14445800Y-20218314D02*
X14417228Y-20204029D01*
X14402943Y-20189743D01*
X14388657Y-20161171D01*
X14388657Y-20075457D01*
X14402943Y-20046886D01*
X14417228Y-20032600D01*
X14445800Y-20018314D01*
X14488657Y-20018314D01*
X14517228Y-20032600D01*
X14531514Y-20046886D01*
X14545800Y-20075457D01*
X14545800Y-20161171D01*
X14531514Y-20189743D01*
X14517228Y-20204029D01*
X14488657Y-20218314D01*
X14445800Y-20218314D01*
X14717228Y-20218314D02*
X14688657Y-20204029D01*
X14674371Y-20175457D01*
X14674371Y-19918314D01*
X14945800Y-20204029D02*
X14917228Y-20218314D01*
X14860086Y-20218314D01*
X14831514Y-20204029D01*
X14817228Y-20175457D01*
X14817228Y-20061171D01*
X14831514Y-20032600D01*
X14860086Y-20018314D01*
X14917228Y-20018314D01*
X14945800Y-20032600D01*
X14960086Y-20061171D01*
X14960086Y-20089743D01*
X14817228Y-20118314D01*
X15074371Y-20204029D02*
X15102943Y-20218314D01*
X15160086Y-20218314D01*
X15188657Y-20204029D01*
X15202943Y-20175457D01*
X15202943Y-20161171D01*
X15188657Y-20132600D01*
X15160086Y-20118314D01*
X15117228Y-20118314D01*
X15088657Y-20104029D01*
X15074371Y-20075457D01*
X15074371Y-20061171D01*
X15088657Y-20032600D01*
X15117228Y-20018314D01*
X15160086Y-20018314D01*
X15188657Y-20032600D01*
X15302943Y-20332600D02*
X15317228Y-20318314D01*
X15345800Y-20275457D01*
X15360086Y-20246886D01*
X15374371Y-20204029D01*
X15388657Y-20132600D01*
X15388657Y-20075457D01*
X15374371Y-20004029D01*
X15360086Y-19961171D01*
X15345800Y-19932600D01*
X15317228Y-19889743D01*
X15302943Y-19875457D01*
X8488332Y-20581132D02*
X8488332Y-20376069D01*
X8283268Y-20376069D01*
X8283268Y-20581132D01*
X8488332Y-20581132D01*
X8530800Y-20478600D02*
G75*
G03*
X8530800Y-20478600I-145000J0D01*
G01*
X8802943Y-20342886D02*
X8817229Y-20328600D01*
X8845800Y-20314314D01*
X8917229Y-20314314D01*
X8945800Y-20328600D01*
X8960086Y-20342886D01*
X8974371Y-20371457D01*
X8974371Y-20400029D01*
X8960086Y-20442886D01*
X8788657Y-20614314D01*
X8974371Y-20614314D01*
X9102943Y-20585743D02*
X9117229Y-20600029D01*
X9102943Y-20614314D01*
X9088657Y-20600029D01*
X9102943Y-20585743D01*
X9102943Y-20614314D01*
X9260086Y-20614314D02*
X9317229Y-20614314D01*
X9345800Y-20600029D01*
X9360086Y-20585743D01*
X9388657Y-20542886D01*
X9402943Y-20485743D01*
X9402943Y-20371457D01*
X9388657Y-20342886D01*
X9374371Y-20328600D01*
X9345800Y-20314314D01*
X9288657Y-20314314D01*
X9260086Y-20328600D01*
X9245800Y-20342886D01*
X9231514Y-20371457D01*
X9231514Y-20442886D01*
X9245800Y-20471457D01*
X9260086Y-20485743D01*
X9288657Y-20500029D01*
X9345800Y-20500029D01*
X9374371Y-20485743D01*
X9388657Y-20471457D01*
X9402943Y-20442886D01*
X9588657Y-20314314D02*
X9617229Y-20314314D01*
X9645800Y-20328600D01*
X9660086Y-20342886D01*
X9674371Y-20371457D01*
X9688657Y-20428600D01*
X9688657Y-20500029D01*
X9674371Y-20557171D01*
X9660086Y-20585743D01*
X9645800Y-20600029D01*
X9617229Y-20614314D01*
X9588657Y-20614314D01*
X9560086Y-20600029D01*
X9545800Y-20585743D01*
X9531514Y-20557171D01*
X9517229Y-20500029D01*
X9517229Y-20428600D01*
X9531514Y-20371457D01*
X9545800Y-20342886D01*
X9560086Y-20328600D01*
X9588657Y-20314314D01*
X9817229Y-20614314D02*
X9817229Y-20414314D01*
X9817229Y-20442886D02*
X9831514Y-20428600D01*
X9860086Y-20414314D01*
X9902943Y-20414314D01*
X9931514Y-20428600D01*
X9945800Y-20457171D01*
X9945800Y-20614314D01*
X9945800Y-20457171D02*
X9960086Y-20428600D01*
X9988657Y-20414314D01*
X10031514Y-20414314D01*
X10060086Y-20428600D01*
X10074371Y-20457171D01*
X10074371Y-20614314D01*
X10217229Y-20614314D02*
X10217229Y-20414314D01*
X10217229Y-20442886D02*
X10231514Y-20428600D01*
X10260086Y-20414314D01*
X10302943Y-20414314D01*
X10331514Y-20428600D01*
X10345800Y-20457171D01*
X10345800Y-20614314D01*
X10345800Y-20457171D02*
X10360086Y-20428600D01*
X10388657Y-20414314D01*
X10431514Y-20414314D01*
X10460086Y-20428600D01*
X10474371Y-20457171D01*
X10474371Y-20614314D01*
X11060086Y-20300029D02*
X10802943Y-20685743D01*
X11445800Y-20314314D02*
X11474371Y-20314314D01*
X11502943Y-20328600D01*
X11517228Y-20342886D01*
X11531514Y-20371457D01*
X11545800Y-20428600D01*
X11545800Y-20500029D01*
X11531514Y-20557171D01*
X11517228Y-20585743D01*
X11502943Y-20600029D01*
X11474371Y-20614314D01*
X11445800Y-20614314D01*
X11417228Y-20600029D01*
X11402943Y-20585743D01*
X11388657Y-20557171D01*
X11374371Y-20500029D01*
X11374371Y-20428600D01*
X11388657Y-20371457D01*
X11402943Y-20342886D01*
X11417228Y-20328600D01*
X11445800Y-20314314D01*
X11674371Y-20585743D02*
X11688657Y-20600029D01*
X11674371Y-20614314D01*
X11660086Y-20600029D01*
X11674371Y-20585743D01*
X11674371Y-20614314D01*
X11974371Y-20614314D02*
X11802943Y-20614314D01*
X11888657Y-20614314D02*
X11888657Y-20314314D01*
X11860086Y-20357171D01*
X11831514Y-20385743D01*
X11802943Y-20400029D01*
X12260086Y-20614314D02*
X12088657Y-20614314D01*
X12174371Y-20614314D02*
X12174371Y-20314314D01*
X12145800Y-20357171D01*
X12117228Y-20385743D01*
X12088657Y-20400029D01*
X12517228Y-20414314D02*
X12517228Y-20614314D01*
X12445800Y-20300029D02*
X12374371Y-20514314D01*
X12560086Y-20514314D01*
X12660086Y-20314314D02*
X12660086Y-20371457D01*
X12774371Y-20314314D02*
X12774371Y-20371457D01*
X13217228Y-20728600D02*
X13202943Y-20714314D01*
X13174371Y-20671457D01*
X13160086Y-20642886D01*
X13145800Y-20600029D01*
X13131514Y-20528600D01*
X13131514Y-20471457D01*
X13145800Y-20400029D01*
X13160086Y-20357171D01*
X13174371Y-20328600D01*
X13202943Y-20285743D01*
X13217228Y-20271457D01*
X13317228Y-20342886D02*
X13331514Y-20328600D01*
X13360086Y-20314314D01*
X13431514Y-20314314D01*
X13460086Y-20328600D01*
X13474371Y-20342886D01*
X13488657Y-20371457D01*
X13488657Y-20400029D01*
X13474371Y-20442886D01*
X13302943Y-20614314D01*
X13488657Y-20614314D01*
X13845800Y-20614314D02*
X13845800Y-20314314D01*
X13974371Y-20614314D02*
X13974371Y-20457171D01*
X13960086Y-20428600D01*
X13931514Y-20414314D01*
X13888657Y-20414314D01*
X13860086Y-20428600D01*
X13845800Y-20442886D01*
X14160086Y-20614314D02*
X14131514Y-20600029D01*
X14117228Y-20585743D01*
X14102943Y-20557171D01*
X14102943Y-20471457D01*
X14117228Y-20442886D01*
X14131514Y-20428600D01*
X14160086Y-20414314D01*
X14202943Y-20414314D01*
X14231514Y-20428600D01*
X14245800Y-20442886D01*
X14260086Y-20471457D01*
X14260086Y-20557171D01*
X14245800Y-20585743D01*
X14231514Y-20600029D01*
X14202943Y-20614314D01*
X14160086Y-20614314D01*
X14431514Y-20614314D02*
X14402943Y-20600029D01*
X14388657Y-20571457D01*
X14388657Y-20314314D01*
X14660086Y-20600029D02*
X14631514Y-20614314D01*
X14574371Y-20614314D01*
X14545800Y-20600029D01*
X14531514Y-20571457D01*
X14531514Y-20457171D01*
X14545800Y-20428600D01*
X14574371Y-20414314D01*
X14631514Y-20414314D01*
X14660086Y-20428600D01*
X14674371Y-20457171D01*
X14674371Y-20485743D01*
X14531514Y-20514314D01*
X14788657Y-20600029D02*
X14817228Y-20614314D01*
X14874371Y-20614314D01*
X14902943Y-20600029D01*
X14917228Y-20571457D01*
X14917228Y-20557171D01*
X14902943Y-20528600D01*
X14874371Y-20514314D01*
X14831514Y-20514314D01*
X14802943Y-20500029D01*
X14788657Y-20471457D01*
X14788657Y-20457171D01*
X14802943Y-20428600D01*
X14831514Y-20414314D01*
X14874371Y-20414314D01*
X14902943Y-20428600D01*
X15017228Y-20728600D02*
X15031514Y-20714314D01*
X15060086Y-20671457D01*
X15074371Y-20642886D01*
X15088657Y-20600029D01*
X15102943Y-20528600D01*
X15102943Y-20471457D01*
X15088657Y-20400029D01*
X15074371Y-20357171D01*
X15060086Y-20328600D01*
X15031514Y-20285743D01*
X15017228Y-20271457D01*
M02*
