G04 #@! TF.GenerationSoftware,KiCad,Pcbnew,(5.1.9)-1*
G04 #@! TF.CreationDate,2021-07-06T21:26:52+02:00*
G04 #@! TF.ProjectId,const_curr_measure,636f6e73-745f-4637-9572-725f6d656173,rev?*
G04 #@! TF.SameCoordinates,Original*
G04 #@! TF.FileFunction,Soldermask,Top*
G04 #@! TF.FilePolarity,Negative*
%FSLAX46Y46*%
G04 Gerber Fmt 4.6, Leading zero omitted, Abs format (unit mm)*
G04 Created by KiCad (PCBNEW (5.1.9)-1) date 2021-07-06 21:26:52*
%MOMM*%
%LPD*%
G01*
G04 APERTURE LIST*
%ADD10O,1.700000X1.700000*%
%ADD11R,1.700000X1.700000*%
%ADD12O,1.600000X2.400000*%
%ADD13R,1.600000X2.400000*%
%ADD14C,2.500000*%
%ADD15O,2.400000X1.600000*%
%ADD16R,2.400000X1.600000*%
%ADD17C,1.620000*%
%ADD18C,1.600000*%
%ADD19O,1.600000X1.600000*%
%ADD20O,1.800000X1.800000*%
%ADD21R,1.800000X1.800000*%
%ADD22R,1.600000X1.600000*%
%ADD23C,2.745000*%
%ADD24C,1.950000*%
%ADD25C,2.055000*%
%ADD26C,4.100000*%
%ADD27C,1.130000*%
%ADD28R,1.130000X1.130000*%
G04 APERTURE END LIST*
D10*
X226746000Y-137084000D03*
X226746000Y-134544000D03*
X226746000Y-132004000D03*
X226746000Y-129464000D03*
D11*
X226746000Y-126924000D03*
D10*
X107112000Y-95428000D03*
X107112000Y-97968000D03*
D11*
X107112000Y-100508000D03*
D10*
X107112000Y-60376000D03*
X107112000Y-62916000D03*
X107112000Y-65456000D03*
X107112000Y-67996000D03*
X107112000Y-70536000D03*
X107112000Y-73076000D03*
X107112000Y-75616000D03*
X107112000Y-78156000D03*
X107112000Y-80696000D03*
X107112000Y-83236000D03*
X107112000Y-85776000D03*
D11*
X107112000Y-88316000D03*
D12*
X169088000Y-100254000D03*
X161468000Y-92634000D03*
X166548000Y-100254000D03*
X164008000Y-92634000D03*
X164008000Y-100254000D03*
X166548000Y-92634000D03*
X161468000Y-100254000D03*
D13*
X169088000Y-92634000D03*
D14*
X126416000Y-114732000D03*
X121336000Y-81712000D03*
X121336000Y-72314000D03*
X117018000Y-67234000D03*
X117018000Y-77140000D03*
X117018000Y-86792000D03*
X121336000Y-62662000D03*
X117018000Y-96952000D03*
X121336000Y-100254000D03*
X121336000Y-91872000D03*
D12*
X133782000Y-110414000D03*
X141402000Y-118034000D03*
X136322000Y-110414000D03*
X138862000Y-118034000D03*
X138862000Y-110414000D03*
X136322000Y-118034000D03*
X141402000Y-110414000D03*
D13*
X133782000Y-118034000D03*
D15*
X122606000Y-112954000D03*
X114986000Y-120574000D03*
X122606000Y-115494000D03*
X114986000Y-118034000D03*
X122606000Y-118034000D03*
X114986000Y-115494000D03*
X122606000Y-120574000D03*
D16*
X114986000Y-112954000D03*
D17*
X125400000Y-125400000D03*
X130400000Y-122900000D03*
X125400000Y-120400000D03*
D18*
X130480000Y-116938000D03*
X130480000Y-111938000D03*
X116336000Y-109398000D03*
X121336000Y-109398000D03*
D14*
X148514000Y-83744000D03*
D19*
X148514000Y-98476000D03*
D18*
X148514000Y-88316000D03*
D19*
X154610000Y-67488000D03*
D18*
X154610000Y-57328000D03*
D19*
X161468000Y-69266000D03*
D18*
X161468000Y-59106000D03*
D19*
X145212000Y-109906000D03*
D18*
X145212000Y-99746000D03*
D20*
X118288000Y-143434000D03*
D21*
X128448000Y-143434000D03*
D20*
X144450000Y-112954000D03*
D21*
X154610000Y-112954000D03*
D20*
X154610000Y-120066000D03*
D21*
X144450000Y-120066000D03*
D20*
X144450000Y-116510000D03*
D21*
X154610000Y-116510000D03*
D19*
X141656000Y-99492000D03*
X126416000Y-99492000D03*
X141656000Y-63932000D03*
X126416000Y-96952000D03*
X141656000Y-66472000D03*
X126416000Y-94412000D03*
X141656000Y-69012000D03*
X126416000Y-91872000D03*
X141656000Y-71552000D03*
X126416000Y-89332000D03*
X141656000Y-74092000D03*
X126416000Y-86792000D03*
X141656000Y-76632000D03*
X126416000Y-84252000D03*
X141656000Y-79172000D03*
X126416000Y-81712000D03*
X141656000Y-81712000D03*
X126416000Y-79172000D03*
X141656000Y-84252000D03*
X126416000Y-76632000D03*
X141656000Y-86792000D03*
X126416000Y-74092000D03*
X141656000Y-89332000D03*
X126416000Y-71552000D03*
X141656000Y-91872000D03*
X126416000Y-69012000D03*
X141656000Y-94412000D03*
X126416000Y-66472000D03*
X141656000Y-96952000D03*
D22*
X126416000Y-63932000D03*
D23*
X228778000Y-91110000D03*
X223698000Y-91110000D03*
D19*
X214046000Y-140132000D03*
D18*
X203886000Y-140132000D03*
D19*
X201854000Y-92634000D03*
D18*
X201854000Y-102794000D03*
X173660000Y-135480000D03*
X173660000Y-130480000D03*
X178058000Y-123114000D03*
X183058000Y-123114000D03*
X172898000Y-86110000D03*
X172898000Y-91110000D03*
D23*
X199568000Y-134036000D03*
X199568000Y-139116000D03*
D14*
X201092000Y-75870000D03*
D18*
X145640000Y-123622000D03*
X140640000Y-123622000D03*
D10*
X168072000Y-63424000D03*
X168072000Y-60884000D03*
D11*
X168072000Y-58344000D03*
D24*
X212268000Y-72822000D03*
X206268000Y-70822000D03*
X206268000Y-58622000D03*
X218268000Y-58622000D03*
X218268000Y-70822000D03*
X212268000Y-92126000D03*
X206268000Y-90126000D03*
X206268000Y-77926000D03*
X218268000Y-77926000D03*
X218268000Y-90126000D03*
X212268000Y-111430000D03*
X206268000Y-109430000D03*
X206268000Y-97230000D03*
X218268000Y-97230000D03*
X218268000Y-109430000D03*
D14*
X200838000Y-71552000D03*
X195758000Y-82982000D03*
X222936000Y-82982000D03*
X197282000Y-87808000D03*
X212268000Y-136068000D03*
X172898000Y-126670000D03*
X229794000Y-82982000D03*
X200584000Y-64440000D03*
X200584000Y-60376000D03*
X190678000Y-82982000D03*
X167056000Y-78664000D03*
X167056000Y-73584000D03*
X184582000Y-60376000D03*
X166802000Y-68504000D03*
X135814000Y-146990000D03*
X153340000Y-126416000D03*
X135306000Y-141656000D03*
X196520000Y-146482000D03*
X188392000Y-129210000D03*
X131750000Y-137084000D03*
X154610000Y-137338000D03*
X133782000Y-127178000D03*
X187630000Y-123114000D03*
X177978000Y-148260000D03*
X131750000Y-131750000D03*
X165913000Y-87808000D03*
D17*
X156667400Y-143789600D03*
X159167400Y-148789600D03*
X161667400Y-143789600D03*
X154356000Y-148768000D03*
X151856000Y-143768000D03*
X149356000Y-148768000D03*
X108636000Y-145974000D03*
X106136000Y-140974000D03*
X103636000Y-145974000D03*
X187884000Y-140132000D03*
X190384000Y-145132000D03*
X192884000Y-140132000D03*
X192964000Y-132766000D03*
X187964000Y-135266000D03*
X192964000Y-137766000D03*
X103556000Y-121844000D03*
X106056000Y-126844000D03*
X108556000Y-121844000D03*
D18*
X173406000Y-148688000D03*
X173406000Y-143688000D03*
D16*
X189408000Y-60630000D03*
D15*
X197028000Y-78410000D03*
X189408000Y-63170000D03*
X197028000Y-75870000D03*
X189408000Y-65710000D03*
X197028000Y-73330000D03*
X189408000Y-68250000D03*
X197028000Y-70790000D03*
X189408000Y-70790000D03*
X197028000Y-68250000D03*
X189408000Y-73330000D03*
X197028000Y-65710000D03*
X189408000Y-75870000D03*
X197028000Y-63170000D03*
X189408000Y-78410000D03*
X197028000Y-60630000D03*
D23*
X228778000Y-108382000D03*
X223698000Y-108382000D03*
X228778000Y-99746000D03*
X223698000Y-99746000D03*
D25*
X109906000Y-130734000D03*
X104826000Y-130734000D03*
X109906000Y-137084000D03*
X104826000Y-137084000D03*
D26*
X244983200Y-58699600D03*
X244983200Y-147599600D03*
D14*
X239903200Y-142519600D03*
X234823200Y-137439600D03*
X239903200Y-132359600D03*
X234823200Y-127279600D03*
X239903200Y-122199600D03*
X234823200Y-117119600D03*
X239903200Y-112039600D03*
X234823200Y-106959600D03*
X239903200Y-101879600D03*
X234823200Y-96799600D03*
X239903200Y-91719600D03*
X234823200Y-86639600D03*
X239903200Y-81559600D03*
X234823200Y-76479600D03*
X239903200Y-71399600D03*
D23*
X228778000Y-58598000D03*
X223698000Y-58598000D03*
D27*
X184390000Y-126670000D03*
X184390000Y-129210000D03*
X184390000Y-131750000D03*
X184390000Y-134290000D03*
X184390000Y-136830000D03*
X184390000Y-139370000D03*
X184390000Y-141910000D03*
X184390000Y-144450000D03*
X176646000Y-144450000D03*
X176646000Y-141910000D03*
X176646000Y-139370000D03*
X176646000Y-136830000D03*
X176646000Y-134290000D03*
X176646000Y-131750000D03*
X176646000Y-129210000D03*
D28*
X176646000Y-126670000D03*
D23*
X228778000Y-74600000D03*
X223698000Y-74600000D03*
X228778000Y-66472000D03*
X223698000Y-66472000D03*
D24*
X212268000Y-130734000D03*
X206268000Y-128734000D03*
X206268000Y-116534000D03*
X218268000Y-116534000D03*
X218268000Y-128734000D03*
D25*
X190170000Y-109652000D03*
X190170000Y-114732000D03*
X199568000Y-122860000D03*
X199568000Y-127940000D03*
D19*
X166040000Y-148768000D03*
D18*
X166040000Y-138608000D03*
D19*
X169342000Y-138608000D03*
D18*
X169342000Y-148768000D03*
D19*
X123876000Y-131750000D03*
D18*
X113716000Y-131750000D03*
D19*
X123876000Y-136322000D03*
D18*
X113716000Y-136322000D03*
D19*
X175692000Y-117780000D03*
D18*
X175692000Y-107620000D03*
X177978000Y-57582000D03*
X172978000Y-57582000D03*
X172898000Y-98904000D03*
X172898000Y-93904000D03*
X145386000Y-146228000D03*
X140386000Y-146228000D03*
D16*
X171628000Y-60884000D03*
D15*
X179248000Y-78664000D03*
X171628000Y-63424000D03*
X179248000Y-76124000D03*
X171628000Y-65964000D03*
X179248000Y-73584000D03*
X171628000Y-68504000D03*
X179248000Y-71044000D03*
X171628000Y-71044000D03*
X179248000Y-68504000D03*
X171628000Y-73584000D03*
X179248000Y-65964000D03*
X171628000Y-76124000D03*
X179248000Y-63424000D03*
X171628000Y-78664000D03*
X179248000Y-60884000D03*
X146482000Y-127178000D03*
X138862000Y-142418000D03*
X146482000Y-129718000D03*
X138862000Y-139878000D03*
X146482000Y-132258000D03*
X138862000Y-137338000D03*
X146482000Y-134798000D03*
X138862000Y-134798000D03*
X146482000Y-137338000D03*
X138862000Y-132258000D03*
X146482000Y-139878000D03*
X138862000Y-129718000D03*
X146482000Y-142418000D03*
D16*
X138862000Y-127178000D03*
D19*
X113716000Y-139878000D03*
D18*
X123876000Y-139878000D03*
D19*
X185598000Y-107620000D03*
D18*
X185598000Y-117780000D03*
D19*
X113716000Y-128448000D03*
D18*
X123876000Y-128448000D03*
D10*
X179248000Y-115240000D03*
X181788000Y-115240000D03*
X179248000Y-117780000D03*
D11*
X181788000Y-117780000D03*
M02*
