G04 #@! TF.GenerationSoftware,KiCad,Pcbnew,(5.1.9)-1*
G04 #@! TF.CreationDate,2021-07-06T19:46:52+02:00*
G04 #@! TF.ProjectId,const_curr_measure,636f6e73-745f-4637-9572-725f6d656173,rev?*
G04 #@! TF.SameCoordinates,Original*
G04 #@! TF.FileFunction,Copper,L1,Top*
G04 #@! TF.FilePolarity,Positive*
%FSLAX46Y46*%
G04 Gerber Fmt 4.6, Leading zero omitted, Abs format (unit mm)*
G04 Created by KiCad (PCBNEW (5.1.9)-1) date 2021-07-06 19:46:52*
%MOMM*%
%LPD*%
G01*
G04 APERTURE LIST*
G04 #@! TA.AperFunction,ComponentPad*
%ADD10O,1.600000X2.400000*%
G04 #@! TD*
G04 #@! TA.AperFunction,ComponentPad*
%ADD11R,1.600000X2.400000*%
G04 #@! TD*
G04 #@! TA.AperFunction,ComponentPad*
%ADD12C,2.500000*%
G04 #@! TD*
G04 #@! TA.AperFunction,ComponentPad*
%ADD13O,1.700000X1.700000*%
G04 #@! TD*
G04 #@! TA.AperFunction,ComponentPad*
%ADD14R,1.700000X1.700000*%
G04 #@! TD*
G04 #@! TA.AperFunction,ComponentPad*
%ADD15O,2.400000X1.600000*%
G04 #@! TD*
G04 #@! TA.AperFunction,ComponentPad*
%ADD16R,2.400000X1.600000*%
G04 #@! TD*
G04 #@! TA.AperFunction,ComponentPad*
%ADD17C,1.620000*%
G04 #@! TD*
G04 #@! TA.AperFunction,ComponentPad*
%ADD18C,1.600000*%
G04 #@! TD*
G04 #@! TA.AperFunction,ComponentPad*
%ADD19O,1.600000X1.600000*%
G04 #@! TD*
G04 #@! TA.AperFunction,ComponentPad*
%ADD20O,1.800000X1.800000*%
G04 #@! TD*
G04 #@! TA.AperFunction,ComponentPad*
%ADD21R,1.800000X1.800000*%
G04 #@! TD*
G04 #@! TA.AperFunction,ComponentPad*
%ADD22R,1.600000X1.600000*%
G04 #@! TD*
G04 #@! TA.AperFunction,ComponentPad*
%ADD23C,2.745000*%
G04 #@! TD*
G04 #@! TA.AperFunction,ComponentPad*
%ADD24C,1.950000*%
G04 #@! TD*
G04 #@! TA.AperFunction,ComponentPad*
%ADD25C,2.055000*%
G04 #@! TD*
G04 #@! TA.AperFunction,ComponentPad*
%ADD26C,4.100000*%
G04 #@! TD*
G04 #@! TA.AperFunction,ComponentPad*
%ADD27C,1.130000*%
G04 #@! TD*
G04 #@! TA.AperFunction,ComponentPad*
%ADD28R,1.130000X1.130000*%
G04 #@! TD*
G04 #@! TA.AperFunction,ViaPad*
%ADD29C,0.600000*%
G04 #@! TD*
G04 #@! TA.AperFunction,Conductor*
%ADD30C,3.000000*%
G04 #@! TD*
G04 #@! TA.AperFunction,Conductor*
%ADD31C,0.500000*%
G04 #@! TD*
G04 #@! TA.AperFunction,Conductor*
%ADD32C,1.000000*%
G04 #@! TD*
G04 #@! TA.AperFunction,Conductor*
%ADD33C,0.254000*%
G04 #@! TD*
G04 #@! TA.AperFunction,Conductor*
%ADD34C,0.100000*%
G04 #@! TD*
G04 APERTURE END LIST*
D10*
X169088000Y-100254000D03*
X161468000Y-92634000D03*
X166548000Y-100254000D03*
X164008000Y-92634000D03*
X164008000Y-100254000D03*
X166548000Y-92634000D03*
X161468000Y-100254000D03*
D11*
X169088000Y-92634000D03*
D12*
X126416000Y-114732000D03*
X121336000Y-81712000D03*
X121336000Y-72314000D03*
X117018000Y-67234000D03*
X117018000Y-77140000D03*
X117018000Y-86792000D03*
X121336000Y-62662000D03*
X117018000Y-96952000D03*
X121336000Y-100254000D03*
X121336000Y-91872000D03*
D13*
X107112000Y-79172000D03*
X107112000Y-81712000D03*
X107112000Y-84252000D03*
D14*
X107112000Y-86792000D03*
D13*
X107112000Y-92126000D03*
X107112000Y-94666000D03*
D14*
X107112000Y-97206000D03*
D13*
X107112000Y-74600000D03*
X107112000Y-72060000D03*
X107112000Y-69520000D03*
X107112000Y-66980000D03*
X107112000Y-64440000D03*
D14*
X107112000Y-61900000D03*
D10*
X133782000Y-110414000D03*
X141402000Y-118034000D03*
X136322000Y-110414000D03*
X138862000Y-118034000D03*
X138862000Y-110414000D03*
X136322000Y-118034000D03*
X141402000Y-110414000D03*
D11*
X133782000Y-118034000D03*
D15*
X122606000Y-112954000D03*
X114986000Y-120574000D03*
X122606000Y-115494000D03*
X114986000Y-118034000D03*
X122606000Y-118034000D03*
X114986000Y-115494000D03*
X122606000Y-120574000D03*
D16*
X114986000Y-112954000D03*
D17*
X125400000Y-125400000D03*
X130400000Y-122900000D03*
X125400000Y-120400000D03*
D18*
X130480000Y-116938000D03*
X130480000Y-111938000D03*
X116336000Y-109398000D03*
X121336000Y-109398000D03*
D12*
X148514000Y-83744000D03*
D19*
X148514000Y-98476000D03*
D18*
X148514000Y-88316000D03*
D19*
X154610000Y-67488000D03*
D18*
X154610000Y-57328000D03*
D19*
X161468000Y-69266000D03*
D18*
X161468000Y-59106000D03*
D19*
X145212000Y-109906000D03*
D18*
X145212000Y-99746000D03*
D20*
X118288000Y-143434000D03*
D21*
X128448000Y-143434000D03*
D20*
X144450000Y-112954000D03*
D21*
X154610000Y-112954000D03*
D20*
X154610000Y-120066000D03*
D21*
X144450000Y-120066000D03*
D20*
X144450000Y-116510000D03*
D21*
X154610000Y-116510000D03*
D19*
X141656000Y-99492000D03*
X126416000Y-99492000D03*
X141656000Y-63932000D03*
X126416000Y-96952000D03*
X141656000Y-66472000D03*
X126416000Y-94412000D03*
X141656000Y-69012000D03*
X126416000Y-91872000D03*
X141656000Y-71552000D03*
X126416000Y-89332000D03*
X141656000Y-74092000D03*
X126416000Y-86792000D03*
X141656000Y-76632000D03*
X126416000Y-84252000D03*
X141656000Y-79172000D03*
X126416000Y-81712000D03*
X141656000Y-81712000D03*
X126416000Y-79172000D03*
X141656000Y-84252000D03*
X126416000Y-76632000D03*
X141656000Y-86792000D03*
X126416000Y-74092000D03*
X141656000Y-89332000D03*
X126416000Y-71552000D03*
X141656000Y-91872000D03*
X126416000Y-69012000D03*
X141656000Y-94412000D03*
X126416000Y-66472000D03*
X141656000Y-96952000D03*
D22*
X126416000Y-63932000D03*
D23*
X228778000Y-91110000D03*
X223698000Y-91110000D03*
D19*
X214046000Y-140132000D03*
D18*
X203886000Y-140132000D03*
D19*
X201854000Y-92634000D03*
D18*
X201854000Y-102794000D03*
X173660000Y-135480000D03*
X173660000Y-130480000D03*
X178058000Y-123114000D03*
X183058000Y-123114000D03*
X172898000Y-86110000D03*
X172898000Y-91110000D03*
D23*
X199568000Y-134036000D03*
X199568000Y-139116000D03*
D12*
X201092000Y-75870000D03*
D18*
X145640000Y-123622000D03*
X140640000Y-123622000D03*
D13*
X168072000Y-63424000D03*
X168072000Y-60884000D03*
D14*
X168072000Y-58344000D03*
D24*
X212268000Y-72822000D03*
X206268000Y-70822000D03*
X206268000Y-58622000D03*
X218268000Y-58622000D03*
X218268000Y-70822000D03*
X212268000Y-92126000D03*
X206268000Y-90126000D03*
X206268000Y-77926000D03*
X218268000Y-77926000D03*
X218268000Y-90126000D03*
X212268000Y-111430000D03*
X206268000Y-109430000D03*
X206268000Y-97230000D03*
X218268000Y-97230000D03*
X218268000Y-109430000D03*
D12*
X200838000Y-71552000D03*
X195758000Y-82982000D03*
X222936000Y-82982000D03*
X197282000Y-87808000D03*
X212268000Y-136068000D03*
X172898000Y-126670000D03*
X229794000Y-82982000D03*
X200584000Y-64440000D03*
X200584000Y-60376000D03*
X190678000Y-82982000D03*
X167056000Y-78664000D03*
X167056000Y-73584000D03*
X184582000Y-60376000D03*
X166802000Y-68504000D03*
X135814000Y-146990000D03*
X153340000Y-126416000D03*
X135306000Y-141656000D03*
X196520000Y-146482000D03*
X188392000Y-129210000D03*
X131750000Y-137084000D03*
X154610000Y-137338000D03*
X133782000Y-127178000D03*
X187630000Y-123114000D03*
X177978000Y-148260000D03*
X131750000Y-131750000D03*
X165913000Y-87808000D03*
D17*
X156667400Y-143789600D03*
X159167400Y-148789600D03*
X161667400Y-143789600D03*
X154356000Y-148768000D03*
X151856000Y-143768000D03*
X149356000Y-148768000D03*
X108636000Y-145974000D03*
X106136000Y-140974000D03*
X103636000Y-145974000D03*
X187884000Y-140132000D03*
X190384000Y-145132000D03*
X192884000Y-140132000D03*
X192964000Y-132766000D03*
X187964000Y-135266000D03*
X192964000Y-137766000D03*
X103556000Y-121844000D03*
X106056000Y-126844000D03*
X108556000Y-121844000D03*
D18*
X173406000Y-148688000D03*
X173406000Y-143688000D03*
D16*
X189408000Y-60630000D03*
D15*
X197028000Y-78410000D03*
X189408000Y-63170000D03*
X197028000Y-75870000D03*
X189408000Y-65710000D03*
X197028000Y-73330000D03*
X189408000Y-68250000D03*
X197028000Y-70790000D03*
X189408000Y-70790000D03*
X197028000Y-68250000D03*
X189408000Y-73330000D03*
X197028000Y-65710000D03*
X189408000Y-75870000D03*
X197028000Y-63170000D03*
X189408000Y-78410000D03*
X197028000Y-60630000D03*
D23*
X228778000Y-108382000D03*
X223698000Y-108382000D03*
X228778000Y-99746000D03*
X223698000Y-99746000D03*
D25*
X109906000Y-130734000D03*
X104826000Y-130734000D03*
X109906000Y-137084000D03*
X104826000Y-137084000D03*
D26*
X244983200Y-58699600D03*
X244983200Y-147599600D03*
D12*
X239903200Y-142519600D03*
X234823200Y-137439600D03*
X239903200Y-132359600D03*
X234823200Y-127279600D03*
X239903200Y-122199600D03*
X234823200Y-117119600D03*
X239903200Y-112039600D03*
X234823200Y-106959600D03*
X239903200Y-101879600D03*
X234823200Y-96799600D03*
X239903200Y-91719600D03*
X234823200Y-86639600D03*
X239903200Y-81559600D03*
X234823200Y-76479600D03*
X239903200Y-71399600D03*
D23*
X228778000Y-58598000D03*
X223698000Y-58598000D03*
D27*
X184390000Y-126670000D03*
X184390000Y-129210000D03*
X184390000Y-131750000D03*
X184390000Y-134290000D03*
X184390000Y-136830000D03*
X184390000Y-139370000D03*
X184390000Y-141910000D03*
X184390000Y-144450000D03*
X176646000Y-144450000D03*
X176646000Y-141910000D03*
X176646000Y-139370000D03*
X176646000Y-136830000D03*
X176646000Y-134290000D03*
X176646000Y-131750000D03*
X176646000Y-129210000D03*
D28*
X176646000Y-126670000D03*
D23*
X228778000Y-74600000D03*
X223698000Y-74600000D03*
X228778000Y-66472000D03*
X223698000Y-66472000D03*
D24*
X212268000Y-130734000D03*
X206268000Y-128734000D03*
X206268000Y-116534000D03*
X218268000Y-116534000D03*
X218268000Y-128734000D03*
D25*
X190170000Y-109652000D03*
X190170000Y-114732000D03*
X199568000Y-122860000D03*
X199568000Y-127940000D03*
D19*
X166040000Y-148768000D03*
D18*
X166040000Y-138608000D03*
D19*
X169342000Y-138608000D03*
D18*
X169342000Y-148768000D03*
D19*
X123876000Y-131750000D03*
D18*
X113716000Y-131750000D03*
D19*
X123876000Y-136322000D03*
D18*
X113716000Y-136322000D03*
D19*
X175692000Y-117780000D03*
D18*
X175692000Y-107620000D03*
X177978000Y-57582000D03*
X172978000Y-57582000D03*
X172898000Y-98904000D03*
X172898000Y-93904000D03*
X145386000Y-146228000D03*
X140386000Y-146228000D03*
D16*
X171628000Y-60884000D03*
D15*
X179248000Y-78664000D03*
X171628000Y-63424000D03*
X179248000Y-76124000D03*
X171628000Y-65964000D03*
X179248000Y-73584000D03*
X171628000Y-68504000D03*
X179248000Y-71044000D03*
X171628000Y-71044000D03*
X179248000Y-68504000D03*
X171628000Y-73584000D03*
X179248000Y-65964000D03*
X171628000Y-76124000D03*
X179248000Y-63424000D03*
X171628000Y-78664000D03*
X179248000Y-60884000D03*
X146482000Y-127178000D03*
X138862000Y-142418000D03*
X146482000Y-129718000D03*
X138862000Y-139878000D03*
X146482000Y-132258000D03*
X138862000Y-137338000D03*
X146482000Y-134798000D03*
X138862000Y-134798000D03*
X146482000Y-137338000D03*
X138862000Y-132258000D03*
X146482000Y-139878000D03*
X138862000Y-129718000D03*
X146482000Y-142418000D03*
D16*
X138862000Y-127178000D03*
D19*
X113716000Y-139878000D03*
D18*
X123876000Y-139878000D03*
D19*
X185598000Y-107620000D03*
D18*
X185598000Y-117780000D03*
D19*
X113716000Y-128448000D03*
D18*
X123876000Y-128448000D03*
D13*
X179248000Y-115240000D03*
X181788000Y-115240000D03*
X179248000Y-117780000D03*
D14*
X181788000Y-117780000D03*
D29*
X231064000Y-115494000D03*
X243256000Y-109906000D03*
X180772000Y-86284000D03*
X178379999Y-88558001D03*
X148768000Y-135814000D03*
X152578000Y-135814000D03*
X154102000Y-134544000D03*
X156007000Y-134163000D03*
X157785000Y-132385000D03*
X159817000Y-130353000D03*
X161976000Y-128194000D03*
X164135000Y-126035000D03*
X166548000Y-123622000D03*
X167818000Y-121590000D03*
X167818000Y-119558000D03*
X167818000Y-116002000D03*
X167818000Y-113716000D03*
X167818000Y-110668000D03*
X167818000Y-108382000D03*
X167818000Y-105588000D03*
X167818000Y-102794000D03*
X166929000Y-101143000D03*
X148768000Y-138288010D03*
X152004010Y-138288010D03*
X154691999Y-139288001D03*
X157658000Y-137084000D03*
X159817000Y-134163000D03*
X161468000Y-132512000D03*
X164262000Y-129718000D03*
X166421000Y-127559000D03*
X168834000Y-125146000D03*
X170612000Y-122352000D03*
X170612000Y-119812000D03*
X170612000Y-116002000D03*
X170612000Y-113716000D03*
X170612000Y-110668000D03*
X170612000Y-108382000D03*
X170612000Y-105588000D03*
X170612000Y-102794000D03*
X168466676Y-98353990D03*
X170588010Y-99232676D03*
X143688000Y-104826000D03*
X187884000Y-126162000D03*
X191694000Y-126162000D03*
X187122000Y-119812000D03*
X191948000Y-119812000D03*
X203378000Y-98476000D03*
X201092000Y-96444000D03*
X202870000Y-99238000D03*
X192964000Y-86792000D03*
X203886000Y-92380000D03*
X203632000Y-65710000D03*
X203632000Y-68758000D03*
X215189000Y-82855000D03*
X175418010Y-69754010D03*
X142672000Y-102286000D03*
X160960000Y-95682000D03*
X160960000Y-95682000D03*
X149022000Y-95682000D03*
X131242000Y-91872000D03*
X217856000Y-80950000D03*
X219634000Y-106858000D03*
X221666000Y-104064000D03*
X206705499Y-106883499D03*
X118542000Y-74600000D03*
X114478000Y-78156000D03*
X114478000Y-78156000D03*
X160950229Y-94656229D03*
X156642000Y-88316000D03*
X138862000Y-92888000D03*
D30*
X223698000Y-108382000D02*
X228778000Y-108382000D01*
X228778000Y-108382000D02*
X234620000Y-114224000D01*
X234620000Y-116916400D02*
X234823200Y-117119600D01*
X234620000Y-114224000D02*
X234620000Y-116916400D01*
D31*
X185405001Y-142925001D02*
X184390000Y-141910000D01*
X184877201Y-145465001D02*
X185405001Y-144937201D01*
X185405001Y-144937201D02*
X185405001Y-142925001D01*
X183902799Y-145465001D02*
X184877201Y-145465001D01*
X179248000Y-117780000D02*
X175692000Y-117780000D01*
X179308001Y-117840001D02*
X179308001Y-122412001D01*
X179248000Y-117780000D02*
X179308001Y-117840001D01*
X179416899Y-122520899D02*
X179416899Y-140979101D01*
X179308001Y-122412001D02*
X179416899Y-122520899D01*
X179416899Y-140979101D02*
X183902799Y-145465001D01*
X179248000Y-140810202D02*
X179416899Y-140979101D01*
X181788000Y-141848000D02*
X184390000Y-144450000D01*
X185598000Y-117780000D02*
X181788000Y-117780000D01*
X181788000Y-141848000D02*
X181788000Y-117780000D01*
D30*
X227508000Y-99746000D02*
X223698000Y-99746000D01*
X230048000Y-97206000D02*
X227508000Y-99746000D01*
X228778000Y-99746000D02*
X223952000Y-99746000D01*
X229032000Y-94666000D02*
X229032000Y-90094000D01*
X228016000Y-91110000D02*
X223698000Y-91110000D01*
X229032000Y-90094000D02*
X228016000Y-91110000D01*
X223952000Y-99746000D02*
X229032000Y-94666000D01*
D31*
X107112000Y-67234000D02*
X107112000Y-66980000D01*
X117018000Y-77140000D02*
X107112000Y-67234000D01*
X167908397Y-145049601D02*
X153137601Y-145049601D01*
X153137601Y-145049601D02*
X151856000Y-143768000D01*
X169269998Y-143688000D02*
X167908397Y-145049601D01*
X173406000Y-143688000D02*
X169269998Y-143688000D01*
D30*
X223698000Y-60884000D02*
X223698000Y-58598000D01*
X223698000Y-56820000D02*
X223698000Y-58598000D01*
X223698000Y-58598000D02*
X222936000Y-58598000D01*
X222936000Y-58598000D02*
X228778000Y-58598000D01*
X230048000Y-59868000D02*
X228778000Y-58598000D01*
X230048000Y-60376000D02*
X230048000Y-59868000D01*
X228778000Y-58598000D02*
X228778000Y-56820000D01*
X228778000Y-56820000D02*
X230048000Y-58090000D01*
X230048000Y-58090000D02*
X230048000Y-58344000D01*
X230048000Y-58344000D02*
X228016000Y-60376000D01*
D32*
X211760000Y-72314000D02*
X212268000Y-72822000D01*
X211760000Y-71552000D02*
X211760000Y-72314000D01*
X213538000Y-72060000D02*
X213538000Y-72966214D01*
X213030000Y-72060000D02*
X212268000Y-72822000D01*
X213538000Y-72060000D02*
X213030000Y-72060000D01*
X212014000Y-72822000D02*
X212268000Y-72822000D01*
D30*
X212268000Y-72822000D02*
X212268000Y-71806000D01*
X223698000Y-66472000D02*
X228778000Y-66472000D01*
X228778000Y-66472000D02*
X233604000Y-71298000D01*
X239801600Y-71298000D02*
X239903200Y-71399600D01*
X233604000Y-71298000D02*
X239801600Y-71298000D01*
X211689497Y-77926000D02*
X206268000Y-77926000D01*
X208943001Y-75250999D02*
X206268000Y-77926000D01*
X208943001Y-61297001D02*
X208943001Y-75250999D01*
X206268000Y-58622000D02*
X208943001Y-61297001D01*
X209592999Y-93905001D02*
X206268000Y-97230000D01*
X209592999Y-81250999D02*
X209592999Y-93905001D01*
X206268000Y-77926000D02*
X209592999Y-81250999D01*
X208943001Y-113858999D02*
X206268000Y-116534000D01*
X208943001Y-99905001D02*
X208943001Y-113858999D01*
X206268000Y-97230000D02*
X208943001Y-99905001D01*
X228778000Y-74600000D02*
X228778000Y-76378000D01*
X223698000Y-74600000D02*
X223698000Y-76378000D01*
X228778000Y-74600000D02*
X221666000Y-74600000D01*
X221666000Y-74600000D02*
X221920000Y-74346000D01*
D33*
X233223000Y-63805000D02*
X223190000Y-63805000D01*
X223165224Y-63807440D01*
X223141399Y-63814667D01*
X223119443Y-63826403D01*
X223100197Y-63842197D01*
X217576699Y-69365695D01*
X217505379Y-69395237D01*
X217241685Y-69571431D01*
X217017431Y-69795685D01*
X216841237Y-70059379D01*
X216811695Y-70130699D01*
X213865353Y-73077041D01*
X213865883Y-73075010D01*
X213884540Y-72758416D01*
X213841074Y-72444267D01*
X213737156Y-72144633D01*
X213647429Y-71976766D01*
X213385584Y-71884021D01*
X212447605Y-72822000D01*
X212461748Y-72836143D01*
X212282143Y-73015748D01*
X212268000Y-73001605D01*
X212253858Y-73015748D01*
X212074253Y-72836143D01*
X212088395Y-72822000D01*
X212074253Y-72807858D01*
X212253858Y-72628253D01*
X212268000Y-72642395D01*
X213205979Y-71704416D01*
X213113234Y-71442571D01*
X212827880Y-71304180D01*
X212521010Y-71224117D01*
X212204416Y-71205460D01*
X211890267Y-71248926D01*
X211590633Y-71352844D01*
X211422766Y-71442571D01*
X211379000Y-71566135D01*
X211379000Y-66009830D01*
X216856972Y-59408171D01*
X217017431Y-59648315D01*
X217241685Y-59872569D01*
X217505379Y-60048763D01*
X217798380Y-60170129D01*
X218109429Y-60232000D01*
X218426571Y-60232000D01*
X218737620Y-60170129D01*
X219030621Y-60048763D01*
X219105301Y-59998863D01*
X222476742Y-59998863D01*
X222617409Y-60301371D01*
X222970484Y-60479453D01*
X223351516Y-60585233D01*
X223745864Y-60614644D01*
X224138372Y-60566557D01*
X224513957Y-60442820D01*
X224778591Y-60301371D01*
X224919258Y-59998863D01*
X227556742Y-59998863D01*
X227697409Y-60301371D01*
X228050484Y-60479453D01*
X228431516Y-60585233D01*
X228825864Y-60614644D01*
X229218372Y-60566557D01*
X229593957Y-60442820D01*
X229858591Y-60301371D01*
X229999258Y-59998863D01*
X228778000Y-58777605D01*
X227556742Y-59998863D01*
X224919258Y-59998863D01*
X223698000Y-58777605D01*
X222476742Y-59998863D01*
X219105301Y-59998863D01*
X219294315Y-59872569D01*
X219518569Y-59648315D01*
X219694763Y-59384621D01*
X219816129Y-59091620D01*
X219878000Y-58780571D01*
X219878000Y-58645864D01*
X221681356Y-58645864D01*
X221729443Y-59038372D01*
X221853180Y-59413957D01*
X221994629Y-59678591D01*
X222297137Y-59819258D01*
X223518395Y-58598000D01*
X223877605Y-58598000D01*
X225098863Y-59819258D01*
X225401371Y-59678591D01*
X225579453Y-59325516D01*
X225685233Y-58944484D01*
X225707504Y-58645864D01*
X226761356Y-58645864D01*
X226809443Y-59038372D01*
X226933180Y-59413957D01*
X227074629Y-59678591D01*
X227377137Y-59819258D01*
X228598395Y-58598000D01*
X228957605Y-58598000D01*
X230178863Y-59819258D01*
X230481371Y-59678591D01*
X230659453Y-59325516D01*
X230765233Y-58944484D01*
X230794644Y-58550136D01*
X230746557Y-58157628D01*
X230622820Y-57782043D01*
X230481371Y-57517409D01*
X230178863Y-57376742D01*
X228957605Y-58598000D01*
X228598395Y-58598000D01*
X227377137Y-57376742D01*
X227074629Y-57517409D01*
X226896547Y-57870484D01*
X226790767Y-58251516D01*
X226761356Y-58645864D01*
X225707504Y-58645864D01*
X225714644Y-58550136D01*
X225666557Y-58157628D01*
X225542820Y-57782043D01*
X225401371Y-57517409D01*
X225098863Y-57376742D01*
X223877605Y-58598000D01*
X223518395Y-58598000D01*
X222297137Y-57376742D01*
X221994629Y-57517409D01*
X221816547Y-57870484D01*
X221710767Y-58251516D01*
X221681356Y-58645864D01*
X219878000Y-58645864D01*
X219878000Y-58463429D01*
X219816129Y-58152380D01*
X219694763Y-57859379D01*
X219518569Y-57595685D01*
X219294315Y-57371431D01*
X219033465Y-57197137D01*
X222476742Y-57197137D01*
X223698000Y-58418395D01*
X224919258Y-57197137D01*
X227556742Y-57197137D01*
X228778000Y-58418395D01*
X229999258Y-57197137D01*
X229858591Y-56894629D01*
X229505516Y-56716547D01*
X229124484Y-56610767D01*
X228730136Y-56581356D01*
X228337628Y-56629443D01*
X227962043Y-56753180D01*
X227697409Y-56894629D01*
X227556742Y-57197137D01*
X224919258Y-57197137D01*
X224778591Y-56894629D01*
X224425516Y-56716547D01*
X224044484Y-56610767D01*
X223650136Y-56581356D01*
X223257628Y-56629443D01*
X222882043Y-56753180D01*
X222617409Y-56894629D01*
X222476742Y-57197137D01*
X219033465Y-57197137D01*
X219030621Y-57195237D01*
X218779537Y-57091234D01*
X221217646Y-54153000D01*
X233223000Y-54153000D01*
X233223000Y-63805000D01*
G04 #@! TA.AperFunction,Conductor*
D34*
G36*
X233223000Y-63805000D02*
G01*
X223190000Y-63805000D01*
X223165224Y-63807440D01*
X223141399Y-63814667D01*
X223119443Y-63826403D01*
X223100197Y-63842197D01*
X217576699Y-69365695D01*
X217505379Y-69395237D01*
X217241685Y-69571431D01*
X217017431Y-69795685D01*
X216841237Y-70059379D01*
X216811695Y-70130699D01*
X213865353Y-73077041D01*
X213865883Y-73075010D01*
X213884540Y-72758416D01*
X213841074Y-72444267D01*
X213737156Y-72144633D01*
X213647429Y-71976766D01*
X213385584Y-71884021D01*
X212447605Y-72822000D01*
X212461748Y-72836143D01*
X212282143Y-73015748D01*
X212268000Y-73001605D01*
X212253858Y-73015748D01*
X212074253Y-72836143D01*
X212088395Y-72822000D01*
X212074253Y-72807858D01*
X212253858Y-72628253D01*
X212268000Y-72642395D01*
X213205979Y-71704416D01*
X213113234Y-71442571D01*
X212827880Y-71304180D01*
X212521010Y-71224117D01*
X212204416Y-71205460D01*
X211890267Y-71248926D01*
X211590633Y-71352844D01*
X211422766Y-71442571D01*
X211379000Y-71566135D01*
X211379000Y-66009830D01*
X216856972Y-59408171D01*
X217017431Y-59648315D01*
X217241685Y-59872569D01*
X217505379Y-60048763D01*
X217798380Y-60170129D01*
X218109429Y-60232000D01*
X218426571Y-60232000D01*
X218737620Y-60170129D01*
X219030621Y-60048763D01*
X219105301Y-59998863D01*
X222476742Y-59998863D01*
X222617409Y-60301371D01*
X222970484Y-60479453D01*
X223351516Y-60585233D01*
X223745864Y-60614644D01*
X224138372Y-60566557D01*
X224513957Y-60442820D01*
X224778591Y-60301371D01*
X224919258Y-59998863D01*
X227556742Y-59998863D01*
X227697409Y-60301371D01*
X228050484Y-60479453D01*
X228431516Y-60585233D01*
X228825864Y-60614644D01*
X229218372Y-60566557D01*
X229593957Y-60442820D01*
X229858591Y-60301371D01*
X229999258Y-59998863D01*
X228778000Y-58777605D01*
X227556742Y-59998863D01*
X224919258Y-59998863D01*
X223698000Y-58777605D01*
X222476742Y-59998863D01*
X219105301Y-59998863D01*
X219294315Y-59872569D01*
X219518569Y-59648315D01*
X219694763Y-59384621D01*
X219816129Y-59091620D01*
X219878000Y-58780571D01*
X219878000Y-58645864D01*
X221681356Y-58645864D01*
X221729443Y-59038372D01*
X221853180Y-59413957D01*
X221994629Y-59678591D01*
X222297137Y-59819258D01*
X223518395Y-58598000D01*
X223877605Y-58598000D01*
X225098863Y-59819258D01*
X225401371Y-59678591D01*
X225579453Y-59325516D01*
X225685233Y-58944484D01*
X225707504Y-58645864D01*
X226761356Y-58645864D01*
X226809443Y-59038372D01*
X226933180Y-59413957D01*
X227074629Y-59678591D01*
X227377137Y-59819258D01*
X228598395Y-58598000D01*
X228957605Y-58598000D01*
X230178863Y-59819258D01*
X230481371Y-59678591D01*
X230659453Y-59325516D01*
X230765233Y-58944484D01*
X230794644Y-58550136D01*
X230746557Y-58157628D01*
X230622820Y-57782043D01*
X230481371Y-57517409D01*
X230178863Y-57376742D01*
X228957605Y-58598000D01*
X228598395Y-58598000D01*
X227377137Y-57376742D01*
X227074629Y-57517409D01*
X226896547Y-57870484D01*
X226790767Y-58251516D01*
X226761356Y-58645864D01*
X225707504Y-58645864D01*
X225714644Y-58550136D01*
X225666557Y-58157628D01*
X225542820Y-57782043D01*
X225401371Y-57517409D01*
X225098863Y-57376742D01*
X223877605Y-58598000D01*
X223518395Y-58598000D01*
X222297137Y-57376742D01*
X221994629Y-57517409D01*
X221816547Y-57870484D01*
X221710767Y-58251516D01*
X221681356Y-58645864D01*
X219878000Y-58645864D01*
X219878000Y-58463429D01*
X219816129Y-58152380D01*
X219694763Y-57859379D01*
X219518569Y-57595685D01*
X219294315Y-57371431D01*
X219033465Y-57197137D01*
X222476742Y-57197137D01*
X223698000Y-58418395D01*
X224919258Y-57197137D01*
X227556742Y-57197137D01*
X228778000Y-58418395D01*
X229999258Y-57197137D01*
X229858591Y-56894629D01*
X229505516Y-56716547D01*
X229124484Y-56610767D01*
X228730136Y-56581356D01*
X228337628Y-56629443D01*
X227962043Y-56753180D01*
X227697409Y-56894629D01*
X227556742Y-57197137D01*
X224919258Y-57197137D01*
X224778591Y-56894629D01*
X224425516Y-56716547D01*
X224044484Y-56610767D01*
X223650136Y-56581356D01*
X223257628Y-56629443D01*
X222882043Y-56753180D01*
X222617409Y-56894629D01*
X222476742Y-57197137D01*
X219033465Y-57197137D01*
X219030621Y-57195237D01*
X218779537Y-57091234D01*
X221217646Y-54153000D01*
X233223000Y-54153000D01*
X233223000Y-63805000D01*
G37*
G04 #@! TD.AperFunction*
D33*
X232207000Y-97407394D02*
X226947394Y-102667000D01*
X220523000Y-102667000D01*
X220523000Y-86919000D01*
X232207000Y-86919000D01*
X232207000Y-97407394D01*
G04 #@! TA.AperFunction,Conductor*
D34*
G36*
X232207000Y-97407394D02*
G01*
X226947394Y-102667000D01*
X220523000Y-102667000D01*
X220523000Y-86919000D01*
X232207000Y-86919000D01*
X232207000Y-97407394D01*
G37*
G04 #@! TD.AperFunction*
D33*
X210452306Y-70673834D02*
X210285974Y-70985018D01*
X210163892Y-71387467D01*
X210133000Y-71701118D01*
X210133000Y-72926881D01*
X210163892Y-73240532D01*
X210285974Y-73642981D01*
X210472231Y-73991446D01*
X210490002Y-76950263D01*
X210492591Y-76975024D01*
X210499961Y-76998805D01*
X210511829Y-77020690D01*
X210527738Y-77039840D01*
X210547078Y-77055518D01*
X210569105Y-77067122D01*
X210592972Y-77074206D01*
X210617763Y-77076498D01*
X210642524Y-77073909D01*
X210666305Y-77066539D01*
X210695747Y-77049139D01*
X214625276Y-73943544D01*
X216365727Y-72949000D01*
X230683000Y-72949000D01*
X230683000Y-79045000D01*
X219425884Y-79045000D01*
X219518569Y-78952315D01*
X219694763Y-78688621D01*
X219816129Y-78395620D01*
X219878000Y-78084571D01*
X219878000Y-77767429D01*
X219816129Y-77456380D01*
X219694763Y-77163379D01*
X219518569Y-76899685D01*
X219294315Y-76675431D01*
X219030621Y-76499237D01*
X218737620Y-76377871D01*
X218426571Y-76316000D01*
X218109429Y-76316000D01*
X217798380Y-76377871D01*
X217505379Y-76499237D01*
X217241685Y-76675431D01*
X217017431Y-76899685D01*
X216841237Y-77163379D01*
X216719871Y-77456380D01*
X216658000Y-77767429D01*
X216658000Y-78084571D01*
X216719871Y-78395620D01*
X216841237Y-78688621D01*
X217017431Y-78952315D01*
X217241685Y-79176569D01*
X217505379Y-79352763D01*
X217514538Y-79356557D01*
X215164715Y-81920000D01*
X215096911Y-81920000D01*
X214916271Y-81955932D01*
X214746111Y-82026414D01*
X214646458Y-82093000D01*
X202997000Y-82093000D01*
X202997000Y-70663429D01*
X204658000Y-70663429D01*
X204658000Y-70980571D01*
X204719871Y-71291620D01*
X204841237Y-71584621D01*
X205017431Y-71848315D01*
X205241685Y-72072569D01*
X205505379Y-72248763D01*
X205798380Y-72370129D01*
X206109429Y-72432000D01*
X206426571Y-72432000D01*
X206737620Y-72370129D01*
X207030621Y-72248763D01*
X207294315Y-72072569D01*
X207518569Y-71848315D01*
X207694763Y-71584621D01*
X207816129Y-71291620D01*
X207878000Y-70980571D01*
X207878000Y-70663429D01*
X207816129Y-70352380D01*
X207694763Y-70059379D01*
X207518569Y-69795685D01*
X207294315Y-69571431D01*
X207030621Y-69395237D01*
X206737620Y-69273871D01*
X206426571Y-69212000D01*
X206109429Y-69212000D01*
X205798380Y-69273871D01*
X205505379Y-69395237D01*
X205241685Y-69571431D01*
X205017431Y-69795685D01*
X204841237Y-70059379D01*
X204719871Y-70352380D01*
X204658000Y-70663429D01*
X202997000Y-70663429D01*
X202997000Y-69445290D01*
X203035972Y-69484262D01*
X203189111Y-69586586D01*
X203359271Y-69657068D01*
X203539911Y-69693000D01*
X203724089Y-69693000D01*
X203904729Y-69657068D01*
X204074889Y-69586586D01*
X204228028Y-69484262D01*
X204358262Y-69354028D01*
X204460586Y-69200889D01*
X204531068Y-69030729D01*
X204567000Y-68850089D01*
X204567000Y-68665911D01*
X204531068Y-68485271D01*
X204460586Y-68315111D01*
X204358262Y-68161972D01*
X204228028Y-68031738D01*
X204074889Y-67929414D01*
X203904729Y-67858932D01*
X203724089Y-67823000D01*
X203539911Y-67823000D01*
X203359271Y-67858932D01*
X203189111Y-67929414D01*
X203035972Y-68031738D01*
X202997000Y-68070710D01*
X202997000Y-66397290D01*
X203035972Y-66436262D01*
X203189111Y-66538586D01*
X203359271Y-66609068D01*
X203539911Y-66645000D01*
X203724089Y-66645000D01*
X203904729Y-66609068D01*
X204074889Y-66538586D01*
X204228028Y-66436262D01*
X204358262Y-66306028D01*
X204460586Y-66152889D01*
X204531068Y-65982729D01*
X204567000Y-65802089D01*
X204567000Y-65617911D01*
X204531068Y-65437271D01*
X204460586Y-65267111D01*
X204358262Y-65113972D01*
X204228028Y-64983738D01*
X204074889Y-64881414D01*
X203904729Y-64810932D01*
X203724089Y-64775000D01*
X203539911Y-64775000D01*
X203359271Y-64810932D01*
X203189111Y-64881414D01*
X203035972Y-64983738D01*
X202997000Y-65022710D01*
X202997000Y-55931000D01*
X210363760Y-55931000D01*
X210452306Y-70673834D01*
G04 #@! TA.AperFunction,Conductor*
D34*
G36*
X210452306Y-70673834D02*
G01*
X210285974Y-70985018D01*
X210163892Y-71387467D01*
X210133000Y-71701118D01*
X210133000Y-72926881D01*
X210163892Y-73240532D01*
X210285974Y-73642981D01*
X210472231Y-73991446D01*
X210490002Y-76950263D01*
X210492591Y-76975024D01*
X210499961Y-76998805D01*
X210511829Y-77020690D01*
X210527738Y-77039840D01*
X210547078Y-77055518D01*
X210569105Y-77067122D01*
X210592972Y-77074206D01*
X210617763Y-77076498D01*
X210642524Y-77073909D01*
X210666305Y-77066539D01*
X210695747Y-77049139D01*
X214625276Y-73943544D01*
X216365727Y-72949000D01*
X230683000Y-72949000D01*
X230683000Y-79045000D01*
X219425884Y-79045000D01*
X219518569Y-78952315D01*
X219694763Y-78688621D01*
X219816129Y-78395620D01*
X219878000Y-78084571D01*
X219878000Y-77767429D01*
X219816129Y-77456380D01*
X219694763Y-77163379D01*
X219518569Y-76899685D01*
X219294315Y-76675431D01*
X219030621Y-76499237D01*
X218737620Y-76377871D01*
X218426571Y-76316000D01*
X218109429Y-76316000D01*
X217798380Y-76377871D01*
X217505379Y-76499237D01*
X217241685Y-76675431D01*
X217017431Y-76899685D01*
X216841237Y-77163379D01*
X216719871Y-77456380D01*
X216658000Y-77767429D01*
X216658000Y-78084571D01*
X216719871Y-78395620D01*
X216841237Y-78688621D01*
X217017431Y-78952315D01*
X217241685Y-79176569D01*
X217505379Y-79352763D01*
X217514538Y-79356557D01*
X215164715Y-81920000D01*
X215096911Y-81920000D01*
X214916271Y-81955932D01*
X214746111Y-82026414D01*
X214646458Y-82093000D01*
X202997000Y-82093000D01*
X202997000Y-70663429D01*
X204658000Y-70663429D01*
X204658000Y-70980571D01*
X204719871Y-71291620D01*
X204841237Y-71584621D01*
X205017431Y-71848315D01*
X205241685Y-72072569D01*
X205505379Y-72248763D01*
X205798380Y-72370129D01*
X206109429Y-72432000D01*
X206426571Y-72432000D01*
X206737620Y-72370129D01*
X207030621Y-72248763D01*
X207294315Y-72072569D01*
X207518569Y-71848315D01*
X207694763Y-71584621D01*
X207816129Y-71291620D01*
X207878000Y-70980571D01*
X207878000Y-70663429D01*
X207816129Y-70352380D01*
X207694763Y-70059379D01*
X207518569Y-69795685D01*
X207294315Y-69571431D01*
X207030621Y-69395237D01*
X206737620Y-69273871D01*
X206426571Y-69212000D01*
X206109429Y-69212000D01*
X205798380Y-69273871D01*
X205505379Y-69395237D01*
X205241685Y-69571431D01*
X205017431Y-69795685D01*
X204841237Y-70059379D01*
X204719871Y-70352380D01*
X204658000Y-70663429D01*
X202997000Y-70663429D01*
X202997000Y-69445290D01*
X203035972Y-69484262D01*
X203189111Y-69586586D01*
X203359271Y-69657068D01*
X203539911Y-69693000D01*
X203724089Y-69693000D01*
X203904729Y-69657068D01*
X204074889Y-69586586D01*
X204228028Y-69484262D01*
X204358262Y-69354028D01*
X204460586Y-69200889D01*
X204531068Y-69030729D01*
X204567000Y-68850089D01*
X204567000Y-68665911D01*
X204531068Y-68485271D01*
X204460586Y-68315111D01*
X204358262Y-68161972D01*
X204228028Y-68031738D01*
X204074889Y-67929414D01*
X203904729Y-67858932D01*
X203724089Y-67823000D01*
X203539911Y-67823000D01*
X203359271Y-67858932D01*
X203189111Y-67929414D01*
X203035972Y-68031738D01*
X202997000Y-68070710D01*
X202997000Y-66397290D01*
X203035972Y-66436262D01*
X203189111Y-66538586D01*
X203359271Y-66609068D01*
X203539911Y-66645000D01*
X203724089Y-66645000D01*
X203904729Y-66609068D01*
X204074889Y-66538586D01*
X204228028Y-66436262D01*
X204358262Y-66306028D01*
X204460586Y-66152889D01*
X204531068Y-65982729D01*
X204567000Y-65802089D01*
X204567000Y-65617911D01*
X204531068Y-65437271D01*
X204460586Y-65267111D01*
X204358262Y-65113972D01*
X204228028Y-64983738D01*
X204074889Y-64881414D01*
X203904729Y-64810932D01*
X203724089Y-64775000D01*
X203539911Y-64775000D01*
X203359271Y-64810932D01*
X203189111Y-64881414D01*
X203035972Y-64983738D01*
X202997000Y-65022710D01*
X202997000Y-55931000D01*
X210363760Y-55931000D01*
X210452306Y-70673834D01*
G37*
G04 #@! TD.AperFunction*
D33*
X242621000Y-71098195D02*
X242621000Y-73965000D01*
X235157980Y-73965000D01*
X227056796Y-69914408D01*
X227036493Y-69906356D01*
X222047000Y-68409508D01*
X222047000Y-66531483D01*
X223489980Y-65329000D01*
X236600970Y-65329000D01*
X242621000Y-71098195D01*
G04 #@! TA.AperFunction,Conductor*
D34*
G36*
X242621000Y-71098195D02*
G01*
X242621000Y-73965000D01*
X235157980Y-73965000D01*
X227056796Y-69914408D01*
X227036493Y-69906356D01*
X222047000Y-68409508D01*
X222047000Y-66531483D01*
X223489980Y-65329000D01*
X236600970Y-65329000D01*
X242621000Y-71098195D01*
G37*
G04 #@! TD.AperFunction*
D33*
X233359025Y-105757982D02*
X233152734Y-106066718D01*
X233010639Y-106409766D01*
X232938200Y-106773944D01*
X232938200Y-107145256D01*
X233010639Y-107509434D01*
X233152734Y-107852482D01*
X233359025Y-108161218D01*
X233621582Y-108423775D01*
X233930318Y-108630066D01*
X234273366Y-108772161D01*
X234637544Y-108844600D01*
X235008856Y-108844600D01*
X235373034Y-108772161D01*
X235716082Y-108630066D01*
X236024818Y-108423775D01*
X236287375Y-108161218D01*
X236493666Y-107852482D01*
X236635761Y-107509434D01*
X236708200Y-107145256D01*
X236708200Y-106773944D01*
X236635761Y-106409766D01*
X236493666Y-106066718D01*
X236287375Y-105757982D01*
X236244393Y-105715000D01*
X237287000Y-105715000D01*
X237287000Y-118669000D01*
X221031000Y-118669000D01*
X221031000Y-115401911D01*
X230129000Y-115401911D01*
X230129000Y-115586089D01*
X230164932Y-115766729D01*
X230235414Y-115936889D01*
X230337738Y-116090028D01*
X230467972Y-116220262D01*
X230621111Y-116322586D01*
X230791271Y-116393068D01*
X230971911Y-116429000D01*
X231156089Y-116429000D01*
X231336729Y-116393068D01*
X231506889Y-116322586D01*
X231660028Y-116220262D01*
X231790262Y-116090028D01*
X231892586Y-115936889D01*
X231963068Y-115766729D01*
X231999000Y-115586089D01*
X231999000Y-115401911D01*
X231963068Y-115221271D01*
X231892586Y-115051111D01*
X231790262Y-114897972D01*
X231660028Y-114767738D01*
X231506889Y-114665414D01*
X231336729Y-114594932D01*
X231156089Y-114559000D01*
X230971911Y-114559000D01*
X230791271Y-114594932D01*
X230621111Y-114665414D01*
X230467972Y-114767738D01*
X230337738Y-114897972D01*
X230235414Y-115051111D01*
X230164932Y-115221271D01*
X230129000Y-115401911D01*
X221031000Y-115401911D01*
X221031000Y-105715000D01*
X233402007Y-105715000D01*
X233359025Y-105757982D01*
G04 #@! TA.AperFunction,Conductor*
D34*
G36*
X233359025Y-105757982D02*
G01*
X233152734Y-106066718D01*
X233010639Y-106409766D01*
X232938200Y-106773944D01*
X232938200Y-107145256D01*
X233010639Y-107509434D01*
X233152734Y-107852482D01*
X233359025Y-108161218D01*
X233621582Y-108423775D01*
X233930318Y-108630066D01*
X234273366Y-108772161D01*
X234637544Y-108844600D01*
X235008856Y-108844600D01*
X235373034Y-108772161D01*
X235716082Y-108630066D01*
X236024818Y-108423775D01*
X236287375Y-108161218D01*
X236493666Y-107852482D01*
X236635761Y-107509434D01*
X236708200Y-107145256D01*
X236708200Y-106773944D01*
X236635761Y-106409766D01*
X236493666Y-106066718D01*
X236287375Y-105757982D01*
X236244393Y-105715000D01*
X237287000Y-105715000D01*
X237287000Y-118669000D01*
X221031000Y-118669000D01*
X221031000Y-115401911D01*
X230129000Y-115401911D01*
X230129000Y-115586089D01*
X230164932Y-115766729D01*
X230235414Y-115936889D01*
X230337738Y-116090028D01*
X230467972Y-116220262D01*
X230621111Y-116322586D01*
X230791271Y-116393068D01*
X230971911Y-116429000D01*
X231156089Y-116429000D01*
X231336729Y-116393068D01*
X231506889Y-116322586D01*
X231660028Y-116220262D01*
X231790262Y-116090028D01*
X231892586Y-115936889D01*
X231963068Y-115766729D01*
X231999000Y-115586089D01*
X231999000Y-115401911D01*
X231963068Y-115221271D01*
X231892586Y-115051111D01*
X231790262Y-114897972D01*
X231660028Y-114767738D01*
X231506889Y-114665414D01*
X231336729Y-114594932D01*
X231156089Y-114559000D01*
X230971911Y-114559000D01*
X230791271Y-114594932D01*
X230621111Y-114665414D01*
X230467972Y-114767738D01*
X230337738Y-114897972D01*
X230235414Y-115051111D01*
X230164932Y-115221271D01*
X230129000Y-115401911D01*
X221031000Y-115401911D01*
X221031000Y-105715000D01*
X233402007Y-105715000D01*
X233359025Y-105757982D01*
G37*
G04 #@! TD.AperFunction*
M02*
