M48
; DRILL file {KiCad (5.1.9)-1} date 07/06/21 21:26:55
; FORMAT={-:-/ absolute / metric / decimal}
; #@! TF.CreationDate,2021-07-06T21:26:55+02:00
; #@! TF.GenerationSoftware,Kicad,Pcbnew,(5.1.9)-1
; #@! TF.FileFunction,Plated,1,4,PTH
FMAT,2
METRIC
T1C0.400
T2C0.730
T3C0.800
T4C0.900
T5C1.000
T6C1.200
T7C1.300
T8C1.370
T9C1.700
T10C1.830
T11C2.900
%
G90
G05
T1
X114.478Y-78.156
X114.478Y-78.156
X118.542Y-74.6
X131.242Y-91.872
X138.862Y-92.888
X142.672Y-102.286
X143.688Y-104.826
X148.768Y-135.814
X148.768Y-138.288
X149.022Y-95.682
X152.004Y-138.288
X152.578Y-135.814
X154.102Y-134.544
X154.692Y-139.288
X156.007Y-134.163
X156.642Y-88.316
X157.658Y-137.084
X157.785Y-132.385
X159.817Y-130.353
X159.817Y-134.163
X160.95Y-94.656
X160.96Y-95.682
X160.96Y-95.682
X161.468Y-132.512
X161.976Y-128.194
X164.135Y-126.035
X164.262Y-129.718
X166.421Y-127.559
X166.548Y-123.622
X166.929Y-101.143
X167.818Y-102.794
X167.818Y-105.588
X167.818Y-108.382
X167.818Y-110.668
X167.818Y-113.716
X167.818Y-116.002
X167.818Y-119.558
X167.818Y-121.59
X168.467Y-98.354
X168.834Y-125.146
X170.588Y-99.233
X170.612Y-102.794
X170.612Y-105.588
X170.612Y-108.382
X170.612Y-110.668
X170.612Y-113.716
X170.612Y-116.002
X170.612Y-119.812
X170.612Y-122.352
X175.418Y-69.754
X178.38Y-88.558
X180.772Y-86.284
X187.122Y-119.812
X187.884Y-126.162
X191.694Y-126.162
X191.948Y-119.812
X192.964Y-86.792
X201.092Y-96.444
X202.87Y-99.238
X203.378Y-98.476
X203.632Y-65.71
X203.632Y-68.758
X203.886Y-92.38
X206.705Y-106.883
X215.189Y-82.855
X217.856Y-80.95
X219.634Y-106.858
X221.666Y-104.064
X231.064Y-115.494
X243.256Y-109.906
T2
X176.646Y-126.67
X176.646Y-129.21
X176.646Y-131.75
X176.646Y-134.29
X176.646Y-136.83
X176.646Y-139.37
X176.646Y-141.91
X176.646Y-144.45
X184.39Y-126.67
X184.39Y-129.21
X184.39Y-131.75
X184.39Y-134.29
X184.39Y-136.83
X184.39Y-139.37
X184.39Y-141.91
X184.39Y-144.45
T3
X113.716Y-128.448
X113.716Y-131.75
X113.716Y-136.322
X113.716Y-139.878
X114.986Y-112.954
X114.986Y-115.494
X114.986Y-118.034
X114.986Y-120.574
X116.336Y-109.398
X121.336Y-109.398
X122.606Y-112.954
X122.606Y-115.494
X122.606Y-118.034
X122.606Y-120.574
X123.876Y-128.448
X123.876Y-131.75
X123.876Y-136.322
X123.876Y-139.878
X130.48Y-111.938
X130.48Y-116.938
X133.782Y-110.414
X133.782Y-118.034
X136.322Y-110.414
X136.322Y-118.034
X138.862Y-110.414
X138.862Y-118.034
X138.862Y-127.178
X138.862Y-129.718
X138.862Y-132.258
X138.862Y-134.798
X138.862Y-137.338
X138.862Y-139.878
X138.862Y-142.418
X140.386Y-146.228
X140.64Y-123.622
X141.402Y-110.414
X141.402Y-118.034
X145.212Y-99.746
X145.212Y-109.906
X145.386Y-146.228
X145.64Y-123.622
X146.482Y-127.178
X146.482Y-129.718
X146.482Y-132.258
X146.482Y-134.798
X146.482Y-137.338
X146.482Y-139.878
X146.482Y-142.418
X148.514Y-88.316
X148.514Y-98.476
X154.61Y-57.328
X154.61Y-67.488
X161.468Y-59.106
X161.468Y-69.266
X161.468Y-92.634
X161.468Y-100.254
X164.008Y-92.634
X164.008Y-100.254
X166.04Y-138.608
X166.04Y-148.768
X166.548Y-92.634
X166.548Y-100.254
X169.088Y-92.634
X169.088Y-100.254
X169.342Y-138.608
X169.342Y-148.768
X171.628Y-60.884
X171.628Y-63.424
X171.628Y-65.964
X171.628Y-68.504
X171.628Y-71.044
X171.628Y-73.584
X171.628Y-76.124
X171.628Y-78.664
X172.898Y-86.11
X172.898Y-91.11
X172.898Y-93.904
X172.898Y-98.904
X172.978Y-57.582
X173.406Y-143.688
X173.406Y-148.688
X173.66Y-130.48
X173.66Y-135.48
X175.692Y-107.62
X175.692Y-117.78
X177.978Y-57.582
X178.058Y-123.114
X179.248Y-60.884
X179.248Y-63.424
X179.248Y-65.964
X179.248Y-68.504
X179.248Y-71.044
X179.248Y-73.584
X179.248Y-76.124
X179.248Y-78.664
X183.058Y-123.114
X185.598Y-107.62
X185.598Y-117.78
X189.408Y-60.63
X189.408Y-63.17
X189.408Y-65.71
X189.408Y-68.25
X189.408Y-70.79
X189.408Y-73.33
X189.408Y-75.87
X189.408Y-78.41
X197.028Y-60.63
X197.028Y-63.17
X197.028Y-65.71
X197.028Y-68.25
X197.028Y-70.79
X197.028Y-73.33
X197.028Y-75.87
X197.028Y-78.41
X201.854Y-92.634
X201.854Y-102.794
X203.886Y-140.132
X214.046Y-140.132
T4
X103.556Y-121.844
X103.636Y-145.974
X106.056Y-126.844
X106.136Y-140.974
X108.556Y-121.844
X108.636Y-145.974
X118.288Y-143.434
X125.4Y-120.4
X125.4Y-125.4
X128.448Y-143.434
X130.4Y-122.9
X144.45Y-112.954
X144.45Y-116.51
X144.45Y-120.066
X149.356Y-148.768
X151.856Y-143.768
X154.356Y-148.768
X154.61Y-112.954
X154.61Y-116.51
X154.61Y-120.066
X156.667Y-143.79
X159.167Y-148.79
X161.667Y-143.79
X187.884Y-140.132
X187.964Y-135.266
X190.384Y-145.132
X192.884Y-140.132
X192.964Y-132.766
X192.964Y-137.766
T5
X107.112Y-60.376
X107.112Y-62.916
X107.112Y-65.456
X107.112Y-67.996
X107.112Y-70.536
X107.112Y-73.076
X107.112Y-75.616
X107.112Y-78.156
X107.112Y-80.696
X107.112Y-83.236
X107.112Y-85.776
X107.112Y-88.316
X107.112Y-95.428
X107.112Y-97.968
X107.112Y-100.508
X126.416Y-63.932
X126.416Y-66.472
X126.416Y-69.012
X126.416Y-71.552
X126.416Y-74.092
X126.416Y-76.632
X126.416Y-79.172
X126.416Y-81.712
X126.416Y-84.252
X126.416Y-86.792
X126.416Y-89.332
X126.416Y-91.872
X126.416Y-94.412
X126.416Y-96.952
X126.416Y-99.492
X141.656Y-63.932
X141.656Y-66.472
X141.656Y-69.012
X141.656Y-71.552
X141.656Y-74.092
X141.656Y-76.632
X141.656Y-79.172
X141.656Y-81.712
X141.656Y-84.252
X141.656Y-86.792
X141.656Y-89.332
X141.656Y-91.872
X141.656Y-94.412
X141.656Y-96.952
X141.656Y-99.492
X168.072Y-58.344
X168.072Y-60.884
X168.072Y-63.424
X179.248Y-115.24
X179.248Y-117.78
X181.788Y-115.24
X181.788Y-117.78
X226.746Y-126.924
X226.746Y-129.464
X226.746Y-132.004
X226.746Y-134.544
X226.746Y-137.084
T6
X117.018Y-67.234
X117.018Y-77.14
X117.018Y-86.792
X117.018Y-96.952
X121.336Y-62.662
X121.336Y-72.314
X121.336Y-81.712
X121.336Y-91.872
X121.336Y-100.254
X126.416Y-114.732
X131.75Y-131.75
X131.75Y-137.084
X133.782Y-127.178
X135.306Y-141.656
X135.814Y-146.99
X148.514Y-83.744
X153.34Y-126.416
X154.61Y-137.338
X165.913Y-87.808
X166.802Y-68.504
X167.056Y-73.584
X167.056Y-78.664
X172.898Y-126.67
X177.978Y-148.26
X184.582Y-60.376
X187.63Y-123.114
X188.392Y-129.21
X190.678Y-82.982
X195.758Y-82.982
X196.52Y-146.482
X197.282Y-87.808
X200.584Y-60.376
X200.584Y-64.44
X200.838Y-71.552
X201.092Y-75.87
X212.268Y-136.068
X222.936Y-82.982
X229.794Y-82.982
T7
X206.268Y-58.622
X206.268Y-70.822
X206.268Y-77.926
X206.268Y-90.126
X206.268Y-97.23
X206.268Y-109.43
X206.268Y-116.534
X206.268Y-128.734
X212.268Y-72.822
X212.268Y-92.126
X212.268Y-111.43
X212.268Y-130.734
X218.268Y-58.622
X218.268Y-70.822
X218.268Y-77.926
X218.268Y-90.126
X218.268Y-97.23
X218.268Y-109.43
X218.268Y-116.534
X218.268Y-128.734
T8
X104.826Y-130.734
X104.826Y-137.084
X109.906Y-130.734
X109.906Y-137.084
X190.17Y-109.652
X190.17Y-114.732
X199.568Y-122.86
X199.568Y-127.94
T9
X234.823Y-76.48
X234.823Y-86.64
X234.823Y-96.8
X234.823Y-106.96
X234.823Y-117.12
X234.823Y-127.28
X234.823Y-137.44
X239.903Y-71.4
X239.903Y-81.56
X239.903Y-91.72
X239.903Y-101.88
X239.903Y-112.04
X239.903Y-122.2
X239.903Y-132.36
X239.903Y-142.52
T10
X199.568Y-134.036
X199.568Y-139.116
X223.698Y-58.598
X223.698Y-66.472
X223.698Y-74.6
X223.698Y-91.11
X223.698Y-99.746
X223.698Y-108.382
X228.778Y-58.598
X228.778Y-66.472
X228.778Y-74.6
X228.778Y-91.11
X228.778Y-99.746
X228.778Y-108.382
T11
X244.983Y-58.7
X244.983Y-147.6
T0
M30
