G04 #@! TF.GenerationSoftware,KiCad,Pcbnew,(5.1.9)-1*
G04 #@! TF.CreationDate,2021-07-06T19:46:52+02:00*
G04 #@! TF.ProjectId,const_curr_measure,636f6e73-745f-4637-9572-725f6d656173,rev?*
G04 #@! TF.SameCoordinates,Original*
G04 #@! TF.FileFunction,Copper,L2,Inr*
G04 #@! TF.FilePolarity,Positive*
%FSLAX46Y46*%
G04 Gerber Fmt 4.6, Leading zero omitted, Abs format (unit mm)*
G04 Created by KiCad (PCBNEW (5.1.9)-1) date 2021-07-06 19:46:52*
%MOMM*%
%LPD*%
G01*
G04 APERTURE LIST*
G04 #@! TA.AperFunction,ComponentPad*
%ADD10O,1.600000X2.400000*%
G04 #@! TD*
G04 #@! TA.AperFunction,ComponentPad*
%ADD11R,1.600000X2.400000*%
G04 #@! TD*
G04 #@! TA.AperFunction,ComponentPad*
%ADD12C,2.500000*%
G04 #@! TD*
G04 #@! TA.AperFunction,ComponentPad*
%ADD13O,1.700000X1.700000*%
G04 #@! TD*
G04 #@! TA.AperFunction,ComponentPad*
%ADD14R,1.700000X1.700000*%
G04 #@! TD*
G04 #@! TA.AperFunction,ComponentPad*
%ADD15O,2.400000X1.600000*%
G04 #@! TD*
G04 #@! TA.AperFunction,ComponentPad*
%ADD16R,2.400000X1.600000*%
G04 #@! TD*
G04 #@! TA.AperFunction,ComponentPad*
%ADD17C,1.620000*%
G04 #@! TD*
G04 #@! TA.AperFunction,ComponentPad*
%ADD18C,1.600000*%
G04 #@! TD*
G04 #@! TA.AperFunction,ComponentPad*
%ADD19O,1.600000X1.600000*%
G04 #@! TD*
G04 #@! TA.AperFunction,ComponentPad*
%ADD20O,1.800000X1.800000*%
G04 #@! TD*
G04 #@! TA.AperFunction,ComponentPad*
%ADD21R,1.800000X1.800000*%
G04 #@! TD*
G04 #@! TA.AperFunction,ComponentPad*
%ADD22R,1.600000X1.600000*%
G04 #@! TD*
G04 #@! TA.AperFunction,ComponentPad*
%ADD23C,2.745000*%
G04 #@! TD*
G04 #@! TA.AperFunction,ComponentPad*
%ADD24C,1.950000*%
G04 #@! TD*
G04 #@! TA.AperFunction,ComponentPad*
%ADD25C,2.055000*%
G04 #@! TD*
G04 #@! TA.AperFunction,ComponentPad*
%ADD26C,4.100000*%
G04 #@! TD*
G04 #@! TA.AperFunction,ComponentPad*
%ADD27C,1.130000*%
G04 #@! TD*
G04 #@! TA.AperFunction,ComponentPad*
%ADD28R,1.130000X1.130000*%
G04 #@! TD*
G04 #@! TA.AperFunction,ViaPad*
%ADD29C,0.600000*%
G04 #@! TD*
G04 #@! TA.AperFunction,Conductor*
%ADD30C,0.500000*%
G04 #@! TD*
G04 #@! TA.AperFunction,Conductor*
%ADD31C,1.000000*%
G04 #@! TD*
G04 APERTURE END LIST*
D10*
X169088000Y-100254000D03*
X161468000Y-92634000D03*
X166548000Y-100254000D03*
X164008000Y-92634000D03*
X164008000Y-100254000D03*
X166548000Y-92634000D03*
X161468000Y-100254000D03*
D11*
X169088000Y-92634000D03*
D12*
X126416000Y-114732000D03*
X121336000Y-81712000D03*
X121336000Y-72314000D03*
X117018000Y-67234000D03*
X117018000Y-77140000D03*
X117018000Y-86792000D03*
X121336000Y-62662000D03*
X117018000Y-96952000D03*
X121336000Y-100254000D03*
X121336000Y-91872000D03*
D13*
X107112000Y-79172000D03*
X107112000Y-81712000D03*
X107112000Y-84252000D03*
D14*
X107112000Y-86792000D03*
D13*
X107112000Y-92126000D03*
X107112000Y-94666000D03*
D14*
X107112000Y-97206000D03*
D13*
X107112000Y-74600000D03*
X107112000Y-72060000D03*
X107112000Y-69520000D03*
X107112000Y-66980000D03*
X107112000Y-64440000D03*
D14*
X107112000Y-61900000D03*
D10*
X133782000Y-110414000D03*
X141402000Y-118034000D03*
X136322000Y-110414000D03*
X138862000Y-118034000D03*
X138862000Y-110414000D03*
X136322000Y-118034000D03*
X141402000Y-110414000D03*
D11*
X133782000Y-118034000D03*
D15*
X122606000Y-112954000D03*
X114986000Y-120574000D03*
X122606000Y-115494000D03*
X114986000Y-118034000D03*
X122606000Y-118034000D03*
X114986000Y-115494000D03*
X122606000Y-120574000D03*
D16*
X114986000Y-112954000D03*
D17*
X125400000Y-125400000D03*
X130400000Y-122900000D03*
X125400000Y-120400000D03*
D18*
X130480000Y-116938000D03*
X130480000Y-111938000D03*
X116336000Y-109398000D03*
X121336000Y-109398000D03*
D12*
X148514000Y-83744000D03*
D19*
X148514000Y-98476000D03*
D18*
X148514000Y-88316000D03*
D19*
X154610000Y-67488000D03*
D18*
X154610000Y-57328000D03*
D19*
X161468000Y-69266000D03*
D18*
X161468000Y-59106000D03*
D19*
X145212000Y-109906000D03*
D18*
X145212000Y-99746000D03*
D20*
X118288000Y-143434000D03*
D21*
X128448000Y-143434000D03*
D20*
X144450000Y-112954000D03*
D21*
X154610000Y-112954000D03*
D20*
X154610000Y-120066000D03*
D21*
X144450000Y-120066000D03*
D20*
X144450000Y-116510000D03*
D21*
X154610000Y-116510000D03*
D19*
X141656000Y-99492000D03*
X126416000Y-99492000D03*
X141656000Y-63932000D03*
X126416000Y-96952000D03*
X141656000Y-66472000D03*
X126416000Y-94412000D03*
X141656000Y-69012000D03*
X126416000Y-91872000D03*
X141656000Y-71552000D03*
X126416000Y-89332000D03*
X141656000Y-74092000D03*
X126416000Y-86792000D03*
X141656000Y-76632000D03*
X126416000Y-84252000D03*
X141656000Y-79172000D03*
X126416000Y-81712000D03*
X141656000Y-81712000D03*
X126416000Y-79172000D03*
X141656000Y-84252000D03*
X126416000Y-76632000D03*
X141656000Y-86792000D03*
X126416000Y-74092000D03*
X141656000Y-89332000D03*
X126416000Y-71552000D03*
X141656000Y-91872000D03*
X126416000Y-69012000D03*
X141656000Y-94412000D03*
X126416000Y-66472000D03*
X141656000Y-96952000D03*
D22*
X126416000Y-63932000D03*
D23*
X228778000Y-91110000D03*
X223698000Y-91110000D03*
D19*
X214046000Y-140132000D03*
D18*
X203886000Y-140132000D03*
D19*
X201854000Y-92634000D03*
D18*
X201854000Y-102794000D03*
X173660000Y-135480000D03*
X173660000Y-130480000D03*
X178058000Y-123114000D03*
X183058000Y-123114000D03*
X172898000Y-86110000D03*
X172898000Y-91110000D03*
D23*
X199568000Y-134036000D03*
X199568000Y-139116000D03*
D12*
X201092000Y-75870000D03*
D18*
X145640000Y-123622000D03*
X140640000Y-123622000D03*
D13*
X168072000Y-63424000D03*
X168072000Y-60884000D03*
D14*
X168072000Y-58344000D03*
D24*
X212268000Y-72822000D03*
X206268000Y-70822000D03*
X206268000Y-58622000D03*
X218268000Y-58622000D03*
X218268000Y-70822000D03*
X212268000Y-92126000D03*
X206268000Y-90126000D03*
X206268000Y-77926000D03*
X218268000Y-77926000D03*
X218268000Y-90126000D03*
X212268000Y-111430000D03*
X206268000Y-109430000D03*
X206268000Y-97230000D03*
X218268000Y-97230000D03*
X218268000Y-109430000D03*
D12*
X200838000Y-71552000D03*
X195758000Y-82982000D03*
X222936000Y-82982000D03*
X197282000Y-87808000D03*
X212268000Y-136068000D03*
X172898000Y-126670000D03*
X229794000Y-82982000D03*
X200584000Y-64440000D03*
X200584000Y-60376000D03*
X190678000Y-82982000D03*
X167056000Y-78664000D03*
X167056000Y-73584000D03*
X184582000Y-60376000D03*
X166802000Y-68504000D03*
X135814000Y-146990000D03*
X153340000Y-126416000D03*
X135306000Y-141656000D03*
X196520000Y-146482000D03*
X188392000Y-129210000D03*
X131750000Y-137084000D03*
X154610000Y-137338000D03*
X133782000Y-127178000D03*
X187630000Y-123114000D03*
X177978000Y-148260000D03*
X131750000Y-131750000D03*
X165913000Y-87808000D03*
D17*
X156667400Y-143789600D03*
X159167400Y-148789600D03*
X161667400Y-143789600D03*
X154356000Y-148768000D03*
X151856000Y-143768000D03*
X149356000Y-148768000D03*
X108636000Y-145974000D03*
X106136000Y-140974000D03*
X103636000Y-145974000D03*
X187884000Y-140132000D03*
X190384000Y-145132000D03*
X192884000Y-140132000D03*
X192964000Y-132766000D03*
X187964000Y-135266000D03*
X192964000Y-137766000D03*
X103556000Y-121844000D03*
X106056000Y-126844000D03*
X108556000Y-121844000D03*
D18*
X173406000Y-148688000D03*
X173406000Y-143688000D03*
D16*
X189408000Y-60630000D03*
D15*
X197028000Y-78410000D03*
X189408000Y-63170000D03*
X197028000Y-75870000D03*
X189408000Y-65710000D03*
X197028000Y-73330000D03*
X189408000Y-68250000D03*
X197028000Y-70790000D03*
X189408000Y-70790000D03*
X197028000Y-68250000D03*
X189408000Y-73330000D03*
X197028000Y-65710000D03*
X189408000Y-75870000D03*
X197028000Y-63170000D03*
X189408000Y-78410000D03*
X197028000Y-60630000D03*
D23*
X228778000Y-108382000D03*
X223698000Y-108382000D03*
X228778000Y-99746000D03*
X223698000Y-99746000D03*
D25*
X109906000Y-130734000D03*
X104826000Y-130734000D03*
X109906000Y-137084000D03*
X104826000Y-137084000D03*
D26*
X244983200Y-58699600D03*
X244983200Y-147599600D03*
D12*
X239903200Y-142519600D03*
X234823200Y-137439600D03*
X239903200Y-132359600D03*
X234823200Y-127279600D03*
X239903200Y-122199600D03*
X234823200Y-117119600D03*
X239903200Y-112039600D03*
X234823200Y-106959600D03*
X239903200Y-101879600D03*
X234823200Y-96799600D03*
X239903200Y-91719600D03*
X234823200Y-86639600D03*
X239903200Y-81559600D03*
X234823200Y-76479600D03*
X239903200Y-71399600D03*
D23*
X228778000Y-58598000D03*
X223698000Y-58598000D03*
D27*
X184390000Y-126670000D03*
X184390000Y-129210000D03*
X184390000Y-131750000D03*
X184390000Y-134290000D03*
X184390000Y-136830000D03*
X184390000Y-139370000D03*
X184390000Y-141910000D03*
X184390000Y-144450000D03*
X176646000Y-144450000D03*
X176646000Y-141910000D03*
X176646000Y-139370000D03*
X176646000Y-136830000D03*
X176646000Y-134290000D03*
X176646000Y-131750000D03*
X176646000Y-129210000D03*
D28*
X176646000Y-126670000D03*
D23*
X228778000Y-74600000D03*
X223698000Y-74600000D03*
X228778000Y-66472000D03*
X223698000Y-66472000D03*
D24*
X212268000Y-130734000D03*
X206268000Y-128734000D03*
X206268000Y-116534000D03*
X218268000Y-116534000D03*
X218268000Y-128734000D03*
D25*
X190170000Y-109652000D03*
X190170000Y-114732000D03*
X199568000Y-122860000D03*
X199568000Y-127940000D03*
D19*
X166040000Y-148768000D03*
D18*
X166040000Y-138608000D03*
D19*
X169342000Y-138608000D03*
D18*
X169342000Y-148768000D03*
D19*
X123876000Y-131750000D03*
D18*
X113716000Y-131750000D03*
D19*
X123876000Y-136322000D03*
D18*
X113716000Y-136322000D03*
D19*
X175692000Y-117780000D03*
D18*
X175692000Y-107620000D03*
X177978000Y-57582000D03*
X172978000Y-57582000D03*
X172898000Y-98904000D03*
X172898000Y-93904000D03*
X145386000Y-146228000D03*
X140386000Y-146228000D03*
D16*
X171628000Y-60884000D03*
D15*
X179248000Y-78664000D03*
X171628000Y-63424000D03*
X179248000Y-76124000D03*
X171628000Y-65964000D03*
X179248000Y-73584000D03*
X171628000Y-68504000D03*
X179248000Y-71044000D03*
X171628000Y-71044000D03*
X179248000Y-68504000D03*
X171628000Y-73584000D03*
X179248000Y-65964000D03*
X171628000Y-76124000D03*
X179248000Y-63424000D03*
X171628000Y-78664000D03*
X179248000Y-60884000D03*
X146482000Y-127178000D03*
X138862000Y-142418000D03*
X146482000Y-129718000D03*
X138862000Y-139878000D03*
X146482000Y-132258000D03*
X138862000Y-137338000D03*
X146482000Y-134798000D03*
X138862000Y-134798000D03*
X146482000Y-137338000D03*
X138862000Y-132258000D03*
X146482000Y-139878000D03*
X138862000Y-129718000D03*
X146482000Y-142418000D03*
D16*
X138862000Y-127178000D03*
D19*
X113716000Y-139878000D03*
D18*
X123876000Y-139878000D03*
D19*
X185598000Y-107620000D03*
D18*
X185598000Y-117780000D03*
D19*
X113716000Y-128448000D03*
D18*
X123876000Y-128448000D03*
D13*
X179248000Y-115240000D03*
X181788000Y-115240000D03*
X179248000Y-117780000D03*
D14*
X181788000Y-117780000D03*
D29*
X231064000Y-115494000D03*
X243256000Y-109906000D03*
X180772000Y-86284000D03*
X178379999Y-88558001D03*
X148768000Y-135814000D03*
X152578000Y-135814000D03*
X154102000Y-134544000D03*
X156007000Y-134163000D03*
X157785000Y-132385000D03*
X159817000Y-130353000D03*
X161976000Y-128194000D03*
X164135000Y-126035000D03*
X166548000Y-123622000D03*
X167818000Y-121590000D03*
X167818000Y-119558000D03*
X167818000Y-116002000D03*
X167818000Y-113716000D03*
X167818000Y-110668000D03*
X167818000Y-108382000D03*
X167818000Y-105588000D03*
X167818000Y-102794000D03*
X166929000Y-101143000D03*
X148768000Y-138288010D03*
X152004010Y-138288010D03*
X154691999Y-139288001D03*
X157658000Y-137084000D03*
X159817000Y-134163000D03*
X161468000Y-132512000D03*
X164262000Y-129718000D03*
X166421000Y-127559000D03*
X168834000Y-125146000D03*
X170612000Y-122352000D03*
X170612000Y-119812000D03*
X170612000Y-116002000D03*
X170612000Y-113716000D03*
X170612000Y-110668000D03*
X170612000Y-108382000D03*
X170612000Y-105588000D03*
X170612000Y-102794000D03*
X168466676Y-98353990D03*
X170588010Y-99232676D03*
X143688000Y-104826000D03*
X187884000Y-126162000D03*
X191694000Y-126162000D03*
X187122000Y-119812000D03*
X191948000Y-119812000D03*
X203378000Y-98476000D03*
X201092000Y-96444000D03*
X202870000Y-99238000D03*
X192964000Y-86792000D03*
X203886000Y-92380000D03*
X203632000Y-65710000D03*
X203632000Y-68758000D03*
X215189000Y-82855000D03*
X175418010Y-69754010D03*
X142672000Y-102286000D03*
X160960000Y-95682000D03*
X160960000Y-95682000D03*
X149022000Y-95682000D03*
X131242000Y-91872000D03*
X217856000Y-80950000D03*
X219634000Y-106858000D03*
X221666000Y-104064000D03*
X206705499Y-106883499D03*
X118542000Y-74600000D03*
X114478000Y-78156000D03*
X114478000Y-78156000D03*
X160950229Y-94656229D03*
X156642000Y-88316000D03*
X138862000Y-92888000D03*
D30*
X239903200Y-112039600D02*
X234518400Y-112039600D01*
X234518400Y-112039600D02*
X231064000Y-115494000D01*
X231064000Y-115494000D02*
X231064000Y-115494000D01*
X242036800Y-109906000D02*
X239903200Y-112039600D01*
X243256000Y-109906000D02*
X242036800Y-109906000D01*
X178497999Y-88558001D02*
X180772000Y-86284000D01*
X178379999Y-88558001D02*
X178497999Y-88558001D01*
D31*
X166548000Y-100254000D02*
X166548000Y-100762000D01*
X166548000Y-100762000D02*
X166929000Y-101143000D01*
X167818000Y-102032000D02*
X167818000Y-102794000D01*
X167818000Y-122352000D02*
X166548000Y-123622000D01*
X148768000Y-135814000D02*
X148514000Y-135814000D01*
X152578000Y-135814000D02*
X152578000Y-135814000D01*
X157785000Y-132385000D02*
X156007000Y-134163000D01*
X159817000Y-130353000D02*
X157785000Y-132385000D01*
X161976000Y-128194000D02*
X159817000Y-130353000D01*
X164135000Y-126035000D02*
X161976000Y-128194000D01*
X166548000Y-123622000D02*
X164135000Y-126035000D01*
X167818000Y-121590000D02*
X167818000Y-122352000D01*
X167818000Y-119558000D02*
X167818000Y-121590000D01*
X167818000Y-116002000D02*
X167818000Y-119558000D01*
X167818000Y-113716000D02*
X167818000Y-116002000D01*
X167818000Y-110668000D02*
X167818000Y-113716000D01*
X167818000Y-108382000D02*
X167818000Y-110668000D01*
X167818000Y-105588000D02*
X167818000Y-108382000D01*
X167818000Y-102794000D02*
X167818000Y-105588000D01*
X166929000Y-101143000D02*
X167818000Y-102032000D01*
X170588010Y-99232676D02*
X170588010Y-102055990D01*
X169709324Y-98353990D02*
X170588010Y-99232676D01*
X168466676Y-98353990D02*
X168466676Y-98353990D01*
X166566666Y-100254000D02*
X168466676Y-98353990D01*
X166548000Y-100254000D02*
X166566666Y-100254000D01*
X170588010Y-102055990D02*
X170612000Y-102079980D01*
X170612000Y-102079980D02*
X170612000Y-102794000D01*
X170612000Y-123368000D02*
X168834000Y-125146000D01*
X152750001Y-139288001D02*
X152070000Y-138608000D01*
X155546001Y-139288001D02*
X154691999Y-139288001D01*
X157658000Y-137176002D02*
X155546001Y-139288001D01*
X157658000Y-136322000D02*
X157658000Y-137084000D01*
X152070000Y-138354000D02*
X152004010Y-138288010D01*
X152070000Y-138608000D02*
X152070000Y-138354000D01*
X152004010Y-138288010D02*
X152004010Y-138288010D01*
X148768000Y-138288010D02*
X148768000Y-138288010D01*
X154691999Y-139288001D02*
X152750001Y-139288001D01*
X157658000Y-137084000D02*
X157658000Y-137176002D01*
X159817000Y-134163000D02*
X157658000Y-136322000D01*
X161468000Y-132512000D02*
X159817000Y-134163000D01*
X164262000Y-129718000D02*
X161468000Y-132512000D01*
X166421000Y-127559000D02*
X164262000Y-129718000D01*
X168834000Y-125146000D02*
X166421000Y-127559000D01*
X170612000Y-122352000D02*
X170612000Y-123368000D01*
X170612000Y-119812000D02*
X170612000Y-122352000D01*
X170612000Y-116002000D02*
X170612000Y-119812000D01*
X170612000Y-113716000D02*
X170612000Y-116002000D01*
X170612000Y-110668000D02*
X170612000Y-113716000D01*
X170612000Y-108382000D02*
X170612000Y-110668000D01*
X170612000Y-105588000D02*
X170612000Y-108382000D01*
X170612000Y-102794000D02*
X170612000Y-105588000D01*
X168466676Y-98353990D02*
X169709324Y-98353990D01*
X170588010Y-99232676D02*
X170588010Y-99232676D01*
X152578000Y-135814000D02*
X148514000Y-135814000D01*
X154229000Y-134163000D02*
X156007000Y-134163000D01*
X152578000Y-135814000D02*
X154229000Y-134163000D01*
D30*
X145604209Y-138627990D02*
X148279990Y-138627990D01*
X144831990Y-136820229D02*
X144831990Y-137855771D01*
X145564229Y-136087990D02*
X144831990Y-136820229D01*
X148494010Y-136087990D02*
X145564229Y-136087990D01*
X144831990Y-137855771D02*
X145604209Y-138627990D01*
X148768000Y-135814000D02*
X148494010Y-136087990D01*
D31*
X152004010Y-138288010D02*
X148768000Y-138288010D01*
D30*
X161468000Y-100254000D02*
X161468000Y-99854000D01*
X135071990Y-119554012D02*
X135071990Y-114204010D01*
X134942001Y-119684001D02*
X135071990Y-119554012D01*
X132094631Y-119684001D02*
X134942001Y-119684001D01*
X130480000Y-118069370D02*
X132094631Y-119684001D01*
X130480000Y-116938000D02*
X130480000Y-118069370D01*
X135071990Y-114204010D02*
X136068000Y-113208000D01*
X141765743Y-113208000D02*
X143688000Y-111285743D01*
X136068000Y-113208000D02*
X141765743Y-113208000D01*
X143688000Y-111285743D02*
X143688000Y-110160000D01*
X143688000Y-110160000D02*
X143688000Y-104826000D01*
X143688000Y-104826000D02*
X143688000Y-104826000D01*
X141402000Y-122860000D02*
X140640000Y-123622000D01*
X141402000Y-118034000D02*
X141402000Y-122860000D01*
X129764802Y-125400000D02*
X125400000Y-125400000D01*
X132094631Y-123070171D02*
X129764802Y-125400000D01*
X132094631Y-119684001D02*
X132094631Y-123070171D01*
X188392000Y-129210000D02*
X184390000Y-129210000D01*
X183902799Y-125654999D02*
X187376999Y-125654999D01*
X183374999Y-126182799D02*
X183902799Y-125654999D01*
X183374999Y-130734999D02*
X183374999Y-126182799D01*
X184390000Y-131750000D02*
X183374999Y-130734999D01*
X187376999Y-125654999D02*
X187884000Y-126162000D01*
X187884000Y-126162000D02*
X187884000Y-126162000D01*
X199568000Y-134036000D02*
X191694000Y-126162000D01*
X199568000Y-134036000D02*
X199568000Y-139116000D01*
X186412001Y-141392001D02*
X191430001Y-141392001D01*
X191430001Y-141392001D02*
X196520000Y-146482000D01*
X184390000Y-139370000D02*
X186412001Y-141392001D01*
X177978000Y-145782000D02*
X176646000Y-144450000D01*
X177978000Y-148260000D02*
X177978000Y-145782000D01*
X188686999Y-143434999D02*
X190384000Y-145132000D01*
X178170999Y-143434999D02*
X188686999Y-143434999D01*
X176646000Y-141910000D02*
X178170999Y-143434999D01*
X180201001Y-135814999D02*
X176646000Y-139370000D01*
X185550199Y-135814999D02*
X180201001Y-135814999D01*
X188599198Y-132766000D02*
X185550199Y-135814999D01*
X192964000Y-132766000D02*
X188599198Y-132766000D01*
X146482000Y-137338000D02*
X149022000Y-137338000D01*
X149022000Y-137338000D02*
X154610000Y-137338000D01*
X169088000Y-122860000D02*
X169088000Y-100254000D01*
X154610000Y-137338000D02*
X169088000Y-122860000D01*
X187122000Y-119812000D02*
X187122000Y-119812000D01*
X176646000Y-126670000D02*
X172898000Y-126670000D01*
X187630000Y-120320000D02*
X187122000Y-119812000D01*
X187630000Y-123114000D02*
X187630000Y-120320000D01*
X200330000Y-111430000D02*
X212268000Y-111430000D01*
X191948000Y-119812000D02*
X200330000Y-111430000D01*
X186379999Y-121863999D02*
X187630000Y-123114000D01*
X177457999Y-121863999D02*
X186379999Y-121863999D01*
X176646000Y-122675998D02*
X177457999Y-121863999D01*
X176646000Y-126670000D02*
X176646000Y-122675998D01*
X195377990Y-62280010D02*
X193345990Y-62280010D01*
X197028000Y-60630000D02*
X195377990Y-62280010D01*
X193345990Y-62280010D02*
X191440000Y-64186000D01*
X191058010Y-82601990D02*
X190678000Y-82982000D01*
X191058010Y-70917990D02*
X191058010Y-82601990D01*
X191440000Y-70536000D02*
X191058010Y-70917990D01*
X191440000Y-64186000D02*
X191440000Y-70536000D01*
X190678000Y-82982000D02*
X190678000Y-86030000D01*
X190678000Y-86030000D02*
X201092000Y-96444000D01*
X218268000Y-109430000D02*
X214332000Y-109430000D01*
X214332000Y-109430000D02*
X203378000Y-98476000D01*
X203378000Y-98476000D02*
X203378000Y-98476000D01*
X201092000Y-96444000D02*
X201092000Y-96444000D01*
X212268000Y-130734000D02*
X212268000Y-136068000D01*
X212268000Y-138354000D02*
X214046000Y-140132000D01*
X212268000Y-136068000D02*
X212268000Y-138354000D01*
X199822000Y-60376000D02*
X197028000Y-63170000D01*
X200584000Y-60376000D02*
X199822000Y-60376000D01*
X213693001Y-124159001D02*
X213693001Y-110061001D01*
X218268000Y-128734000D02*
X213693001Y-124159001D01*
X213693001Y-110061001D02*
X202870000Y-99238000D01*
X202870000Y-99238000D02*
X202616000Y-98984000D01*
X192964000Y-67234000D02*
X197028000Y-63170000D01*
X192964000Y-86792000D02*
X192964000Y-67234000D01*
X197282000Y-87808000D02*
X201854000Y-92380000D01*
X201854000Y-92380000D02*
X203886000Y-92380000D01*
X203886000Y-92380000D02*
X203886000Y-92380000D01*
X198298000Y-64440000D02*
X197028000Y-65710000D01*
X200584000Y-64440000D02*
X198298000Y-64440000D01*
X200584000Y-64440000D02*
X202362000Y-64440000D01*
X202362000Y-64440000D02*
X203632000Y-65710000D01*
X203632000Y-65710000D02*
X203632000Y-65710000D01*
X203632000Y-68758000D02*
X203632000Y-71298000D01*
X203632000Y-71298000D02*
X207808801Y-75474801D01*
X207808801Y-75474801D02*
X215189000Y-82855000D01*
X199822000Y-68250000D02*
X197028000Y-68250000D01*
X201580010Y-66491990D02*
X199822000Y-68250000D01*
X213937990Y-66491990D02*
X201580010Y-66491990D01*
X218268000Y-70822000D02*
X213937990Y-66491990D01*
X230600501Y-82175499D02*
X229794000Y-82982000D01*
X230600501Y-73140901D02*
X230600501Y-82175499D01*
X228281600Y-70822000D02*
X230600501Y-73140901D01*
X218268000Y-70822000D02*
X228281600Y-70822000D01*
X168580240Y-71883999D02*
X170710229Y-69754010D01*
X170710229Y-69754010D02*
X175418010Y-69754010D01*
X175418010Y-69754010D02*
X175418010Y-69754010D01*
X151484001Y-71883999D02*
X149276000Y-74092000D01*
X149276000Y-74092000D02*
X141656000Y-81712000D01*
X149591990Y-73776010D02*
X149276000Y-74092000D01*
X161468000Y-71707998D02*
X161291999Y-71883999D01*
X161468000Y-69266000D02*
X161468000Y-71707998D01*
X161291999Y-71883999D02*
X151484001Y-71883999D01*
X168580240Y-71883999D02*
X161291999Y-71883999D01*
X124149999Y-80461999D02*
X140405999Y-80461999D01*
X140405999Y-80461999D02*
X141656000Y-81712000D01*
X123699999Y-80011999D02*
X124149999Y-80461999D01*
X108812001Y-80011999D02*
X123699999Y-80011999D01*
X107112000Y-81712000D02*
X108812001Y-80011999D01*
X170710229Y-67214010D02*
X177997990Y-67214010D01*
X169977990Y-66481771D02*
X170710229Y-67214010D01*
X177997990Y-67214010D02*
X179248000Y-65964000D01*
X154346229Y-66481771D02*
X141656000Y-79172000D01*
X169977990Y-66481771D02*
X154346229Y-66481771D01*
X140405999Y-77921999D02*
X141656000Y-79172000D01*
X125815999Y-77921999D02*
X140405999Y-77921999D01*
X124565998Y-79172000D02*
X125815999Y-77921999D01*
X107112000Y-79172000D02*
X124565998Y-79172000D01*
X154610000Y-66745542D02*
X154346229Y-66481771D01*
X154610000Y-67488000D02*
X154610000Y-66745542D01*
X125815999Y-88081999D02*
X130245999Y-88081999D01*
X125165999Y-88731999D02*
X125815999Y-88081999D01*
X125165999Y-100092001D02*
X125165999Y-88731999D01*
X127050001Y-100742001D02*
X125815999Y-100742001D01*
X130245999Y-88081999D02*
X141656000Y-99492000D01*
X136322000Y-110014000D02*
X127050001Y-100742001D01*
X136322000Y-110414000D02*
X136322000Y-110014000D01*
X162357990Y-90983990D02*
X164008000Y-92634000D01*
X150164010Y-90983990D02*
X162357990Y-90983990D01*
X141656000Y-99492000D02*
X150164010Y-90983990D01*
X125327998Y-100254000D02*
X125490999Y-100417001D01*
X121336000Y-100254000D02*
X125327998Y-100254000D01*
X125490999Y-100417001D02*
X125165999Y-100092001D01*
X125815999Y-100742001D02*
X125490999Y-100417001D01*
X127940000Y-99492000D02*
X126416000Y-99492000D01*
X138862000Y-110414000D02*
X127940000Y-99492000D01*
X127940000Y-96952000D02*
X126416000Y-96952000D01*
X141402000Y-110414000D02*
X127940000Y-96952000D01*
X161468000Y-92776276D02*
X151958276Y-102286000D01*
X161468000Y-92634000D02*
X161468000Y-92776276D01*
X151958276Y-102286000D02*
X142672000Y-102286000D01*
X142672000Y-102286000D02*
X142672000Y-102286000D01*
X160960000Y-95682000D02*
X160960000Y-95682000D01*
X164008000Y-97206000D02*
X164008000Y-100254000D01*
X162484000Y-95682000D02*
X164008000Y-97206000D01*
X160960000Y-95682000D02*
X160960000Y-95682000D01*
X160960000Y-95682000D02*
X162484000Y-95682000D01*
X149022000Y-95682000D02*
X147865981Y-94525981D01*
X147865981Y-94525981D02*
X147611981Y-94525981D01*
X145212000Y-99492000D02*
X145212000Y-99746000D01*
X149022000Y-95682000D02*
X145212000Y-99492000D01*
X144215999Y-100742001D02*
X140112001Y-100742001D01*
X145212000Y-99746000D02*
X144215999Y-100742001D01*
X140112001Y-100742001D02*
X131242000Y-91872000D01*
X131242000Y-91872000D02*
X131242000Y-91872000D01*
X166802000Y-68504000D02*
X171628000Y-68504000D01*
X175278002Y-68504000D02*
X171628000Y-68504000D01*
X176528012Y-69754010D02*
X175278002Y-68504000D01*
X180283990Y-69754010D02*
X176528012Y-69754010D01*
X189408000Y-60630000D02*
X180283990Y-69754010D01*
X172917990Y-72333990D02*
X171628000Y-71044000D01*
X180244010Y-72333990D02*
X172917990Y-72333990D01*
X189408000Y-63170000D02*
X180244010Y-72333990D01*
X190714003Y-59126001D02*
X185831999Y-59126001D01*
X191058001Y-59469999D02*
X190714003Y-59126001D01*
X185831999Y-59126001D02*
X184582000Y-60376000D01*
X191058001Y-61790001D02*
X191058001Y-59469999D01*
X189678002Y-63170000D02*
X191058001Y-61790001D01*
X189408000Y-63170000D02*
X189678002Y-63170000D01*
X167056000Y-73584000D02*
X171628000Y-73584000D01*
X172878010Y-74834010D02*
X171628000Y-73584000D01*
X180165771Y-74834010D02*
X172878010Y-74834010D01*
X189289781Y-65710000D02*
X180165771Y-74834010D01*
X189408000Y-65710000D02*
X189289781Y-65710000D01*
X172878010Y-77374010D02*
X171628000Y-76124000D01*
X180165771Y-77374010D02*
X172878010Y-77374010D01*
X189289781Y-68250000D02*
X180165771Y-77374010D01*
X189408000Y-68250000D02*
X189289781Y-68250000D01*
X169596000Y-76124000D02*
X167056000Y-78664000D01*
X171628000Y-76124000D02*
X169596000Y-76124000D01*
X110922000Y-131750000D02*
X109906000Y-130734000D01*
X113716000Y-131750000D02*
X110922000Y-131750000D01*
X104826000Y-130734000D02*
X109906000Y-130734000D01*
X104826000Y-137084000D02*
X109906000Y-137084000D01*
X110668000Y-136322000D02*
X109906000Y-137084000D01*
X113716000Y-136322000D02*
X110668000Y-136322000D01*
X104816001Y-120583999D02*
X103556000Y-121844000D01*
X109160801Y-120583999D02*
X104816001Y-120583999D01*
X113716000Y-125139198D02*
X109160801Y-120583999D01*
X113716000Y-128448000D02*
X113716000Y-125139198D01*
X186614000Y-78664000D02*
X189408000Y-75870000D01*
X179248000Y-78664000D02*
X186614000Y-78664000D01*
X117526000Y-76632000D02*
X117018000Y-77140000D01*
X126416000Y-76632000D02*
X117526000Y-76632000D01*
X119558000Y-67234000D02*
X117018000Y-67234000D01*
X126416000Y-74092000D02*
X119558000Y-67234000D01*
X105811999Y-63139999D02*
X107112000Y-64440000D01*
X105811999Y-60689999D02*
X105811999Y-63139999D01*
X105901999Y-60599999D02*
X105811999Y-60689999D01*
X110383999Y-60599999D02*
X105901999Y-60599999D01*
X117018000Y-67234000D02*
X110383999Y-60599999D01*
X187884000Y-135346000D02*
X187964000Y-135266000D01*
X187884000Y-140132000D02*
X187884000Y-135346000D01*
X113716000Y-139878000D02*
X113716000Y-142672000D01*
X110414000Y-145974000D02*
X108636000Y-145974000D01*
X113716000Y-142672000D02*
X110414000Y-145974000D01*
X147832000Y-143768000D02*
X146482000Y-142418000D01*
X151856000Y-143768000D02*
X147832000Y-143768000D01*
X173406000Y-140070000D02*
X173406000Y-143688000D01*
X176646000Y-136830000D02*
X173406000Y-140070000D01*
X143922001Y-144977999D02*
X146482000Y-142418000D01*
X137826001Y-144977999D02*
X143922001Y-144977999D01*
X135814000Y-146990000D02*
X137826001Y-144977999D01*
X212268000Y-72822000D02*
X212268000Y-75362000D01*
X212268000Y-75362000D02*
X217856000Y-80950000D01*
X217856000Y-80950000D02*
X217856000Y-80950000D01*
X219634000Y-106858000D02*
X219634000Y-106096000D01*
X219634000Y-106096000D02*
X221666000Y-104064000D01*
X221666000Y-104064000D02*
X221666000Y-104064000D01*
X205943499Y-106883499D02*
X201854000Y-102794000D01*
X206705499Y-106883499D02*
X205943499Y-106883499D01*
X154377600Y-148789600D02*
X154356000Y-148768000D01*
X159167400Y-148789600D02*
X154377600Y-148789600D01*
X156667400Y-143789600D02*
X159309000Y-141148000D01*
X166802000Y-141148000D02*
X169342000Y-138608000D01*
X159309000Y-141148000D02*
X166802000Y-141148000D01*
X185852000Y-134290000D02*
X184390000Y-134290000D01*
X190092001Y-130049999D02*
X185852000Y-134290000D01*
X190092001Y-110147007D02*
X190092001Y-130049999D01*
X223698000Y-76541008D02*
X190092001Y-110147007D01*
X223698000Y-74600000D02*
X223698000Y-76541008D01*
X117018000Y-86792000D02*
X117018000Y-90094000D01*
X112446000Y-94666000D02*
X107112000Y-94666000D01*
X117018000Y-90094000D02*
X112446000Y-94666000D01*
X117018000Y-86792000D02*
X126416000Y-86792000D01*
X129945962Y-86792000D02*
X126416000Y-86792000D01*
X131235961Y-88081999D02*
X129945962Y-86792000D01*
X142256001Y-88081999D02*
X131235961Y-88081999D01*
X142490002Y-88316000D02*
X142256001Y-88081999D01*
X148514000Y-88316000D02*
X142490002Y-88316000D01*
X173326000Y-148768000D02*
X173406000Y-148688000D01*
X166040000Y-148768000D02*
X173326000Y-148768000D01*
X163500000Y-146228000D02*
X166040000Y-148768000D01*
X157150000Y-146228000D02*
X163500000Y-146228000D01*
X150800000Y-139878000D02*
X157150000Y-146228000D01*
X146482000Y-139878000D02*
X150800000Y-139878000D01*
X127705999Y-83001999D02*
X126416000Y-81712000D01*
X147771999Y-83001999D02*
X127705999Y-83001999D01*
X148514000Y-83744000D02*
X147771999Y-83001999D01*
X108351999Y-73299999D02*
X107112000Y-72060000D01*
X117241999Y-73299999D02*
X108351999Y-73299999D01*
X118542000Y-74600000D02*
X117241999Y-73299999D01*
X105111989Y-60400046D02*
X105111989Y-67519989D01*
X105612046Y-59899989D02*
X105111989Y-60400046D01*
X115413989Y-59899989D02*
X105612046Y-59899989D01*
X127016001Y-70301999D02*
X125815999Y-70301999D01*
X127666001Y-70951999D02*
X127016001Y-70301999D01*
X125815999Y-70301999D02*
X115413989Y-59899989D01*
X127666001Y-74692001D02*
X127666001Y-70951999D01*
X127016001Y-75342001D02*
X127666001Y-74692001D01*
X105111989Y-67519989D02*
X107112000Y-69520000D01*
X124364001Y-75342001D02*
X127016001Y-75342001D01*
X121336000Y-72314000D02*
X124364001Y-75342001D01*
X194508001Y-81732001D02*
X195758000Y-82982000D01*
X194508001Y-73682218D02*
X194508001Y-81732001D01*
X197028000Y-71162219D02*
X194508001Y-73682218D01*
X197028000Y-70790000D02*
X197028000Y-71162219D01*
X198806000Y-71552000D02*
X197028000Y-73330000D01*
X200838000Y-71552000D02*
X198806000Y-71552000D01*
X168072000Y-60884000D02*
X171628000Y-60884000D01*
X138608000Y-132512000D02*
X138862000Y-132258000D01*
X138354000Y-131750000D02*
X138862000Y-132258000D01*
X123876000Y-131750000D02*
X138354000Y-131750000D01*
X123876000Y-131750000D02*
X123876000Y-128448000D01*
X124892000Y-137338000D02*
X123876000Y-136322000D01*
X123876000Y-139878000D02*
X123876000Y-136322000D01*
X130988000Y-137084000D02*
X130734000Y-137338000D01*
X131750000Y-137084000D02*
X130988000Y-137084000D01*
X130734000Y-137338000D02*
X124892000Y-137338000D01*
X138862000Y-137338000D02*
X130734000Y-137338000D01*
X201092000Y-75870000D02*
X197028000Y-75870000D01*
X123876000Y-84252000D02*
X121336000Y-81712000D01*
X126416000Y-84252000D02*
X123876000Y-84252000D01*
X119292001Y-74080001D02*
X107112000Y-61900000D01*
X119292001Y-74960001D02*
X119292001Y-74080001D01*
X118902001Y-75350001D02*
X119292001Y-74960001D01*
X112180001Y-75350001D02*
X118902001Y-75350001D01*
X112180001Y-75858001D02*
X112180001Y-75350001D01*
X114478000Y-78156000D02*
X112180001Y-75858001D01*
X164897990Y-94284010D02*
X160950229Y-94284010D01*
X166548000Y-92634000D02*
X164897990Y-94284010D01*
X166548000Y-88443000D02*
X165913000Y-87808000D01*
X166548000Y-92634000D02*
X166548000Y-88443000D01*
X160950229Y-94284010D02*
X160950229Y-94656229D01*
X160950229Y-94656229D02*
X160950229Y-94656229D01*
X142216003Y-90621999D02*
X141128001Y-90621999D01*
X143272001Y-89566001D02*
X142216003Y-90621999D01*
X155391999Y-89566001D02*
X143272001Y-89566001D01*
X156642000Y-88316000D02*
X155391999Y-89566001D01*
X141128001Y-90621999D02*
X138862000Y-92888000D01*
X138862000Y-92888000D02*
X138862000Y-92888000D01*
X133782000Y-118034000D02*
X133782000Y-113716000D01*
X133782000Y-113716000D02*
X135306000Y-112192000D01*
X142652010Y-105568010D02*
X126416000Y-89332000D01*
X142652010Y-111331771D02*
X142652010Y-105568010D01*
X141791781Y-112192000D02*
X142652010Y-111331771D01*
X135306000Y-112192000D02*
X141791781Y-112192000D01*
X138862000Y-118034000D02*
X138862000Y-127178000D01*
X138862000Y-127178000D02*
X133782000Y-127178000D01*
X141285999Y-115610001D02*
X138862000Y-118034000D01*
X143550001Y-115610001D02*
X141285999Y-115610001D01*
X144450000Y-116510000D02*
X143550001Y-115610001D01*
X144450000Y-116510000D02*
X144450000Y-120066000D01*
X138100000Y-141656000D02*
X138862000Y-142418000D01*
X135306000Y-141656000D02*
X138100000Y-141656000D01*
X138862000Y-142418000D02*
X138862000Y-139878000D01*
X136322000Y-118034000D02*
X136322000Y-114478000D01*
X136322000Y-114478000D02*
X136576000Y-114224000D01*
X143180000Y-114224000D02*
X144450000Y-112954000D01*
X136576000Y-114224000D02*
X143180000Y-114224000D01*
X133528000Y-143434000D02*
X135306000Y-141656000D01*
X128448000Y-143434000D02*
X133528000Y-143434000D01*
M02*
